<?xml version="1.0" encoding="utf-8"?>
<!-- Generator: Adobe Illustrator 24.2.1, SVG Export Plug-In . SVG Version: 6.00 Build 0)  -->
<svg version="1.1" xmlns="http://www.w3.org/2000/svg" xmlns:xlink="http://www.w3.org/1999/xlink" x="0px" y="0px"
	 viewBox="0 0 50 50" style="enable-background:new 0 0 50 50;" xml:space="preserve">
<style type="text/css">
	.st0{fill:#FFFFFF;}
	.st1{display:none;}
	.st2{display:inline;}
	.st3{display:inline;fill:#FFFFFF;}
</style>
<g id="圖層_1">
	<g>
		<g>
			<path class="st0" d="M25,5C14,5,5,14,5,25c0,11,9,20,20,20s20-9,20-20C45,14,36,5,25,5z M25,42c-9.4,0-17-7.6-17-17
				c0-9.4,7.6-17,17-17s17,7.6,17,17C42,34.4,34.4,42,25,42z M15.4,29h19.2L25,17.8L15.4,29z"/>
		</g>
	</g>
</g>
<g id="圖層_2" class="st1">
	<g class="st2">
		<g>
			<path class="st0" d="M16.3,36.3c-2.1,0-3.7,1.6-3.7,3.7c0,2.1,1.6,3.7,3.7,3.7c2.1,0,3.7-1.6,3.7-3.7
				C20,37.9,18.4,36.3,16.3,36.3z M41.3,36.3c-2.1,0-3.7,1.6-3.7,3.7c0,2.1,1.6,3.7,3.7,3.7c2.1,0,3.7-1.6,3.7-3.7
				C45,37.9,43.4,36.3,41.3,36.3z M45,8.8H15c0-1.4-1.1-2.5-2.5-2.5H5v2.5h5l1.9,16.1c-1.1,0.9-1.9,2.2-1.9,3.9c0,2.8,2.2,5,5,5h30
				v-2.5H15c-1.4,0-2.5-1.1-2.5-2.5l32.5-5V8.8z"/>
		</g>
	</g>
</g>
<g id="圖層_3" class="st1">
	<path class="st3" d="M21.7,7.2L21.7,7.2c9.2,0,16.7,6,16.7,13.4c0,7.4-7.4,13.4-16.7,13.4c-0.9,0-1.8-0.1-2.6-0.1
		c-3.7,3.6-7.8,4.2-11.9,4.3v-0.9c2.2-1.1,4-3.1,4-5.3c0-0.3,0-0.7-0.1-0.9C7.4,28.7,5,24.9,5,20.7C5,13.2,12.4,7.2,21.7,7.2
		L21.7,7.2z M39.6,37.4c0,1.9,1.2,3.7,3.2,4.6v0.8c-3.6-0.1-6.9-0.7-10-3.7c-0.8,0.1-1.4,0.1-2.2,0.1c-3.3,0-6.3-0.9-8.8-2.4
		c5,0,9.8-1.7,13.3-4.6c1.8-1.4,3.2-3.2,4.2-5.1c1.1-2,1.6-4.2,1.6-6.4c0-0.3,0-0.8,0-1.1c2.6,2.1,4.1,4.9,4.1,8
		c0,3.7-2.1,6.9-5.3,9C39.6,36.9,39.6,37.2,39.6,37.4z"/>
</g>
</svg>
