<?xml version="1.0" encoding="utf-8"?>
<!-- Generator: Adobe Illustrator 24.2.1, SVG Export Plug-In . SVG Version: 6.00 Build 0)  -->
<svg version="1.1" xmlns="http://www.w3.org/2000/svg" xmlns:xlink="http://www.w3.org/1999/xlink" x="0px" y="0px"
	 viewBox="0 0 30 30" style="enable-background:new 0 0 30 30;" xml:space="preserve">
<style type="text/css">
	.st0{display:none;}
	.st1{display:inline;fill-rule:evenodd;clip-rule:evenodd;fill:#CE4924;}
	.st2{fill-rule:evenodd;clip-rule:evenodd;fill:#CE4924;}
</style>
<g id="圖層_1" class="st0">
	<path class="st1" d="M22,15c0,0.5-0.1,0.9-0.4,1.2L10.5,29.5c-0.6,0.7-1.5,0.7-2.1,0c-0.6-0.7-0.6-1.8,0-2.5l10-12L8.4,3
		c-0.6-0.7-0.6-1.8,0-2.5c0.6-0.7,1.5-0.7,2.1,0l11.1,13.2C21.9,14.1,22,14.6,22,15"/>
</g>
<g id="圖層_2">
	<path class="st2" d="M8,15c0-0.5,0.1-0.9,0.4-1.2L19.5,0.5c0.6-0.7,1.5-0.7,2.1,0c0.6,0.7,0.6,1.8,0,2.5l-10,12l10,12
		c0.6,0.7,0.6,1.8,0,2.5c-0.6,0.7-1.5,0.7-2.1,0L8.4,16.2C8.1,15.9,8,15.4,8,15"/>
</g>
</svg>
