<?xml version="1.0" encoding="utf-8"?>
<!-- Generator: Adobe Illustrator 25.0.0, SVG Export Plug-In . SVG Version: 6.00 Build 0)  -->
<svg version="1.1" xmlns="http://www.w3.org/2000/svg" xmlns:xlink="http://www.w3.org/1999/xlink" x="0px" y="0px"
	 viewBox="0 0 200 200" style="enable-background:new 0 0 200 200;" xml:space="preserve">
<style type="text/css">
	.st0{display:none;}
	.st1{display:inline;}
	.st2{fill:#474747;}
	.st3{fill:#363636;}
	.st4{fill:#444444;}
</style>
<g id="圖層_1" class="st0">
	<g class="st1">
		<g>
			<path class="st2" d="M125.4,137.7H78.1c-1.5,0-2.7-1.2-2.7-2.7V87.8c0-1.5,1.2-2.7,2.7-2.7h47.3c1.5,0,2.7,1.2,2.7,2.7V135
				C128.1,136.5,126.9,137.7,125.4,137.7z M80.8,132.4h41.9V90.5H80.8V132.4z"/>
		</g>
		<g>
			<path class="st2" d="M115.7,90.5h-28c-1.5,0-2.7-1.2-2.7-2.7v-9c0-9.2,7.5-16.7,16.7-16.7c9.2,0,16.7,7.5,16.7,16.7v9
				C118.4,89.3,117.2,90.5,115.7,90.5z M90.4,85.1h22.6v-6.3c0-6.2-5.1-11.3-11.3-11.3c-6.2,0-11.3,5.1-11.3,11.3V85.1z"/>
		</g>
		<g>
			<path class="st2" d="M109.1,127.7H94.4c-0.9,0-1.7-0.4-2.2-1.1c-0.5-0.7-0.7-1.6-0.4-2.4l2.9-9.1c-2.6-2.1-4.2-5.3-4.2-8.7
				c0-6.2,5-11.2,11.2-11.2c6.2,0,11.2,5,11.2,11.2c0,3.4-1.6,6.6-4.2,8.7l2.9,9.1c0.3,0.8,0.1,1.7-0.4,2.4
				C110.7,127.3,109.9,127.7,109.1,127.7z M98.1,122.3h7.3l-2.4-7.6c-0.4-1.3,0.2-2.6,1.4-3.2c2-1,3.2-3,3.2-5.2
				c0-3.2-2.6-5.8-5.8-5.8c-3.2,0-5.8,2.6-5.8,5.8c0,2.2,1.2,4.2,3.2,5.2c1.2,0.6,1.8,2,1.4,3.2L98.1,122.3z"/>
		</g>
		<g>
			<path class="st2" d="M28.7,163.7c-0.8,0-1.5-0.3-2.1-1C12.7,145.8,5,124.4,5,102.4c0-13.1,2.6-25.7,7.7-37.6
				c2.1-4.8,7.4-7.3,12.3-5.8c2.8,0.8,5,2.8,6.3,5.4c1.2,2.6,1.3,5.7,0.1,8.4c-3.9,9.2-5.9,18.9-5.9,29c0,1.5-1.2,2.7-2.7,2.7
				c-1.5,0-2.7-1.2-2.7-2.7c0-10.8,2.1-21.3,6.3-31.1c0.5-1.3,0.5-2.7-0.1-4c-0.6-1.2-1.6-2.1-2.9-2.5c-2.3-0.7-4.8,0.5-5.8,2.8
				c-4.8,11.2-7.3,23.2-7.3,35.5c0,20.7,7.2,40.9,20.4,56.9c0.9,1.1,0.8,2.8-0.4,3.8C29.9,163.5,29.3,163.7,28.7,163.7z"/>
		</g>
		<g>
			<path class="st2" d="M70.3,192.5c-0.3,0-0.6,0-0.9-0.1c-11.2-3.8-21.5-9.6-30.5-17.2c-1.1-1-1.3-2.7-0.3-3.8
				c1-1.1,2.7-1.3,3.8-0.3c8.6,7.2,18.3,12.7,28.8,16.3c1.4,0.5,2.2,2,1.7,3.4C72.4,191.8,71.4,192.5,70.3,192.5z"/>
		</g>
		<g>
			<path class="st2" d="M157,182.4c-0.8,0-1.5-0.3-2-0.9c-1-1.1-0.8-2.8,0.3-3.8c7.5-6.5,14.3-14.5,20-24c0.8-1.3,2.4-1.7,3.7-0.9
				c1.3,0.8,1.7,2.4,0.9,3.7c-6,9.9-13.1,18.4-21.1,25.2C158.2,182.2,157.6,182.4,157,182.4z"/>
		</g>
		<g>
			<path class="st2" d="M190.7,88.4c-1.3,0-2.4-0.9-2.6-2.2c-1.2-6.4-3.1-12.7-5.7-18.7c-13.9-32.5-45.6-53.9-80.6-54.6
				c-19.5-0.4-38.1,5.4-53.9,16.7c-2.1,1.5-2.7,4.3-1.3,6.4c0.7,1.1,1.8,1.8,3.1,2.1c1.3,0.2,2.6,0,3.7-0.8
				c13.6-9.8,29.7-15,46.6-15c16.4,0,32.1,4.9,45.5,14.3c1.2,0.9,1.5,2.5,0.7,3.7c-0.8,1.2-2.5,1.5-3.7,0.7
				c-12.5-8.7-27.2-13.3-42.5-13.3c-15.7,0-30.7,4.8-43.4,14c-2.2,1.6-5.1,2.3-7.8,1.7c-2.7-0.5-5.1-2.1-6.6-4.4
				c-2.9-4.5-1.7-10.6,2.7-13.7c16.7-12,36.5-18.1,57.2-17.7c37.2,0.7,70.7,23.4,85.5,57.8c2.7,6.4,4.8,13,6,19.8
				c0.3,1.5-0.7,2.9-2.2,3.1C191,88.3,190.9,88.4,190.7,88.4z"/>
		</g>
		<g>
			<path class="st2" d="M63.1,172.1c-0.4,0-0.9-0.1-1.3-0.3c-19-10.4-33.1-28.2-38.8-49c-0.4-1.4,0.5-2.9,1.9-3.3
				c1.4-0.4,2.9,0.5,3.3,1.9c5.3,19.4,18.5,36.1,36.2,45.7c1.3,0.7,1.8,2.3,1.1,3.7C64.9,171.6,64,172.1,63.1,172.1z"/>
		</g>
		<g>
			<path class="st2" d="M177.6,147.1c-3.8,0-7.2-1.9-9.2-5.2c-1.9-3-2.1-6.8-0.7-10c4.2-9.5,6.4-19.6,6.4-30.1
				c0-15.2-4.6-29.9-13.3-42.3c-0.8-1.2-0.5-2.9,0.7-3.7c1.2-0.9,2.9-0.6,3.7,0.7c9.3,13.4,14.2,29.1,14.2,45.4
				c0,11.2-2.3,22.1-6.8,32.3c-0.7,1.6-0.6,3.5,0.3,5c1.1,1.8,3,2.7,5.1,2.6c2.1-0.2,3.7-1.4,4.5-3.3c3-7.1,5.1-14.5,6.2-22.1
				c0.6-4.3,0.9-8.7,0.9-13.1c0-1.5,1.2-2.7,2.7-2.7c1.5,0,2.7,1.2,2.7,2.7c0,4.6-0.3,9.3-1,13.9c-1.2,8.1-3.4,15.9-6.5,23.4
				c-1.6,3.7-5.1,6.2-9.1,6.5C178.1,147.1,177.8,147.1,177.6,147.1z"/>
		</g>
		<g>
			<path class="st2" d="M97.6,169.2c-0.1,0-0.2,0-0.3,0c-34.3-4.4-61.1-34-61.1-67.3c0-4.3,0.4-8.7,1.3-12.9c1-4.8,5.1-8.2,10-8.3
				c3.2-0.1,6.2,1.3,8.2,3.8c2,2.4,2.8,5.5,2.2,8.6c-0.6,2.9-0.9,5.9-0.9,8.8c0,13.1,5.8,25.3,15.9,33.6c1.1,0.9,1.3,2.6,0.4,3.8
				c-0.9,1.1-2.6,1.3-3.8,0.4c-11.4-9.3-17.9-23.1-17.9-37.8c0-3.3,0.3-6.7,1-9.9c0.3-1.4-0.1-2.9-1-4c-1-1.2-2.4-1.9-4-1.8
				c-2.4,0-4.3,1.7-4.8,4c-0.8,3.9-1.2,7.8-1.2,11.8c0,34.3,28.7,58.4,56.4,62c1.5,0.2,2.5,1.5,2.3,3
				C100.1,168.2,98.9,169.2,97.6,169.2z"/>
		</g>
		<g>
			<path class="st2" d="M153.8,150.1c-0.3,0-0.7-0.1-1-0.2c-1.4-0.5-2.1-2.1-1.5-3.5c7.9-20.4,7.9-37.4,7.9-44.6
				c0-32.4-26.4-58.8-58.8-58.8c-14.3,0-28,5.2-38.7,14.5l-1.2,1.4c-1.4,1.6-1.6,3.9-0.5,5.7c0.8,1.4,2,2.1,3.4,2.3
				c1.5,0.2,3-0.3,4.1-1.3c9-8.1,20.6-12.6,32.8-12.6c8.2,0,16.4,2.1,23.6,6.1c1.3,0.7,1.8,2.4,1.1,3.7c-0.7,1.3-2.4,1.8-3.7,1.1
				c-6.4-3.5-13.6-5.4-21-5.4c-10.8,0-21.2,4-29.2,11.2c-2.3,2.1-5.4,3.1-8.5,2.6c-3-0.4-5.6-2.1-7.2-4.7c-2.4-3.9-2-8.7,0.9-12.1
				l1.3-1.5c0.1-0.1,0.2-0.2,0.3-0.3c11.7-10.3,26.8-16,42.4-16c35.4,0,64.2,28.8,64.2,64.2c0,7.5,0,25.2-8.3,46.5
				C155.9,149.4,154.9,150.1,153.8,150.1z"/>
		</g>
		<g>
			<path class="st2" d="M100.4,184.1c-8.9,0-17.6-1.8-25.7-5.4c-1.4-0.6-2-2.2-1.4-3.5c0.6-1.4,2.2-2,3.5-1.4
				c7.4,3.3,15.4,4.9,23.6,4.9c13.6,0,26.9-4.8,37.4-13.4c1.1-0.9,2.8-0.8,3.8,0.4c0.9,1.1,0.8,2.8-0.4,3.8
				C129.8,178.9,115.2,184.1,100.4,184.1z"/>
		</g>
		<g>
			<path class="st2" d="M137.8,152.1c-0.5,0-1.1-0.2-1.5-0.5c-1.2-0.9-1.5-2.5-0.7-3.7c8.4-12,9.1-31.1,8.3-34.4
				c-0.4-1.4,0.5-2.9,2-3.3c1.4-0.4,2.9,0.5,3.3,2c1.4,5.5-0.1,25.9-9.1,38.8C139.5,151.7,138.6,152.1,137.8,152.1z"/>
		</g>
		<g>
			<path class="st2" d="M146.5,104.5c-1.5,0-2.7-1.2-2.7-2.7c0-9.9-3.2-19.2-9.3-26.9c-0.9-1.2-0.7-2.9,0.4-3.8
				c1.2-0.9,2.9-0.7,3.8,0.4c6.9,8.7,10.5,19.1,10.5,30.2C149.2,103.3,148,104.5,146.5,104.5z"/>
		</g>
		<g>
			<path class="st2" d="M27.8,51.3c-5,0-9.1-4.1-9.1-9.1c0-5,4.1-9.1,9.1-9.1c5,0,9.1,4.1,9.1,9.1C37,47.2,32.9,51.3,27.8,51.3z
				 M27.8,38.4c-2.1,0-3.7,1.7-3.7,3.7c0,2.1,1.7,3.7,3.7,3.7c2.1,0,3.7-1.7,3.7-3.7C31.6,40.1,29.9,38.4,27.8,38.4z"/>
		</g>
		<g>
			<path class="st2" d="M153.3,170.2c-5,0-9.1-4.1-9.1-9.1c0-5,4.1-9.1,9.1-9.1c5,0,9.1,4.1,9.1,9.1
				C162.4,166.1,158.3,170.2,153.3,170.2z M153.3,157.3c-2.1,0-3.7,1.7-3.7,3.7c0,2.1,1.7,3.7,3.7,3.7c2.1,0,3.7-1.7,3.7-3.7
				C157,159,155.3,157.3,153.3,157.3z"/>
		</g>
		<g>
			<path class="st2" d="M103.1,152.9c-7.9,0-16.4-1.7-24.1-6c-1.3-0.7-1.8-2.4-1-3.7c0.7-1.3,2.4-1.8,3.7-1
				c15.1,8.5,34.5,5.5,42.2,0.1c1.2-0.9,2.9-0.6,3.7,0.7c0.9,1.2,0.6,2.9-0.7,3.8C121.9,150.3,113,152.9,103.1,152.9z"/>
		</g>
		<g>
			<path class="st2" d="M110.2,169.2c-1.3,0-2.5-1-2.7-2.4c-0.2-1.5,0.9-2.8,2.4-3c0.1,0,12.5-1.5,18.6-8.3c1-1.1,2.7-1.2,3.8-0.2
				c1.1,1,1.2,2.7,0.2,3.8c-7.5,8.2-21.3,9.9-21.9,10C110.4,169.2,110.3,169.2,110.2,169.2z"/>
		</g>
	</g>
</g>
<g id="圖層_2" class="st0">
	<g class="st1">
		<g>
			<path class="st3" d="M103,125.2h-5.9c-6.1,0-11-4.9-11-11c0-1.5,1.2-2.7,2.7-2.7s2.7,1.2,2.7,2.7c0,3.1,2.5,5.6,5.6,5.6h5.9
				c3.1,0,5.6-2.5,5.6-5.6v-5.9c0-3.1-2.5-5.6-5.6-5.6h-5.9c-6.1,0-11-4.9-11-11v-5.9c0-6.1,4.9-11,11-11h5.9c6.1,0,11,4.9,11,11
				v0.3c0,1.5-1.2,2.7-2.7,2.7c-1.5,0-2.7-1.2-2.7-2.7v-0.3c0-3.1-2.5-5.6-5.6-5.6h-5.9c-3.1,0-5.6,2.5-5.6,5.6v5.9
				c0,3.1,2.5,5.6,5.6,5.6h5.9c6.1,0,11,4.9,11,11v5.9C114,120.3,109,125.2,103,125.2z"/>
		</g>
		<g>
			<path class="st3" d="M100,79.4c-1.5,0-2.7-1.2-2.7-2.7v-8.8c0-1.5,1.2-2.7,2.7-2.7c1.5,0,2.7,1.2,2.7,2.7v8.8
				C102.8,78.2,101.5,79.4,100,79.4z"/>
		</g>
		<g>
			<path class="st3" d="M100,134c-1.5,0-2.7-1.2-2.7-2.7v-8.8c0-1.5,1.2-2.7,2.7-2.7c1.5,0,2.7,1.2,2.7,2.7v8.8
				C102.8,132.8,101.5,134,100,134z"/>
		</g>
		<g>
			<path class="st3" d="M100,145.4c-25.1,0-45.6-20.5-45.6-45.6c0-2.2,0.2-4.5,0.6-7.1c3.5-22.3,22.4-38.5,45-38.5
				c25.1,0,45.6,20.5,45.6,45.6c0,10.9-4,21.5-11.2,29.8c-0.8,0.9-2,1.2-3.1,0.7l-7.3-3l2.7,6.7c0.5,1.2,0.1,2.5-1,3.3
				C118.1,142.7,109.2,145.4,100,145.4z M100,59.7c-19.9,0-36.5,14.2-39.6,33.9c-0.4,2.3-0.5,4.4-0.5,6.3c0,22.1,18,40.2,40.2,40.2
				c7.4,0,14.5-2,20.8-5.9l-4.3-10.6c-0.4-1-0.2-2.2,0.6-3c0.8-0.8,1.9-1,3-0.6l11.5,4.7c5.6-7.1,8.6-15.8,8.6-24.8
				C140.1,77.7,122.1,59.7,100,59.7z"/>
		</g>
		<g>
			<path class="st3" d="M175.5,192.1c-0.7,0-1.4-0.3-1.9-0.8l-24.4-24.4l-7.8,7.8c-0.6,0.6-1.6,0.9-2.5,0.7c-0.9-0.2-1.6-0.8-2-1.6
				l-20.5-50.3c-0.4-1-0.2-2.2,0.6-3c0.8-0.8,1.9-1,3-0.6l50.3,20.5c0.8,0.3,1.5,1.1,1.6,2c0.2,0.9-0.1,1.8-0.7,2.5l-7.8,7.8
				l24.4,24.4c1.1,1.1,1.1,2.8,0,3.9l-10.4,10.4C176.9,191.9,176.2,192.1,175.5,192.1z M149.1,160.4c0.7,0,1.4,0.3,1.9,0.8
				l24.4,24.4l6.6-6.6l-24.4-24.4c-1.1-1.1-1.1-2.8,0-3.9l6.8-6.8l-40.5-16.5l16.5,40.5l6.8-6.8
				C147.8,160.6,148.5,160.4,149.1,160.4z"/>
		</g>
		<g>
			<path class="st3" d="M100,48.2c-1.5,0-2.7-1.2-2.7-2.7V23c0-1.5,1.2-2.7,2.7-2.7c1.5,0,2.7,1.2,2.7,2.7v22.5
				C102.7,47,101.5,48.2,100,48.2z"/>
		</g>
		<g>
			<path class="st3" d="M100,179.4c-1.5,0-2.7-1.2-2.7-2.7v-22.5c0-1.5,1.2-2.7,2.7-2.7c1.5,0,2.7,1.2,2.7,2.7v22.5
				C102.8,178.2,101.5,179.4,100,179.4z"/>
		</g>
		<g>
			<path class="st3" d="M61.5,64.2c-0.7,0-1.4-0.3-1.9-0.8L43.7,47.4c-1.1-1.1-1.1-2.8,0-3.9c1.1-1.1,2.8-1.1,3.9,0l15.9,15.9
				c1.1,1.1,1.1,2.8,0,3.9C62.9,63.9,62.2,64.2,61.5,64.2z"/>
		</g>
		<g>
			<path class="st3" d="M45.7,102.6H23.1c-1.5,0-2.7-1.2-2.7-2.7s1.2-2.7,2.7-2.7h22.5c1.5,0,2.7,1.2,2.7,2.7S47.2,102.6,45.7,102.6
				z"/>
		</g>
		<g>
			<path class="st3" d="M176.9,102.5h-22.5c-1.5,0-2.7-1.2-2.7-2.7s1.2-2.7,2.7-2.7h22.5c1.5,0,2.7,1.2,2.7,2.7
				S178.4,102.5,176.9,102.5z"/>
		</g>
		<g>
			<path class="st3" d="M45.7,156.9c-0.7,0-1.4-0.3-1.9-0.8c-1.1-1.1-1.1-2.8,0-3.9l15.9-15.9c1.1-1.1,2.8-1.1,3.9,0
				c1.1,1.1,1.1,2.8,0,3.9l-15.9,15.9C47.1,156.7,46.4,156.9,45.7,156.9z"/>
		</g>
		<g>
			<path class="st3" d="M138.4,64.1c-0.7,0-1.4-0.3-1.9-0.8c-1.1-1.1-1.1-2.8,0-3.9l15.9-15.9c1.1-1.1,2.8-1.1,3.9,0
				c1.1,1.1,1.1,2.8,0,3.9l-15.9,15.9C139.8,63.8,139.1,64.1,138.4,64.1z"/>
		</g>
		<g>
			<path class="st3" d="M100,25.5c-5.6,0-10.2-4.6-10.2-10.2C89.8,9.6,94.4,5,100,5c5.6,0,10.2,4.6,10.2,10.2
				C110.3,20.9,105.7,25.5,100,25.5z M100,10.4c-2.6,0-4.8,2.1-4.8,4.8c0,2.6,2.1,4.8,4.8,4.8c2.6,0,4.8-2.1,4.8-4.8
				C104.8,12.6,102.7,10.4,100,10.4z"/>
		</g>
		<g>
			<path class="st3" d="M100,195c-5.6,0-10.2-4.6-10.2-10.2s4.6-10.2,10.2-10.2c5.6,0,10.2,4.6,10.2,10.2S105.6,195,100,195z
				 M100,180c-2.6,0-4.8,2.1-4.8,4.8s2.1,4.8,4.8,4.8s4.8-2.1,4.8-4.8S102.6,180,100,180z"/>
		</g>
		<g>
			<path class="st3" d="M40.1,50.3c-2.6,0-5.2-1-7.2-3c-1.9-1.9-3-4.5-3-7.2c0-2.7,1.1-5.3,3-7.2c1.9-1.9,4.5-3,7.2-3
				c2.7,0,5.3,1.1,7.2,3c4,4,4,10.5,0,14.5C45.3,49.3,42.7,50.3,40.1,50.3z M40.1,35.2c-1.2,0-2.5,0.5-3.4,1.4
				c-1.9,1.9-1.9,4.9,0,6.8c1.9,1.9,4.9,1.9,6.8,0c1.9-1.9,1.9-4.9,0-6.8C42.5,35.7,41.3,35.2,40.1,35.2z"/>
		</g>
		<g>
			<path class="st3" d="M15.2,110.2C9.6,110.2,5,105.6,5,100c0-5.6,4.6-10.2,10.2-10.2c5.6,0,10.2,4.6,10.2,10.2
				C25.5,105.6,20.9,110.2,15.2,110.2z M15.2,95.2c-2.6,0-4.8,2.1-4.8,4.8s2.1,4.8,4.8,4.8c2.6,0,4.8-2.1,4.8-4.8
				S17.9,95.2,15.2,95.2z"/>
		</g>
		<g>
			<path class="st3" d="M184.8,110.3c-5.6,0-10.2-4.6-10.2-10.2c0-5.6,4.6-10.2,10.2-10.2S195,94.4,195,100
				C195,105.7,190.4,110.3,184.8,110.3z M184.8,95.3c-2.6,0-4.8,2.1-4.8,4.8c0,2.6,2.1,4.8,4.8,4.8c2.6,0,4.8-2.1,4.8-4.8
				C189.6,97.4,187.4,95.3,184.8,95.3z"/>
		</g>
		<g>
			<path class="st3" d="M40,170.1c-2.7,0-5.3-1.1-7.2-3c-1.9-1.9-3-4.5-3-7.2c0-2.7,1.1-5.3,3-7.2l0,0v0c1.9-1.9,4.5-3,7.2-3
				c2.7,0,5.3,1.1,7.2,3c4,4,4,10.5,0,14.5C45.3,169.1,42.8,170.1,40,170.1z M40,155.1c-1.2,0-2.5,0.5-3.4,1.4v0
				c-0.9,0.9-1.4,2.1-1.4,3.4c0,1.3,0.5,2.5,1.4,3.4c1.9,1.9,4.9,1.9,6.8,0c1.9-1.9,1.9-4.9,0-6.8C42.5,155.6,41.3,155.1,40,155.1z
				 M34.7,154.6L34.7,154.6L34.7,154.6z"/>
		</g>
		<g>
			<path class="st3" d="M160,50.3c-2.7,0-5.3-1.1-7.2-3c-1.9-1.9-3-4.5-3-7.2s1.1-5.3,3-7.2l0,0l0,0v0c1.9-1.9,4.5-3,7.2-3
				c2.7,0,5.3,1.1,7.2,3c1.9,1.9,3,4.5,3,7.2c0,2.7-1.1,5.3-3,7.2C165.3,49.3,162.7,50.3,160,50.3z M160,35.3
				c-1.3,0-2.5,0.5-3.4,1.4v0c-0.9,0.9-1.4,2.1-1.4,3.4c0,1.3,0.5,2.5,1.4,3.4c1.8,1.8,5,1.8,6.8,0c0.9-0.9,1.4-2.1,1.4-3.4
				c0-1.3-0.5-2.5-1.4-3.4C162.5,35.8,161.3,35.3,160,35.3z M154.7,34.8L154.7,34.8L154.7,34.8z"/>
		</g>
	</g>
</g>
<g id="圖層_3">
	<g>
		<g>
			<path class="st4" d="M100.9,133.4c-8.4,0-16.7-3.2-23.1-9.5c-6.2-6.2-9.6-14.4-9.6-23.1c0-8.7,3.4-16.9,9.6-23.1
				c12.7-12.7,33.4-12.7,46.2,0c12.7,12.7,12.7,33.4,0,46.2C117.7,130.2,109.3,133.4,100.9,133.4z M100.9,73.6
				c-7.2,0-14.1,2.8-19.2,7.9c-5.1,5.1-8,11.9-8,19.2c0,7.2,2.8,14.1,8,19.2c5.1,5.1,11.9,7.9,19.2,7.9c7.2,0,14.1-2.8,19.2-7.9
				c5.1-5.1,7.9-11.9,7.9-19.2c0-7.3-2.8-14.1-7.9-19.2C115,76.4,108.2,73.6,100.9,73.6z"/>
		</g>
		<g>
			<path class="st4" d="M104.1,174c-0.2,0-0.5,0-0.7-0.1l-42.8-11.5c-1.5-0.4-2.3-1.9-2-3.3c1.2-4.9-0.2-10-3.7-13.5
				c-3.6-3.6-8.6-4.9-13.5-3.7c-1.5,0.4-2.9-0.5-3.3-2L26.6,97.4c-0.4-1.5,0.5-3,1.9-3.4c2.4-0.7,4.5-1.9,6.2-3.6
				c2.7-2.7,4.2-6.3,4.2-10c0-3.8-1.5-7.4-4.2-10c0,0-0.2-0.2-0.2-0.2c-0.5-0.5-0.8-1.2-0.9-2c0-0.7,0.3-1.5,0.8-2l31.5-31.5
				c0.5-0.5,1.2-0.8,2-0.8c0.7,0,1.4,0.3,2,0.9c0,0,0.2,0.2,0.2,0.2c2.7,2.7,6.2,4.2,10,4.2c3.8,0,7.4-1.5,10-4.2
				c1.8-1.8,3.1-4.1,3.7-6.6c0.2-0.7,0.6-1.3,1.3-1.7c0.6-0.4,1.4-0.5,2.1-0.3l42.8,11.5c0.8,0.2,1.4,0.7,1.7,1.4
				c0.4,0.7,0.4,1.5,0.1,2.2c-2,5.2-0.7,11.1,3.2,15l0,0c3.8,3.8,9.3,5.1,14.3,3.5c0.7-0.2,1.5-0.2,2.2,0.2c0.7,0.4,1.1,1,1.3,1.7
				l11.1,41.4c0.2,0.7,0.1,1.5-0.3,2.1c-0.4,0.6-1,1.1-1.8,1.3c-2.7,0.6-5.1,1.9-7,3.8c-5.5,5.5-5.5,14.6,0,20.1l0.3,0.2
				c0.5,0.5,0.9,1.2,0.9,2c0,0.7-0.3,1.5-0.8,2l-30.8,30.8c-0.5,0.5-1.2,0.8-2,0.8c-0.7,0-1.4-0.3-2-0.8l-0.2-0.3
				c-2.7-2.7-6.3-4.2-10.1-4.2c-3.8,0-7.4,1.5-10,4.2c-1.8,1.8-3.1,4.2-3.8,6.7c-0.2,0.7-0.6,1.3-1.3,1.7
				C105,173.9,104.6,174,104.1,174z M64.4,157.8l37.8,10.1c1-2.5,2.5-4.8,4.4-6.6c3.7-3.7,8.7-5.8,13.9-5.8c4.5,0,8.8,1.5,12.2,4.2
				l27-27c-6.1-7.7-5.6-19,1.5-26.2c2-2,4.4-3.5,7-4.5l-9.7-36.3c-6.2,1-12.6-1-17.1-5.5l0,0l0,0c-4.7-4.7-6.7-11.5-5.3-18
				L98.5,32.2c-1,2.5-2.5,4.7-4.3,6.5c-3.7,3.7-8.7,5.8-13.9,5.8c-4.5,0-8.7-1.5-12.1-4.2L40.3,68.2c2.7,3.5,4.2,7.7,4.2,12.1
				c0,5.3-2.1,10.2-5.8,13.9c-1.7,1.7-3.8,3.1-6.1,4.1L42.7,136c5.9-0.6,11.9,1.4,16.1,5.6C63.1,146,65.1,151.8,64.4,157.8z"/>
		</g>
		<g>
			<path class="st4" d="M24.7,100c-5.2,0-10.2-2-14-5.8C7.1,90.5,5,85.6,5,80.3s2.1-10.2,5.8-13.9c7.5-7.5,19.9-7.7,27.6-0.3
				c0.1,0.1,0.2,0.2,0.3,0.3c3.7,3.7,5.8,8.7,5.8,13.9s-2.1,10.2-5.8,13.9c-2.4,2.4-5.4,4.1-8.6,5C28.3,99.8,26.5,100,24.7,100z
				 M24.7,66.1c-3.6,0-7.3,1.4-10,4.1c-2.7,2.7-4.2,6.3-4.2,10c0,3.8,1.5,7.4,4.2,10c3.6,3.6,8.9,5,13.9,3.6
				c2.4-0.7,4.5-1.9,6.2-3.6c2.7-2.7,4.2-6.3,4.2-10c0-3.8-1.5-7.4-4.2-10c0,0-0.2-0.2-0.2-0.2c0,0,0,0,0,0
				C31.8,67.4,28.3,66.1,24.7,66.1z"/>
		</g>
		<g>
			<path class="st4" d="M24.5,89.7c-2.5,0-5-1-6.8-2.8c-1.8-1.8-2.8-4.3-2.8-6.8c0-2.6,1-5,2.8-6.8c3.7-3.7,9.7-3.8,13.5-0.2
				c0,0,0.1,0.1,0.2,0.1c1.9,1.9,2.9,4.3,2.9,6.9c0,2.6-1,5-2.8,6.8c-1.2,1.2-2.6,2-4.2,2.5C26.2,89.6,25.4,89.7,24.5,89.7z
				 M24.5,75.9c-1.1,0-2.1,0.4-2.9,1.2c-0.8,0.8-1.2,1.8-1.2,2.9c0,1.1,0.4,2.2,1.2,2.9c1.1,1.1,2.6,1.5,4.1,1.1
				c0.7-0.2,1.3-0.6,1.8-1.1c0.8-0.8,1.2-1.8,1.2-2.9c0-1.1-0.4-2.2-1.2-2.9c0,0-0.1-0.1-0.1-0.1C26.6,76.3,25.5,75.9,24.5,75.9z"/>
		</g>
		<g>
			<path class="st4" d="M44.8,165.3c-2.5,0-5-1-6.8-2.8c-3.8-3.8-3.8-9.9,0-13.7c3.7-3.7,9.7-3.8,13.5-0.2c0,0,0.1,0.1,0.2,0.1
				c3.8,3.8,3.8,9.9,0,13.7c-1.2,1.2-2.6,2-4.2,2.5C46.6,165.2,45.7,165.3,44.8,165.3z M44.8,151.5c-1.1,0-2.1,0.4-2.9,1.2
				c-1.6,1.6-1.6,4.3,0,5.9c1.1,1.1,2.6,1.5,4.1,1.1c0.7-0.2,1.3-0.6,1.8-1.1c1.6-1.6,1.6-4.3,0-5.9c0,0-0.1-0.1-0.1-0.1
				C46.9,151.9,45.9,151.5,44.8,151.5z"/>
		</g>
		<g>
			<path class="st4" d="M120.5,184.9c-2.5,0-5-1-6.8-2.8c-3.8-3.8-3.8-9.9,0-13.7c3.7-3.7,9.7-3.8,13.5-0.2c0,0,0.1,0.1,0.1,0.1
				c3.8,3.8,3.8,10,0.1,13.7c-1.2,1.2-2.6,2-4.2,2.5C122.3,184.7,121.4,184.9,120.5,184.9z M120.5,171c-1.1,0-2.1,0.4-2.9,1.2
				c-1.6,1.6-1.6,4.3,0,5.9c1.1,1.1,2.6,1.5,4.1,1.1c0.7-0.2,1.3-0.6,1.8-1.1c1.6-1.6,1.6-4.3,0-5.9c0,0-0.1,0-0.1-0.1
				C122.6,171.4,121.6,171,120.5,171z"/>
		</g>
		<g>
			<path class="st4" d="M175.3,130.1c-2.5,0-5-1-6.8-2.8c-3.8-3.8-3.8-9.9,0-13.7c3.7-3.7,9.8-3.8,13.5-0.1c0,0,0.1,0.1,0.1,0.1
				c3.8,3.8,3.8,9.9,0,13.7c-1.2,1.2-2.6,2-4.2,2.5C177,130,176.1,130.1,175.3,130.1z M175.3,116.3c-1.1,0-2.1,0.4-2.9,1.2
				c-1.6,1.6-1.6,4.3,0,5.9c1.1,1.1,2.6,1.5,4.1,1.1c0.7-0.2,1.3-0.6,1.8-1.1c1.6-1.6,1.6-4.3,0-5.9l1.8-2l-1.9,2
				C177.4,116.7,176.3,116.3,175.3,116.3z"/>
		</g>
		<g>
			<path class="st4" d="M155.4,56c-2.5,0-5-1-6.8-2.8c-1.8-1.8-2.8-4.3-2.8-6.8c0-2.6,1-5,2.8-6.8c3.7-3.7,9.7-3.8,13.5-0.2
				c0.1,0.1,0.2,0.1,0.2,0.2c1.8,1.8,2.8,4.2,2.8,6.8c0,2.6-1,5-2.8,6.8c-1.2,1.2-2.6,2-4.2,2.5C157.2,55.8,156.3,56,155.4,56z
				 M155.4,42.1c-1.1,0-2.1,0.4-2.9,1.2c-0.8,0.8-1.2,1.8-1.2,2.9c0,1.1,0.4,2.2,1.2,2.9c1.1,1.1,2.6,1.5,4.1,1.1
				c0.7-0.2,1.3-0.6,1.8-1.1c0.8-0.8,1.2-1.8,1.2-2.9c0-1.1-0.4-2.2-1.2-2.9c0,0-0.1-0.1-0.1-0.1C157.5,42.5,156.4,42.1,155.4,42.1z
				"/>
		</g>
		<g>
			<path class="st4" d="M80.6,34.1c-2.5,0-5-1-6.8-2.8C72,29.4,71,27,71,24.4c0-2.6,1-5,2.8-6.8c3.7-3.7,9.7-3.8,13.5-0.2
				c0,0,0.1,0.1,0.2,0.1c3.8,3.8,3.8,9.9,0,13.7c-1.2,1.2-2.6,2-4.2,2.5C82.4,34,81.5,34.1,80.6,34.1z M80.6,20.2
				c-1.1,0-2.1,0.4-2.9,1.2c-0.8,0.8-1.2,1.8-1.2,2.9c0,1.1,0.4,2.2,1.2,2.9c1.1,1.1,2.6,1.5,4.1,1.1c0.7-0.2,1.3-0.6,1.8-1.1
				c1.6-1.6,1.6-4.3,0-5.9c0,0-0.1-0.1-0.1-0.1C82.7,20.6,81.7,20.2,80.6,20.2z"/>
		</g>
		<g>
			<path class="st4" d="M80.2,44.5c-5.1,0-10.1-1.9-13.9-5.8c-0.1-0.1-0.2-0.2-0.3-0.3c-7.4-7.7-7.3-20.1,0.3-27.6l0,0
				c7.7-7.7,20.2-7.7,27.9,0c4.9,4.9,6.9,11.9,5.2,18.7c-0.9,3.5-2.7,6.7-5.2,9.2C90.3,42.6,85.3,44.5,80.2,44.5z M70.2,14.7
				c-5.4,5.4-5.5,14.3-0.2,19.9c0,0,0.2,0.2,0.2,0.2c5.5,5.5,14.5,5.5,20.1,0c1.8-1.8,3.1-4.1,3.7-6.6c1.2-4.9-0.2-9.9-3.7-13.4
				C84.7,9.2,75.7,9.2,70.2,14.7L70.2,14.7z"/>
		</g>
		<g>
			<path class="st4" d="M155.4,66c-5.1,0-10.2-2-13.9-5.8c-5.4-5.4-7.2-13.6-4.5-20.9c1-2.7,2.5-5,4.5-7l0,0v0
				c3.7-3.7,8.7-5.8,13.9-5.8c5.3,0,10.2,2.1,13.9,5.8c7.7,7.7,7.7,20.2,0,27.9c-2.3,2.3-4.9,3.9-8,4.8
				C159.4,65.7,157.4,66,155.4,66z M155.4,32.1c-3.8,0-7.4,1.5-10,4.2v0c-1.4,1.4-2.5,3.1-3.2,5.1c-2,5.2-0.7,11.1,3.2,15
				c3.8,3.8,9.3,5.1,14.3,3.5c2.2-0.7,4.1-1.9,5.8-3.5c5.5-5.5,5.5-14.6,0-20.1C162.8,33.6,159.2,32.1,155.4,32.1z M143.4,34.3
				L143.4,34.3L143.4,34.3z"/>
		</g>
		<g>
			<path class="st4" d="M44.8,175.3c-5.1,0-10.1-1.9-13.9-5.8c-3.7-3.7-5.8-8.7-5.8-13.9c0-5.3,2.1-10.2,5.8-13.9
				c2.5-2.5,5.7-4.3,9.1-5.2l0,0c6.7-1.7,13.9,0.3,18.8,5.2c4.9,4.9,6.9,12,5.2,18.8c-0.9,3.5-2.7,6.6-5.2,9.1
				C54.9,173.4,49.9,175.3,44.8,175.3z M44.9,141.4c-1.2,0-2.4,0.1-3.5,0.4l0,0c-2.5,0.6-4.8,1.9-6.6,3.7c-2.7,2.7-4.2,6.3-4.2,10
				c0,3.8,1.5,7.4,4.2,10c5.5,5.5,14.6,5.5,20.1,0c1.8-1.8,3.1-4.1,3.7-6.6c1.2-4.9-0.1-10-3.7-13.5
				C52.2,142.9,48.6,141.4,44.9,141.4z M40.7,139.2L40.7,139.2L40.7,139.2z"/>
		</g>
		<g>
			<path class="st4" d="M120.5,194.9c-5.3,0-10.2-2.1-13.9-5.8c-4.9-4.9-6.8-11.8-5.2-18.5c0.8-3.6,2.7-6.8,5.2-9.4l0,0
				c3.7-3.7,8.7-5.8,13.9-5.8c5.3,0,10.2,2.1,13.9,5.8c0.1,0.1,0.2,0.2,0.3,0.3c7.5,7.9,7.3,20-0.3,27.6
				C130.8,192.9,125.8,194.9,120.5,194.9z M110.5,165.1c-1.8,1.8-3.1,4.2-3.8,6.7c-1.2,4.9,0.2,9.9,3.8,13.4c2.7,2.7,6.3,4.2,10,4.2
				c3.8,0,7.4-1.5,10-4.2c5.5-5.5,5.6-14.2,0.2-19.8l-0.2-0.2c-2.7-2.7-6.3-4.2-10.1-4.2C116.7,161,113.2,162.5,110.5,165.1
				L110.5,165.1z"/>
		</g>
		<g>
			<path class="st4" d="M175.3,140.2c-4.9,0-9.7-1.8-13.6-5.5c-0.2-0.1-0.3-0.2-0.4-0.3c-7.7-7.7-7.7-20.2,0-27.9
				c2.7-2.7,6-4.5,9.7-5.3c6.6-1.4,13.4,0.5,18.2,5.3c3.7,3.7,5.8,8.7,5.8,13.9c0,5.3-2.1,10.2-5.8,13.9
				C185.4,138.3,180.3,140.2,175.3,140.2z M175.3,106.3c-1,0-2.1,0.1-3.1,0.3l0,0c-2.7,0.6-5.1,1.9-7,3.8c-5.5,5.5-5.5,14.6,0,20.1
				l0.3,0.2c5.6,5.4,14.3,5.3,19.8-0.2c2.7-2.7,4.2-6.3,4.2-10c0-3.8-1.5-7.4-4.2-10C182.6,107.7,179,106.3,175.3,106.3z
				 M171.6,103.9L171.6,103.9L171.6,103.9z"/>
		</g>
		<g>
			<path class="st4" d="M159,118.5c-0.2,0-0.5,0-0.7-0.1l-28.9-7.7c-1.5-0.4-2.3-1.9-1.9-3.4c0.4-1.5,1.9-2.3,3.4-1.9l28.9,7.7
				c1.5,0.4,2.3,1.9,1.9,3.4C161.3,117.7,160.2,118.5,159,118.5z"/>
		</g>
		<g>
			<path class="st4" d="M72.2,95.3c-0.2,0-0.5,0-0.7-0.1l-31-8.3c-1.5-0.4-2.3-1.9-1.9-3.4c0.4-1.5,1.9-2.3,3.4-1.9l31,8.3
				c1.5,0.4,2.3,1.9,1.9,3.4C74.5,94.4,73.4,95.3,72.2,95.3z"/>
		</g>
		<g>
			<path class="st4" d="M116.1,161.6c-1.2,0-2.3-0.8-2.7-2l-7.8-29.1c-0.4-1.5,0.5-3,1.9-3.4c1.5-0.4,3,0.5,3.4,1.9l7.8,29.1
				c0.4,1.5-0.5,3-1.9,3.4C116.6,161.5,116.4,161.6,116.1,161.6z"/>
		</g>
		<g>
			<path class="st4" d="M92.9,74.7c-1.2,0-2.3-0.8-2.7-2l-8-29.8c-0.4-1.5,0.5-3,1.9-3.4c1.5-0.4,3,0.5,3.4,1.9l8,29.8
				c0.4,1.5-0.5,3-1.9,3.4C93.4,74.7,93.1,74.7,92.9,74.7z"/>
		</g>
		<g>
			<path class="st4" d="M121.5,81.8c-0.7,0-1.4-0.3-1.9-0.8c-1.1-1.1-1.1-2.8,0-3.9l21.4-21.4c1.1-1.1,2.8-1.1,3.9,0
				c1.1,1.1,1.1,2.8,0,3.9L123.4,81C122.9,81.5,122.2,81.8,121.5,81.8z"/>
		</g>
		<g>
			<path class="st4" d="M56.8,146.4c-0.7,0-1.4-0.3-1.9-0.8c-1.1-1.1-1.1-2.8,0-3.9l22.3-22.3c1.1-1.1,2.8-1.1,3.9,0
				c1.1,1.1,1.1,2.8,0,3.9l-22.3,22.3C58.2,146.1,57.5,146.4,56.8,146.4z"/>
		</g>
		<g>
			<path class="st2" d="M98.8,116.3c0,0-0.1,0-0.1,0c-1.1-0.1-2-0.7-2.4-1.7l-6.5-15.4c-0.6-1.4,0.1-3,1.5-3.6
				c1.4-0.6,3,0.1,3.6,1.5l4.2,10.1l10-18.5c0.7-1.3,2.4-1.8,3.7-1.1c1.3,0.7,1.8,2.4,1.1,3.7l-12.7,23.6
				C100.7,115.8,99.8,116.3,98.8,116.3z"/>
		</g>
	</g>
</g>
</svg>
