<?xml version="1.0" encoding="utf-8"?>
<!-- Generator: Adobe Illustrator 24.2.1, SVG Export Plug-In . SVG Version: 6.00 Build 0)  -->
<svg version="1.1" id="圖層_1" xmlns="http://www.w3.org/2000/svg" xmlns:xlink="http://www.w3.org/1999/xlink" x="0px" y="0px"
	 viewBox="0 0 100 100" style="enable-background:new 0 0 100 100;" xml:space="preserve">
<style type="text/css">
	.st0{fill-rule:evenodd;clip-rule:evenodd;fill:#F4CA3D;}
	.st1{fill:#FFFFFF;}
</style>
<path class="st0" d="M50,0c27.6,0,50,22.4,50,50s-22.4,50-50,50S0,77.6,0,50S22.4,0,50,0z"/>
<path class="st1" d="M80,64.2c0-0.3-0.6-0.6-0.9-0.3l-4.6,1.7V25.1c0-2.8-2.3-5.1-5.1-5.1H30.3c-2.9,0-5.1,2.3-5.1,5.1v40.2
	l-4.6-1.7c0,0,0,0-0.3,0c-0.3,0-0.3,0.3-0.3,0.6v4.5c0,0.3,0.3,0.6,0.3,0.6l28.9,10.5c0.6,0.3,1.1,0.3,1.7,0l28.9-10.5
	c0.3,0,0.3-0.3,0.3-0.6V64.2L80,64.2z M50,74.4l-19.4-7.1V25.7h38.6v41.9L50,74.4z M61.1,35h-4c-0.3,0-0.6,0-0.6,0.3l-6.3,12.7H50
	l-6.3-12.7c0-0.3-0.3-0.3-0.6-0.3h-4.3h-0.3c-0.3,0.3-0.6,0.6-0.3,0.8L46,50.3h-4.3c-0.3,0-0.6,0.3-0.6,0.6v2c0,0.3,0.3,0.6,0.6,0.6
	h5.7v2.8h-5.7c-0.3,0-0.6,0.3-0.6,0.6v2c0,0.3,0.3,0.6,0.6,0.6h5.7v4.8c0,0.3,0.3,0.6,0.6,0.6h3.7c0.3,0,0.6-0.3,0.6-0.6v-4.8H58
	c0.3,0,0.6-0.3,0.6-0.6v-1.7c0-0.3-0.3-0.6-0.6-0.6h-5.7v-2.8H58c0.3,0,0.6-0.3,0.6-0.6v-2c0-0.3-0.3-0.6-0.6-0.6h-4.3l7.7-14.4
	v-0.3C61.7,35.3,61.4,35,61.1,35z"/>
</svg>
