<?xml version="1.0" encoding="utf-8"?>
<!-- Generator: Adobe Illustrator 24.2.1, SVG Export Plug-In . SVG Version: 6.00 Build 0)  -->
<svg version="1.1" id="圖層_1" xmlns="http://www.w3.org/2000/svg" xmlns:xlink="http://www.w3.org/1999/xlink" x="0px" y="0px"
	 viewBox="0 0 70 70" style="enable-background:new 0 0 70 70;" xml:space="preserve">
<style type="text/css">
	.st0{fill:#B2B3B2;}
</style>
<g>
	<g>
		<path class="st0" d="M49,21H21c-1.1,0-2,0.9-2,2v24c0,1.1,0.9,2,2,2h28c1.1,0,2-0.9,2-2V23C51,21.9,50.1,21,49,21z M49,47H21V23
			h28V47z M42,31c1.7,0,3-1.3,3-3s-1.3-3-3-3s-3,1.3-3,3S40.3,31,42,31z M47,33l-7,6h-2l-8-10l-7,12v4h24V33z"/>
	</g>
</g>
</svg>
