<?xml version="1.0" encoding="utf-8"?>
<!-- Generator: Adobe Illustrator 26.1.0, SVG Export Plug-In . SVG Version: 6.00 Build 0)  -->
<svg version="1.1" id="圖層_1" xmlns="http://www.w3.org/2000/svg" xmlns:xlink="http://www.w3.org/1999/xlink" x="0px" y="0px"
	 viewBox="0 0 50 50" style="enable-background:new 0 0 50 50;" xml:space="preserve">
<style type="text/css">
	.st0{fill:#FFFFFF;}
</style>
<path class="st0" d="M40.7,5H9.3C6.9,5,5,6.9,5,9.3v31.4C5,43.1,6.9,45,9.3,45h12.3V31.4h-5.6V25h5.6v-4.9c0-5.5,3.3-8.6,8.4-8.6
	c2.4,0,5,0.4,5,0.4v5.4h-2.8c-2.8,0-3.6,1.7-3.6,3.5V25h6.1l-1,6.4h-5.2V45h12.3c2.4,0,4.3-1.9,4.3-4.3V9.3C45,6.9,43.1,5,40.7,5z"
	/>
</svg>
