<?xml version="1.0" encoding="utf-8"?>
<!-- Generator: Adobe Illustrator 25.0.0, SVG Export Plug-In . SVG Version: 6.00 Build 0)  -->
<svg version="1.1" id="圖層_1" xmlns="http://www.w3.org/2000/svg" xmlns:xlink="http://www.w3.org/1999/xlink" x="0px" y="0px"
	 viewBox="0 0 100 100" style="enable-background:new 0 0 100 100;" xml:space="preserve">
<style type="text/css">
	.st0{fill-rule:evenodd;clip-rule:evenodd;fill:#F4CA3D;}
	.st1{display:none;fill:#FFFFFF;}
	.st2{fill:#FFFFFF;}
	.st3{fill-rule:evenodd;clip-rule:evenodd;fill:#FFFFFF;}
</style>
<path class="st0" d="M50,0c27.6,0,50,22.4,50,50s-22.4,50-50,50S0,77.6,0,50S22.4,0,50,0z"/>
<path class="st1" d="M77.7,25.4H65.1v-4.9c0-0.6-0.3-0.6-0.6-0.6h-4.3c-0.3,0-0.6,0-0.6,0.6v4.9H40.3v-4.9c0-0.6-0.3-0.6-0.6-0.6
	h-4.3c-0.3,0-0.6,0-0.6,0.6v4.9H22.3c-1.4,0-2.3,0.9-2.3,2.3v50c0,1.4,0.9,2.3,2.3,2.3h55.4c1.4,0,2.3-1.1,2.3-2.3v-50
	C80,26.3,79.1,25.4,77.7,25.4z M74.6,74.6H25.4V30.9h9.7v3.4c0,0.3,0.3,0.6,0.6,0.6H40c0.3,0,0.6-0.3,0.6-0.6v-3.4H60v3.4
	c0,0.3,0.3,0.6,0.6,0.6h4.3c0.3,0,0.6-0.3,0.6-0.6v-3.4h9.7v43.7H74.6z M59.7,42.6h-3.4c-0.3,0-0.6,0-0.6,0.3l-5.4,10.9H50
	l-5.7-10.9c0-0.3-0.3-0.3-0.6-0.3h-3.4H40c-0.3,0.3-0.3,0.6,0,0.9l6.9,12.3h-4c-0.3,0-0.6,0.3-0.6,0.6V58c0,0.3,0.3,0.6,0.6,0.6h4.9
	v2.6h-4.9c-0.3,0-0.6,0.3-0.6,0.6v1.7c0,0.3,0.3,0.6,0.6,0.6h4.9v4c0,0.3,0.3,0.6,0.6,0.6h3.1c0.3,0,0.6-0.3,0.6-0.6v-4h5.1
	c0.3,0,0.6-0.3,0.6-0.6v-1.7c0-0.3-0.3-0.6-0.6-0.6h-4.9v-2.6h4.9c0.3,0,0.6-0.3,0.6-0.6v-1.7c0-0.3-0.3-0.6-0.6-0.6h-3.7l6.9-12.3
	v-0.3C60.3,42.9,60,42.6,59.7,42.6L59.7,42.6z"/>
<path class="st2" d="M77.7,25.4H65.1v-4.9c0-0.6-0.3-0.6-0.6-0.6h-4.3c-0.3,0-0.6,0-0.6,0.6v4.9H40.3v-4.9c0-0.6-0.3-0.6-0.6-0.6
	h-4.3c-0.3,0-0.6,0-0.6,0.6v4.9H22.3c-1.4,0-2.3,0.9-2.3,2.3v50c0,1.4,0.9,2.3,2.3,2.3h55.4c1.4,0,2.3-1.1,2.3-2.3v-50
	C80,26.3,79.1,25.4,77.7,25.4z M74.6,74.6H25.4V30.9h9.7v3.4c0,0.3,0.3,0.6,0.6,0.6H40c0.3,0,0.6-0.3,0.6-0.6v-3.4H60v3.4
	c0,0.3,0.3,0.6,0.6,0.6h4.3c0.3,0,0.6-0.3,0.6-0.6v-3.4h9.7v43.7H74.6z"/>
<path id="Fill-6" class="st3" d="M51.6,64c0-0.7,0-1.2,0-1.9c0-0.5,0-0.7,0.5-1c1.7-0.7,2.7-1.9,2.9-3.8c0.2-1.9-0.5-3.6-2-4.5
	c-0.7-0.5-1.5-0.7-2.4-1.2c-0.5-0.2-1-0.5-1.2-0.7c-0.2-0.2-0.5-0.5-0.2-1c0-0.2,0.5-0.5,0.7-0.5s0.7-0.2,1,0c1,0.2,2,0.7,2.9,1
	c0.5-1,0.7-2.1,1.2-3.3c-1-0.5-2-1-3.2-1.4V44h-3.4v2.4c-0.2,0-0.5,0.2-0.7,0.2c-3.2,1.4-3.4,5.5-0.7,7.6c0.5,0.5,1.2,0.7,1.7,1
	c0.5,0.2,1.2,0.5,1.7,1c0.5,0.2,0.7,0.7,0.5,1.2c-0.2,0.5-0.5,0.7-1,1c-1,0.2-2-0.2-2.9-0.7c-0.5-0.2-0.7-0.5-1.2-0.7
	c-0.5,1-0.7,2.1-1,3.1c-0.2,0.2,0,0.5,0.2,0.7c1,0.5,1.7,1,2.7,1.2c0.2,0,0.5,0.2,0.5,0.5c0,0.7,0,1.2,0,1.9L51.6,64L51.6,64z
	 M65,54c0,8.3-6.6,15-15.1,15C41.6,69,35,62.3,35,54s6.8-15,15.1-15C58.4,39,65,45.7,65,54L65,54z"/>
</svg>
