<?xml version="1.0" encoding="utf-8"?>
<!-- Generator: Adobe Illustrator 24.2.1, SVG Export Plug-In . SVG Version: 6.00 Build 0)  -->
<svg version="1.1" id="圖層_1" xmlns="http://www.w3.org/2000/svg" xmlns:xlink="http://www.w3.org/1999/xlink" x="0px" y="0px"
	 viewBox="0 0 100 100" style="enable-background:new 0 0 100 100;" xml:space="preserve">
<style type="text/css">
	.st0{fill-rule:evenodd;clip-rule:evenodd;fill:#F4CA3D;}
	.st1{fill:#FFFFFF;}
</style>
<path class="st0" d="M50,0c27.6,0,50,22.4,50,50s-22.4,50-50,50S0,77.6,0,50S22.4,0,50,0z"/>
<path class="st1" d="M77.7,25.4H65.1v-4.9c0-0.6-0.3-0.6-0.6-0.6h-4.3c-0.3,0-0.6,0-0.6,0.6v4.9H40.3v-4.9c0-0.6-0.3-0.6-0.6-0.6
	h-4.3c-0.3,0-0.6,0-0.6,0.6v4.9H22.3c-1.4,0-2.3,0.9-2.3,2.3v50c0,1.4,0.9,2.3,2.3,2.3h55.4c1.4,0,2.3-1.1,2.3-2.3v-50
	C80,26.3,79.1,25.4,77.7,25.4z M74.6,74.6H25.4V30.9h9.7v3.4c0,0.3,0.3,0.6,0.6,0.6H40c0.3,0,0.6-0.3,0.6-0.6v-3.4H60v3.4
	c0,0.3,0.3,0.6,0.6,0.6h4.3c0.3,0,0.6-0.3,0.6-0.6v-3.4h9.7v43.7H74.6z M59.7,42.6h-3.4c-0.3,0-0.6,0-0.6,0.3l-5.4,10.9H50
	l-5.7-10.9c0-0.3-0.3-0.3-0.6-0.3h-3.4H40c-0.3,0.3-0.3,0.6,0,0.9l6.9,12.3h-4c-0.3,0-0.6,0.3-0.6,0.6V58c0,0.3,0.3,0.6,0.6,0.6h4.9
	v2.6h-4.9c-0.3,0-0.6,0.3-0.6,0.6v1.7c0,0.3,0.3,0.6,0.6,0.6h4.9v4c0,0.3,0.3,0.6,0.6,0.6h3.1c0.3,0,0.6-0.3,0.6-0.6v-4h5.1
	c0.3,0,0.6-0.3,0.6-0.6v-1.7c0-0.3-0.3-0.6-0.6-0.6h-4.9v-2.6h4.9c0.3,0,0.6-0.3,0.6-0.6v-1.7c0-0.3-0.3-0.6-0.6-0.6h-3.7l6.9-12.3
	v-0.3C60.3,42.9,60,42.6,59.7,42.6L59.7,42.6z"/>
</svg>
