<?xml version="1.0" encoding="utf-8"?>
<!-- Generator: Adobe Illustrator 24.2.1, SVG Export Plug-In . SVG Version: 6.00 Build 0)  -->
<svg version="1.1" id="圖層_1" xmlns="http://www.w3.org/2000/svg" xmlns:xlink="http://www.w3.org/1999/xlink" x="0px" y="0px"
	 viewBox="0 0 50 50" style="enable-background:new 0 0 50 50;" xml:space="preserve">
<style type="text/css">
	.st0{fill:#FFFFFF;}
</style>
<path d="M22.3,10.2c0,0-0.1-0.1-0.2-0.1c-0.1,0-0.1,0-0.2,0L22.3,10.2L22.3,10.2z"/>
<path d="M10.1,22.2c0,0.1,0,0.1,0,0.2c0,0,0.1,0.1,0.1,0.1L10.1,22.2L10.1,22.2z"/>
<path d="M39.8,27.8c0-0.1,0-0.1,0-0.2c0,0,0-0.1-0.1-0.1L39.8,27.8z"/>
<path d="M27.5,39.7c0,0,0.1,0.1,0.2,0.1c0.1,0,0.1,0,0.2,0L27.5,39.7z"/>
<path class="st0" d="M43.6,28.3c0,0.1,0,0.1,0,0.2l-0.1-0.4C43.5,28.2,43.5,28.3,43.6,28.3c0.2-1.1,0.3-2.3,0.3-3.4
	c0-2.5-0.5-5-1.5-7.4c-1-2.2-2.3-4.3-4-6c-1.7-1.7-3.8-3.1-6-4C30,6.5,27.6,6,25,6c-1.2,0-2.4,0.1-3.6,0.3h0c0.1,0,0.1,0.1,0.2,0.1
	l-0.4-0.1c0.1,0,0.1,0,0.2,0C19.8,5.5,18,5,16.2,5c-3,0-5.8,1.2-7.9,3.3S5,13.2,5,16.2c0,1.9,0.5,3.8,1.4,5.4c0-0.1,0-0.1,0-0.2
	l0.1,0.4c0-0.1-0.1-0.1-0.1-0.2c-0.2,1.1-0.3,2.2-0.3,3.3c0,2.5,0.5,5,1.5,7.4c1,2.2,2.3,4.3,4,6c1.7,1.7,3.8,3.1,6,4
	c2.3,1,4.8,1.5,7.4,1.5c1.1,0,2.2-0.1,3.3-0.3c-0.1,0-0.1-0.1-0.2-0.1l0.4,0.1c-0.1,0-0.1,0-0.2,0c1.7,0.9,3.6,1.5,5.5,1.5
	c3,0,5.8-1.2,7.9-3.3s3.3-4.9,3.3-7.9C45,31.9,44.5,30,43.6,28.3L43.6,28.3z M25.1,36.5c-6.7,0-9.7-3.3-9.7-5.8
	c0-1.3,0.9-2.2,2.2-2.2c2.9,0,2.1,4.1,7.5,4.1c2.7,0,4.3-1.5,4.3-3c0-0.9-0.5-1.9-2.3-2.4l-6-1.5c-4.8-1.2-5.7-3.8-5.7-6.2
	c0-5.1,4.8-7,9.3-7c4.1,0,9,2.3,9,5.3c0,1.3-1.1,2.1-2.4,2.1c-2.5,0-2-3.4-6.9-3.4c-2.5,0-3.8,1.1-3.8,2.7s1.9,2.1,3.6,2.5l4.4,1
	c4.8,1.1,6.1,3.9,6.1,6.6C34.6,33.4,31.5,36.5,25.1,36.5L25.1,36.5z"/>
</svg>
