<?xml version="1.0" encoding="utf-8"?>
<!-- Generator: Adobe Illustrator 24.2.1, SVG Export Plug-In . SVG Version: 6.00 Build 0)  -->
<svg version="1.1" xmlns="http://www.w3.org/2000/svg" xmlns:xlink="http://www.w3.org/1999/xlink" x="0px" y="0px"
	 viewBox="0 0 50 50" style="enable-background:new 0 0 50 50;" xml:space="preserve">
<style type="text/css">
	.st0{display:none;}
	.st1{display:inline;fill:#6D747D;}
	.st2{fill:#6D747D;}
</style>
<g id="圖層_1" class="st0">
	<path class="st1" d="M34.3,29c-2.7,2.7-2.7,5.3-5.3,5.3c-2.7,0-5.3-2.7-8-5.3c-2.7-2.7-5.3-5.3-5.3-8c0-2.7,2.7-2.7,5.3-5.3
		C23.7,13,15.7,5,13,5s-8,8-8,8c0,5.3,5.5,16.1,10.7,21.3C20.9,39.5,31.7,45,37,45c0,0,8-5.3,8-8C45,34.3,37,26.3,34.3,29z"/>
</g>
<g id="圖層_2">
	<path class="st2" d="M41.3,8.8H8.7c-2,0-3.7,1.6-3.7,3.8v25c0,2,1.7,3.8,3.7,3.8h32.5c2,0,3.8-1.7,3.8-3.8v-25
		C45,10.4,43.3,8.8,41.3,8.8z M20.6,25.3L10,33.5V13.9L20.6,25.3z M11.9,13.8h26.3L25,23.6L11.9,13.8z M21,25.8l4,4.2l4-4.2
		l8.3,10.5H12.7L21,25.8L21,25.8z M29.4,25.3L40,13.9v19.6L29.4,25.3z"/>
</g>
</svg>
