<?xml version="1.0" encoding="utf-8"?>
<!-- Generator: Adobe Illustrator 24.2.1, SVG Export Plug-In . SVG Version: 6.00 Build 0)  -->
<svg version="1.1" xmlns="http://www.w3.org/2000/svg" xmlns:xlink="http://www.w3.org/1999/xlink" x="0px" y="0px"
	 viewBox="0 0 50 33" style="enable-background:new 0 0 50 33;" xml:space="preserve">
<style type="text/css">
	.st0{display:none;}
	.st1{display:inline;}
	.st2{fill:#E72119;}
	.st3{fill:#1C2D6C;}
	.st4{fill:#FFFFFF;}
	.st5{fill:#D02F1A;}
	.st6{fill:#F3D52E;}
	.st7{fill:#A82332;}
	.st8{fill:#3A3A6A;}
	.st9{fill:#DD2726;}
	.st10{fill:#21224A;}
	.st11{fill:#CC2920;}
	.st12{fill:#EFEB44;}
	.st13{fill:#BE1A21;}
	.st14{fill:#1A274D;}
	.st15{fill:#F4C526;}
</style>
<g id="圖層_1" class="st0">
	<g class="st1">
		<g>
			<g id="XMLID_2108_">
				<rect id="XMLID_2127_" x="0" y="0" class="st2" width="50" height="33"/>
				<g id="XMLID_2109_">
					<rect id="XMLID_2126_" x="0" y="0" class="st3" width="25" height="16.5"/>
					<g id="XMLID_2110_">
						<g id="XMLID_2113_">
							<path id="XMLID_2125_" class="st4" d="M13.3,4.8c-0.2-0.1-0.5-0.1-0.8-0.1c-0.3,0-0.5,0-0.8,0.1l0.8-2.7L13.3,4.8z"/>
							<path id="XMLID_2124_" class="st4" d="M11.4,4.9c-0.5,0.2-0.9,0.4-1.3,0.8L9.4,2.9L11.4,4.9z"/>
							<path id="XMLID_2123_" class="st4" d="M9.9,5.9C9.5,6.3,9.3,6.7,9.1,7.2l-2-2L9.9,5.9z"/>
							<path id="XMLID_2122_" class="st4" d="M8.9,8.2C8.9,8.5,9,8.8,9,9L6.3,8.2L9,7.5C9,7.7,8.9,8,8.9,8.2z"/>
							<path id="XMLID_2121_" class="st4" d="M9.9,10.6l-2.8,0.7l2-2C9.3,9.8,9.5,10.2,9.9,10.6z"/>
							<path id="XMLID_2120_" class="st4" d="M11.4,11.6l-2,2l0.7-2.7C10.5,11.2,10.9,11.4,11.4,11.6z"/>
							<path id="XMLID_2119_" class="st4" d="M13.3,11.7l-0.8,2.7l-0.8-2.7c0.2,0.1,0.5,0.1,0.8,0.1C12.8,11.8,13,11.7,13.3,11.7z"
								/>
							<path id="XMLID_2118_" class="st4" d="M15.6,13.6l-2-2c0.5-0.2,1-0.4,1.3-0.8L15.6,13.6z"/>
							<path id="XMLID_2117_" class="st4" d="M17.9,11.3l-2.8-0.7c0.3-0.4,0.6-0.8,0.8-1.3L17.9,11.3z"/>
							<path id="XMLID_2116_" class="st4" d="M16,9C16,8.8,16,8.5,16,8.2C16,8,16,7.7,16,7.5l2.8,0.8L16,9z"/>
							<path id="XMLID_2115_" class="st4" d="M17.9,5.2l-2,2c-0.2-0.5-0.4-0.9-0.8-1.3L17.9,5.2z"/>
							<path id="XMLID_2114_" class="st4" d="M15.6,2.9l-0.7,2.7c-0.4-0.3-0.8-0.6-1.3-0.8L15.6,2.9z"/>
						</g>
						<path id="XMLID_2112_" class="st2" d="M15.6,8.2c0,1.7-1.4,3.1-3.2,3.1c-1.7,0-3.1-1.4-3.1-3.1c0-1.7,1.4-3.1,3.1-3.1
							C14.2,5.1,15.6,6.5,15.6,8.2z"/>
						<path id="XMLID_2111_" class="st4" d="M15.6,8.2c0,1.7-1.4,3.1-3.2,3.1c-1.7,0-3.1-1.4-3.1-3.1c0-1.7,1.4-3.1,3.1-3.1
							C14.2,5.1,15.6,6.5,15.6,8.2z"/>
					</g>
				</g>
			</g>
		</g>
	</g>
</g>
<g id="圖層_3" class="st0">
	<g class="st1">
		<g>
			<g id="XMLID_1566_">
				<rect id="XMLID_1574_" x="0" y="0" class="st5" width="50" height="33"/>
				<g id="XMLID_1567_">
					<polygon id="XMLID_1573_" class="st6" points="8.4,3.3 9.5,6.7 13.1,6.7 10.2,8.8 11.3,12.3 8.4,10.1 5.4,12.3 6.5,8.8 
						3.6,6.7 7.2,6.7 					"/>
					<polygon id="XMLID_1571_" class="st6" points="17.3,1.8 17.2,3 18.3,3.4 17.1,3.7 17,4.9 16.4,3.9 15.2,4.1 16,3.2 15.4,2.2 
						16.5,2.7 					"/>
					<polygon id="XMLID_1570_" class="st6" points="21.2,5.4 20.6,6.5 21.5,7.4 20.3,7.2 19.7,8.2 19.5,7 18.4,6.8 19.4,6.3 
						19.3,5.1 20.1,6 					"/>
					<polygon id="XMLID_1569_" class="st6" points="21.6,11 20.6,11.7 21,12.8 20,12.2 19.1,12.9 19.4,11.7 18.4,11.1 19.6,11 
						19.9,9.9 20.4,11 					"/>
					<polygon id="XMLID_1568_" class="st6" points="18.3,14.9 17.2,15.2 17.1,16.4 16.5,15.4 15.3,15.8 16,14.8 15.4,13.8 
						16.5,14.2 17.3,13.3 17.2,14.5 					"/>
				</g>
			</g>
		</g>
	</g>
</g>
<g id="圖層_4">
	<g>
		<g id="XMLID_4358_">
			<g id="XMLID_4590_">
				<rect id="XMLID_4604_" x="0" y="22.8" class="st4" width="50" height="2.5"/>
				<rect id="XMLID_4603_" x="0" y="20.3" class="st7" width="50" height="2.5"/>
				<rect id="XMLID_4602_" x="0" y="17.8" class="st4" width="50" height="2.5"/>
				<rect id="XMLID_4601_" x="0" y="25.4" class="st7" width="50" height="2.5"/>
				<rect id="XMLID_4600_" x="0" y="30.5" class="st7" width="50" height="2.5"/>
				<rect id="XMLID_4599_" x="0" y="27.9" class="st4" width="50" height="2.5"/>
				<rect id="XMLID_4598_" x="0" y="33" class="st4" width="50" height="0"/>
				<rect id="XMLID_4597_" x="0" y="2.5" class="st4" width="50" height="2.5"/>
				<rect id="XMLID_4596_" x="0" y="0" class="st7" width="50" height="2.5"/>
				<rect id="XMLID_4595_" x="0" y="5.1" class="st7" width="50" height="2.5"/>
				<rect id="XMLID_4594_" x="0" y="10.2" class="st7" width="50" height="2.5"/>
				<rect id="XMLID_4593_" x="0" y="7.6" class="st4" width="50" height="2.5"/>
				<rect id="XMLID_4592_" x="0" y="12.7" class="st4" width="50" height="2.5"/>
				<rect id="XMLID_4591_" x="0" y="15.2" class="st7" width="50" height="2.5"/>
			</g>
			<g id="XMLID_4366_">
				<rect id="XMLID_4586_" x="0" y="0" class="st8" width="25.3" height="17.8"/>
				<g id="XMLID_4367_">
					<g id="XMLID_4579_">
						<polygon id="XMLID_4585_" class="st4" points="2.1,0.8 2.3,1.6 3.1,1.6 2.5,2 2.7,2.7 2.1,2.3 1.5,2.7 1.7,2 1.1,1.6 1.9,1.6 
													"/>
						<polygon id="XMLID_4584_" class="st4" points="23.2,0.8 23.4,1.6 24.2,1.6 23.6,2 23.8,2.7 23.2,2.3 22.6,2.7 22.8,2 
							22.2,1.6 23,1.6 						"/>
						<polygon id="XMLID_4583_" class="st4" points="19,0.8 19.2,1.6 20,1.6 19.4,2 19.6,2.7 19,2.3 18.4,2.7 18.6,2 18,1.6 
							18.8,1.6 						"/>
						<polygon id="XMLID_4582_" class="st4" points="14.8,0.8 15,1.6 15.8,1.6 15.1,2 15.4,2.7 14.8,2.3 14.2,2.7 14.4,2 13.8,1.6 
							14.5,1.6 						"/>
						<polygon id="XMLID_4581_" class="st4" points="10.5,0.8 10.8,1.6 11.5,1.6 10.9,2 11.2,2.7 10.5,2.3 9.9,2.7 10.2,2 9.6,1.6 
							10.3,1.6 						"/>
						<polygon id="XMLID_4580_" class="st4" points="6.3,0.8 6.6,1.6 7.3,1.6 6.7,2 6.9,2.7 6.3,2.3 5.7,2.7 5.9,2 5.3,1.6 6.1,1.6 
													"/>
					</g>
					<g id="XMLID_4550_">
						<polygon id="XMLID_4569_" class="st4" points="2.1,4.4 2.3,5.1 3.1,5.1 2.5,5.6 2.7,6.3 2.1,5.8 1.5,6.3 1.7,5.6 1.1,5.1 
							1.9,5.1 						"/>
						<polygon id="XMLID_4564_" class="st4" points="23.2,4.4 23.4,5.1 24.2,5.1 23.6,5.6 23.8,6.3 23.2,5.8 22.6,6.3 22.8,5.6 
							22.2,5.1 23,5.1 						"/>
						<polygon id="XMLID_4563_" class="st4" points="19,4.4 19.2,5.1 20,5.1 19.4,5.6 19.6,6.3 19,5.8 18.4,6.3 18.6,5.6 18,5.1 
							18.8,5.1 						"/>
						<polygon id="XMLID_4558_" class="st4" points="14.8,4.4 15,5.1 15.8,5.1 15.1,5.6 15.4,6.3 14.8,5.8 14.2,6.3 14.4,5.6 
							13.8,5.1 14.5,5.1 						"/>
						<polygon id="XMLID_4556_" class="st4" points="10.5,4.4 10.8,5.1 11.5,5.1 10.9,5.6 11.2,6.3 10.5,5.8 9.9,6.3 10.2,5.6 
							9.6,5.1 10.3,5.1 						"/>
						<polygon id="XMLID_4551_" class="st4" points="6.3,4.4 6.6,5.1 7.3,5.1 6.7,5.6 6.9,6.3 6.3,5.8 5.7,6.3 5.9,5.6 5.3,5.1 
							6.1,5.1 						"/>
					</g>
					<g id="XMLID_4531_">
						<polygon id="XMLID_4542_" class="st4" points="2.1,8 2.3,8.7 3.1,8.7 2.5,9.1 2.7,9.8 2.1,9.4 1.5,9.8 1.7,9.1 1.1,8.7 
							1.9,8.7 						"/>
						<polygon id="XMLID_4541_" class="st4" points="23.2,8 23.4,8.7 24.2,8.7 23.6,9.1 23.8,9.8 23.2,9.4 22.6,9.8 22.8,9.1 
							22.2,8.7 23,8.7 						"/>
						<polygon id="XMLID_4535_" class="st4" points="19,8 19.2,8.7 20,8.7 19.4,9.1 19.6,9.8 19,9.4 18.4,9.8 18.6,9.1 18,8.7 
							18.8,8.7 						"/>
						<polygon id="XMLID_4534_" class="st4" points="14.8,8 15,8.7 15.8,8.7 15.1,9.1 15.4,9.8 14.8,9.4 14.2,9.8 14.4,9.1 
							13.8,8.7 14.5,8.7 						"/>
						<polygon id="XMLID_4533_" class="st4" points="10.5,8 10.8,8.7 11.5,8.7 10.9,9.1 11.2,9.8 10.5,9.4 9.9,9.8 10.2,9.1 
							9.6,8.7 10.3,8.7 						"/>
						<polygon id="XMLID_4532_" class="st4" points="6.3,8 6.6,8.7 7.3,8.7 6.7,9.1 6.9,9.8 6.3,9.4 5.7,9.8 5.9,9.1 5.3,8.7 
							6.1,8.7 						"/>
					</g>
					<g id="XMLID_4511_">
						<polygon id="XMLID_4526_" class="st4" points="2.1,11.5 2.3,12.2 3.1,12.2 2.5,12.7 2.7,13.4 2.1,12.9 1.5,13.4 1.7,12.7 
							1.1,12.2 1.9,12.2 						"/>
						<polygon id="XMLID_4525_" class="st4" points="23.2,11.5 23.4,12.2 24.2,12.2 23.6,12.7 23.8,13.4 23.2,12.9 22.6,13.4 
							22.8,12.7 22.2,12.2 23,12.2 						"/>
						<polygon id="XMLID_4524_" class="st4" points="19,11.5 19.2,12.2 20,12.2 19.4,12.7 19.6,13.4 19,12.9 18.4,13.4 18.6,12.7 
							18,12.2 18.8,12.2 						"/>
						<polygon id="XMLID_4523_" class="st4" points="14.8,11.5 15,12.2 15.8,12.2 15.1,12.7 15.4,13.4 14.8,12.9 14.2,13.4 
							14.4,12.7 13.8,12.2 14.5,12.2 						"/>
						<polygon id="XMLID_4518_" class="st4" points="10.5,11.5 10.8,12.2 11.5,12.2 10.9,12.7 11.2,13.4 10.5,12.9 9.9,13.4 
							10.2,12.7 9.6,12.2 10.3,12.2 						"/>
						<polygon id="XMLID_4517_" class="st4" points="6.3,11.5 6.6,12.2 7.3,12.2 6.7,12.7 6.9,13.4 6.3,12.9 5.7,13.4 5.9,12.7 
							5.3,12.2 6.1,12.2 						"/>
					</g>
					<g id="XMLID_4504_">
						<polygon id="XMLID_4510_" class="st4" points="2.1,15.1 2.3,15.8 3.1,15.8 2.5,16.2 2.7,16.9 2.1,16.5 1.5,16.9 1.7,16.2 
							1.1,15.8 1.9,15.8 						"/>
						<polygon id="XMLID_4509_" class="st4" points="23.2,15.1 23.4,15.8 24.2,15.8 23.6,16.2 23.8,16.9 23.2,16.5 22.6,16.9 
							22.8,16.2 22.2,15.8 23,15.8 						"/>
						<polygon id="XMLID_4508_" class="st4" points="19,15.1 19.2,15.8 20,15.8 19.4,16.2 19.6,16.9 19,16.5 18.4,16.9 18.6,16.2 
							18,15.8 18.8,15.8 						"/>
						<polygon id="XMLID_4507_" class="st4" points="14.8,15.1 15,15.8 15.8,15.8 15.1,16.2 15.4,16.9 14.8,16.5 14.2,16.9 
							14.4,16.2 13.8,15.8 14.5,15.8 						"/>
						<polygon id="XMLID_4506_" class="st4" points="10.5,15.1 10.8,15.8 11.5,15.8 10.9,16.2 11.2,16.9 10.5,16.5 9.9,16.9 
							10.2,16.2 9.6,15.8 10.3,15.8 						"/>
						<polygon id="XMLID_4505_" class="st4" points="6.3,15.1 6.6,15.8 7.3,15.8 6.7,16.2 6.9,16.9 6.3,16.5 5.7,16.9 5.9,16.2 
							5.3,15.8 6.1,15.8 						"/>
					</g>
					<g id="XMLID_4481_">
						<polygon id="XMLID_4503_" class="st4" points="21.1,13.3 21.3,14 22.1,14 21.5,14.4 21.7,15.2 21.1,14.7 20.5,15.2 20.7,14.4 
							20.1,14 20.9,14 						"/>
						<polygon id="XMLID_4502_" class="st4" points="16.9,13.3 17.1,14 17.9,14 17.3,14.4 17.5,15.2 16.9,14.7 16.3,15.2 16.5,14.4 
							15.9,14 16.6,14 						"/>
						<polygon id="XMLID_4501_" class="st4" points="12.7,13.3 12.9,14 13.6,14 13,14.4 13.3,15.2 12.7,14.7 12,15.2 12.3,14.4 
							11.7,14 12.4,14 						"/>
						<polygon id="XMLID_4500_" class="st4" points="8.4,13.3 8.7,14 9.4,14 8.8,14.4 9.1,15.2 8.4,14.7 7.8,15.2 8.1,14.4 7.4,14 
							8.2,14 						"/>
						<polygon id="XMLID_4486_" class="st4" points="4.2,13.3 4.5,14 5.2,14 4.6,14.4 4.8,15.2 4.2,14.7 3.6,15.2 3.8,14.4 3.2,14 
							4,14 						"/>
					</g>
					<g id="XMLID_4469_">
						<polygon id="XMLID_4480_" class="st4" points="21.1,9.7 21.3,10.4 22.1,10.4 21.5,10.9 21.7,11.6 21.1,11.2 20.5,11.6 
							20.7,10.9 20.1,10.4 20.9,10.4 						"/>
						<polygon id="XMLID_4473_" class="st4" points="16.9,9.7 17.1,10.4 17.9,10.4 17.3,10.9 17.5,11.6 16.9,11.2 16.3,11.6 
							16.5,10.9 15.9,10.4 16.6,10.4 						"/>
						<polygon id="XMLID_4472_" class="st4" points="12.7,9.7 12.9,10.4 13.6,10.4 13,10.9 13.3,11.6 12.7,11.2 12,11.6 12.3,10.9 
							11.7,10.4 12.4,10.4 						"/>
						<polygon id="XMLID_4471_" class="st4" points="8.4,9.7 8.7,10.4 9.4,10.4 8.8,10.9 9.1,11.6 8.4,11.2 7.8,11.6 8.1,10.9 
							7.4,10.4 8.2,10.4 						"/>
						<polygon id="XMLID_4470_" class="st4" points="4.2,9.7 4.5,10.4 5.2,10.4 4.6,10.9 4.8,11.6 4.2,11.2 3.6,11.6 3.8,10.9 
							3.2,10.4 4,10.4 						"/>
					</g>
					<g id="XMLID_4401_">
						<polygon id="XMLID_4468_" class="st4" points="21.1,6.2 21.3,6.9 22.1,6.9 21.5,7.3 21.7,8 21.1,7.6 20.5,8 20.7,7.3 
							20.1,6.9 20.9,6.9 						"/>
						<polygon id="XMLID_4467_" class="st4" points="16.9,6.2 17.1,6.9 17.9,6.9 17.3,7.3 17.5,8 16.9,7.6 16.3,8 16.5,7.3 
							15.9,6.9 16.6,6.9 						"/>
						<polygon id="XMLID_4428_" class="st4" points="12.7,6.2 12.9,6.9 13.6,6.9 13,7.3 13.3,8 12.7,7.6 12,8 12.3,7.3 11.7,6.9 
							12.4,6.9 						"/>
						<polygon id="XMLID_4423_" class="st4" points="8.4,6.2 8.7,6.9 9.4,6.9 8.8,7.3 9.1,8 8.4,7.6 7.8,8 8.1,7.3 7.4,6.9 8.2,6.9 
													"/>
						<polygon id="XMLID_4422_" class="st4" points="4.2,6.2 4.5,6.9 5.2,6.9 4.6,7.3 4.8,8 4.2,7.6 3.6,8 3.8,7.3 3.2,6.9 4,6.9 
													"/>
					</g>
					<g id="XMLID_4372_">
						<polygon id="XMLID_4396_" class="st4" points="21.1,2.6 21.3,3.3 22.1,3.3 21.5,3.8 21.7,4.5 21.1,4.1 20.5,4.5 20.7,3.8 
							20.1,3.3 20.9,3.3 						"/>
						<polygon id="XMLID_4395_" class="st4" points="16.9,2.6 17.1,3.3 17.9,3.3 17.3,3.8 17.5,4.5 16.9,4.1 16.3,4.5 16.5,3.8 
							15.9,3.3 16.6,3.3 						"/>
						<polygon id="XMLID_4390_" class="st4" points="12.7,2.6 12.9,3.3 13.6,3.3 13,3.8 13.3,4.5 12.7,4.1 12,4.5 12.3,3.8 
							11.7,3.3 12.4,3.3 						"/>
						<polygon id="XMLID_4389_" class="st4" points="8.4,2.6 8.7,3.3 9.4,3.3 8.8,3.8 9.1,4.5 8.4,4.1 7.8,4.5 8.1,3.8 7.4,3.3 
							8.2,3.3 						"/>
						<polygon id="XMLID_4381_" class="st4" points="4.2,2.6 4.5,3.3 5.2,3.3 4.6,3.8 4.8,4.5 4.2,4.1 3.6,4.5 3.8,3.8 3.2,3.3 
							4,3.3 						"/>
					</g>
				</g>
			</g>
		</g>
	</g>
</g>
<g id="圖層_5" class="st0">
	<g class="st1">
		<g>
			<g id="XMLID_1524_">
				<rect id="XMLID_1529_" x="0" y="0" class="st9" width="50" height="5.5"/>
				<rect id="XMLID_1528_" x="0" y="5.5" class="st4" width="50" height="5.5"/>
				<rect id="XMLID_1527_" x="0" y="22" class="st4" width="50" height="5.5"/>
				<rect id="XMLID_1526_" x="0" y="11" class="st10" width="50" height="11"/>
				<rect id="XMLID_1525_" x="0" y="27.5" class="st9" width="50" height="5.5"/>
			</g>
		</g>
	</g>
</g>
<g id="圖層_2" class="st0">
	<g class="st1">
		<g>
			<g id="XMLID_937_">
				<rect id="XMLID_939_" x="0" y="0" class="st11" width="50" height="33"/>
				<polygon id="XMLID_938_" class="st12" points="25,7.6 27.2,14.4 34.5,14.4 28.6,18.6 30.9,25.4 25,21.2 19.1,25.4 21.4,18.6 
					15.5,14.4 22.8,14.4 				"/>
			</g>
		</g>
	</g>
</g>
<g id="圖層_6" class="st0">
	<g class="st1">
		<g>
			<g id="XMLID_716_">
				<rect id="XMLID_768_" x="0" y="4.7" class="st13" width="50" height="2.4"/>
				<rect id="XMLID_767_" x="0" y="16.5" class="st4" width="50" height="2.4"/>
				<rect id="XMLID_758_" x="0" y="18.9" class="st13" width="50" height="2.4"/>
				<rect id="XMLID_757_" x="0" y="21.2" class="st4" width="50" height="2.4"/>
				<rect id="XMLID_756_" x="0" y="30.6" class="st4" width="50" height="2.4"/>
				<rect id="XMLID_743_" x="0" y="28.3" class="st13" width="50" height="2.4"/>
				<rect id="XMLID_742_" x="0" y="25.9" class="st4" width="50" height="2.4"/>
				<rect id="XMLID_736_" x="0" y="23.6" class="st13" width="50" height="2.4"/>
				<rect id="XMLID_735_" x="0" y="0" class="st13" width="50" height="2.4"/>
				<rect id="XMLID_729_" x="0" y="2.4" class="st4" width="50" height="2.4"/>
				<rect id="XMLID_728_" x="0" y="7.1" class="st4" width="50" height="2.4"/>
				<rect id="XMLID_725_" x="0" y="9.4" class="st13" width="50" height="2.4"/>
				<rect id="XMLID_722_" x="0" y="11.8" class="st4" width="50" height="2.4"/>
				<rect id="XMLID_721_" x="0" y="14.1" class="st13" width="50" height="2.4"/>
			</g>
			<rect id="XMLID_715_" x="0" y="0" class="st14" width="25" height="18.9"/>
			<g id="XMLID_693_">
				<path id="XMLID_714_" class="st15" d="M11.4,15.5c-3.4,0-6.1-2.7-6.1-6.1c0-3.3,2.7-6.1,6.1-6.1c0.8,0,1.5,0.1,2.2,0.4
					C12.5,3,11.1,2.6,9.7,2.6c-3.8,0-6.9,3.1-6.9,6.8c0,3.8,3.1,6.8,6.9,6.8c1.4,0,2.8-0.4,3.9-1.2C12.9,15.3,12.2,15.5,11.4,15.5z"
					/>
				<polygon id="XMLID_711_" class="st15" points="16.6,3.7 17.2,6.8 19.1,4.3 18.3,7.3 21.1,5.9 19.1,8.3 22.2,8.2 19.3,9.4 
					22.2,10.7 19.1,10.6 21.1,13 18.3,11.6 19.1,14.6 17.2,12.1 16.6,15.1 16,12.1 14.1,14.6 14.9,11.6 12.1,13 14.1,10.6 11,10.7 
					13.9,9.4 11,8.2 14.1,8.3 12.1,5.9 14.9,7.3 14.1,4.3 16,6.8 				"/>
			</g>
		</g>
	</g>
</g>
</svg>
