<?xml version="1.0" encoding="utf-8"?>
<!-- Generator: Adobe Illustrator 24.2.1, SVG Export Plug-In . SVG Version: 6.00 Build 0)  -->
<svg version="1.1" id="圖層_1" xmlns="http://www.w3.org/2000/svg" xmlns:xlink="http://www.w3.org/1999/xlink" x="0px" y="0px"
	 viewBox="0 0 24 24" style="enable-background:new 0 0 24 24;" xml:space="preserve">
<style type="text/css">
	.st0{fill:#D4BDCA;}
</style>
<path class="st0" d="M18.7,7.3L18.7,7.3c-0.1-0.1-0.2-0.2-0.2-0.3c-0.1-0.1-0.2-0.2-0.3-0.3c-1.4-1.5-2.7-3-2.6-4.9
	c0-0.3-0.1-0.6-0.3-0.7c-0.3-0.2-0.6-0.2-0.9-0.1c-2.8,1.1-5,4.1-6.2,8.5C7.1,8.6,7,7.5,7,7.5l0-0.1C6.9,6.9,6.5,6.6,6,6.6
	c-0.3,0-0.6,0.2-0.7,0.3L5.2,7.1v0c0,0.1,0,0.1,0,0.1h0l0,0C4.8,7.6,4.6,7.9,4.3,8.5C3.6,9.7,3.2,11.1,3,12.6
	c-0.1,0.8-0.1,1.6,0,2.5c0.4,3.3,2.3,5.9,5.1,7.2c1.3,0.5,2.9,0.8,4.5,0.8c1.5,0,2.7-0.2,3.7-0.6c2.9-1.3,5-4,5.3-6.9
	C22,12.9,21,9.9,18.7,7.3z M16,13.7c-0.1-0.1-0.1-0.2-0.2-0.3c-0.6-0.9-1.1-1.6-1.1-2.4c0-0.4-0.2-0.7-0.6-0.8
	c-0.4-0.1-0.7-0.1-1,0.1C12,11.1,11,12.5,10.6,14c-0.1,0.2-0.1,0.4-0.1,0.7c-0.1-0.2-0.2-0.3-0.4-0.4c-0.2-0.1-0.6-0.1-0.9,0
	C9,14.3,7.5,15.1,7.5,18v0.3c0,0.9,0.2,1.6,0.5,2.2c-1.9-1.1-3.1-3.1-3.4-5.4c-0.1-0.7-0.1-1.4,0-2.1c0.2-1.3,0.6-2.5,1.1-3.4
	c0.4,0.7,1.1,1.6,2.7,2.3c0.2,0.1,0.6,0.1,0.8,0c0.2-0.1,0.5-0.3,0.5-0.6c0-0.1,0.9-5.6,4.3-7.8c0.4,1.8,1.7,3.4,2.9,4.8
	C16.9,8.3,17,8.4,17,8.5c0.1,0.1,0.2,0.2,0.3,0.3c2,2.3,2.8,4.7,2.5,6.9v0c-0.3,1.8-1.3,3.4-2.7,4.6c0.1-0.2,0.1-0.3,0.1-0.4
	c0.2-0.6,0.3-1.2,0.3-1.8v-0.5C17.4,15.9,16.7,14.7,16,13.7z M9.4,17.9c0-0.3,0-0.7,0.1-1.2c0.4,0.5,0.9,1.2,1.8,1.2
	c0.5,0,0.9-0.5,0.9-1c0-0.8,0-1.7,0.2-2.5c0.1-0.5,0.4-1.1,0.8-1.6c0.3,0.6,0.6,1.1,1,1.7c0.8,1,1.3,1.9,1.4,3.4v0.3
	c0,1.9-1.4,3.3-3.1,3.3h0h-0.2c-1.7,0-3.1-1.5-3.1-3.3C9.4,18,9.4,17.9,9.4,17.9z"/>
</svg>
