<?xml version="1.0" encoding="utf-8"?>
<!-- Generator: Adobe Illustrator 24.2.1, SVG Export Plug-In . SVG Version: 6.00 Build 0)  -->
<svg version="1.1" id="圖層_1" xmlns="http://www.w3.org/2000/svg" xmlns:xlink="http://www.w3.org/1999/xlink" x="0px" y="0px"
	 viewBox="0 0 48 48" style="enable-background:new 0 0 48 48;" xml:space="preserve">
<style type="text/css">
	.st0{fill:#1F4396;}
</style>
<path class="st0" d="M41.6,25.1c-0.4-1.6-1.1-2.7-2.1-4.5c-0.3-0.5-0.8-1.1-1.2-1.7C33.8,12.7,24.9,1.7,24.1,1c0,0-0.1,0-0.1,0
	c-0.1,0-0.1,0-0.1,0c-0.8,0.7-9.7,11.6-14.2,17.9c-0.4,0.6-0.8,1.2-1.2,1.7c-1,1.8-1.7,2.9-2.1,4.5c-0.6,2.3-0.6,5.1-0.1,7.4
	c0.5,2,2.5,4.1,4.6,5.7l3.2,2.4c0,0,8.9,6,9.7,6.4c0,0,0.1,0.1,0.2,0.1c0.1,0,0.2,0,0.2,0c0.8-0.4,9.7-6.4,9.7-6.4l3.2-2.4
	c2.1-1.6,4.1-3.6,4.6-5.7C42.1,30.2,42.1,27.4,41.6,25.1 M21.2,40.8c-0.1,0.1-0.2,0.1-0.3,0.1c-0.5-0.3-1.8-1.2-1.8-1.2
	c-2.2-1.5-4.4-3-6.6-4.5c-3.3-3.4-2.9-6.7-1.9-10.1c0-0.2,0.1-0.5,0.4-0.6c0.9,1.3,2.9,3.9,2.9,3.9c1.9,2.6,4.2,4.9,6.4,7.2
	C21.8,36.8,21.2,39,21.2,40.8 M24,34.1c-0.1,0-0.1,0-0.2-0.1c-2.8-3.1-6-6.7-8.8-9.8c-0.5-0.8-1-1.6-1.1-2.6c0-0.8-0.1-1.5,0.6-2.5
	c0,0,0.5-0.6,0.6-0.8c0,0,5.7-7.6,8.8-11.2c0,0,0-0.1,0.1-0.1c0,0,0.1,0.1,0.1,0.1c3,3.6,8.8,11.2,8.8,11.2c0.1,0.2,0.6,0.8,0.6,0.8
	c0.7,1,0.7,1.7,0.6,2.5c-0.1,1-0.6,1.8-1.1,2.6c-2.8,3.1-6,6.7-8.8,9.8C24.1,34.1,24,34.1,24,34.1 M35.4,35.1
	c-2.1,1.6-4.4,3-6.6,4.5c0,0-1.3,0.9-1.8,1.2c-0.1,0-0.2,0-0.3-0.1c0-1.8-0.6-4,0.9-5.2c2.2-2.4,4.5-4.7,6.4-7.2
	c0,0,1.9-2.6,2.9-3.9c0.3,0.1,0.4,0.4,0.4,0.6C38.4,28.4,38.7,31.7,35.4,35.1"/>
</svg>
