<?xml version="1.0" encoding="utf-8"?>
<!-- Generator: Adobe Illustrator 24.2.1, SVG Export Plug-In . SVG Version: 6.00 Build 0)  -->
<svg version="1.1" id="圖層_1" xmlns="http://www.w3.org/2000/svg" xmlns:xlink="http://www.w3.org/1999/xlink" x="0px" y="0px"
	 viewBox="0 0 48 48" style="enable-background:new 0 0 48 48;" xml:space="preserve">
<style type="text/css">
	.st0{fill:#B91D22;}
</style>
<path class="st0" d="M2,24C2,11.8,11.9,2,24,2c12.1,0,22,9.8,22,22c0,12.1-9.8,22-22,22C11.9,45.9,2,36.1,2,24C2,24,2,24,2,24z
	 M24,43.1c10.6,0.1,19.2-8.3,19.4-18.9C43.5,13.6,35,5,24.5,4.8c-0.2,0-0.3,0-0.5,0C13.5,5,5.1,13.5,5.1,24
	C5.1,34.5,13.5,43,24,43.1z M11.3,12.9h11.9v3.5h-8.5v3.3h8.5v9.6h-8.5v4h8.5v3.1H11.3V25.7H20v-2.9h-8.7
	C11.3,22.8,11.3,12.9,11.3,12.9z M36.7,12.9v9.9H28v2.9h8.7v10.7H24.7v-3.1h8.5v-4h-8.5v-9.6h8.5v-3.3h-8.5v-3.5L36.7,12.9
	L36.7,12.9L36.7,12.9z"/>
</svg>
