<?xml version="1.0" encoding="utf-8"?>
<!-- Generator: Adobe Illustrator 24.2.1, SVG Export Plug-In . SVG Version: 6.00 Build 0)  -->
<svg version="1.1" id="圖層_1" xmlns="http://www.w3.org/2000/svg" xmlns:xlink="http://www.w3.org/1999/xlink" x="0px" y="0px"
	 viewBox="0 0 48 48" style="enable-background:new 0 0 48 48;" xml:space="preserve">
<style type="text/css">
	.st0{fill-rule:evenodd;clip-rule:evenodd;fill:#006220;}
	.st1{fill-rule:evenodd;clip-rule:evenodd;fill:#FBBC00;}
</style>
<g>
	<circle class="st0" cx="24" cy="24" r="22"/>
	<path class="st1" d="M29.1,13.3c-5.3,7.2-7.6,13.3-7,18.2c0.6,4.9,4.3,5.8,11.1,2.8c-6.1,6-11.1,7.3-14.9,4.1
		c-3.8-3.2-3.6-7.9,0.6-13.8c-2.1,1.2-4,3.2-5.8,5.8c1-3.6,10.2-13.3,15.5-16.6L29.1,13.3L29.1,13.3z M32.3,8l0.8,1.7L35,9.9
		l-1.3,1.3L34,13l-1.6-0.9L30.7,13l0.3-1.8l-1.3-1.3l1.8-0.3L32.3,8L32.3,8z"/>
</g>
</svg>
