<?xml version="1.0" encoding="utf-8"?>
<!-- Generator: Adobe Illustrator 24.2.1, SVG Export Plug-In . SVG Version: 6.00 Build 0)  -->
<svg version="1.1" id="圖層_1" xmlns="http://www.w3.org/2000/svg" xmlns:xlink="http://www.w3.org/1999/xlink" x="0px" y="0px"
	 viewBox="0 0 48 48" style="enable-background:new 0 0 48 48;" xml:space="preserve">
<style type="text/css">
	.st0{fill:#9A8B7D;}
	.st1{fill:#EE3124;}
	.st2{fill:#00A94F;}
</style>
<g>
	<path class="st0" d="M31,38.7c1.2,0,2.1,0.3,2.9,0.7c-0.2,0.1-0.4,0.2-0.6,0.3c-0.7-0.4-1.5-0.5-2.3-0.5c-1.2,0-2.2,0.4-3.2,0.9
		c-1.1,0.5-2.3,1-3.9,1c-1.4,0-2.5-0.5-3.5-1c-1.1-0.5-2.1-1-3.4-1c-0.8,0-1.5,0.2-2.2,0.5c-0.2-0.1-0.4-0.2-0.6-0.3
		c0.9-0.3,1.8-0.7,2.8-0.7c1.5,0,2.6,0.5,3.7,1c1,0.5,2,0.9,3.3,0.9c1.5,0,2.6-0.5,3.6-1C28.6,39.2,29.7,38.8,31,38.7z M31,37.7
		c1.5,0,2.5,0.5,3.4,1c0.1,0.1,0.2,0.1,0.4,0.2l-0.5,0.3c0,0-0.1,0-0.1-0.1c-0.9-0.5-1.8-0.9-3.2-0.9c-1.2,0-2.2,0.4-3.2,0.9
		c-1.1,0.5-2.3,1-3.9,1c-1.4,0-2.5-0.5-3.5-1s-2.1-1-3.4-1c-1.2,0-2.1,0.4-3.2,0.9c0,0,0,0-0.1,0l-0.5-0.4c0.1,0,0.2-0.1,0.4-0.1
		c1-0.5,2.1-0.9,3.4-0.9c1.5,0,2.6,0.5,3.7,1c1,0.5,2,0.9,3.3,0.9c1.5,0,2.6-0.5,3.6-1C28.6,38.2,29.7,37.7,31,37.7L31,37.7z
		 M17,36.6c1.3,0,2.3,0.4,3.2,0.8l0.5,0.2c1,0.5,2,0.9,3.3,0.9c1.5,0,2.6-0.5,3.6-1c1-0.4,2.1-0.9,3.4-0.9c1.5,0,2.5,0.5,3.4,0.9
		c0.4,0.2,0.8,0.4,1.3,0.6c-0.2,0.2-0.3,0.3-0.5,0.4c-0.3-0.1-0.7-0.3-1-0.5c-0.9-0.5-1.8-0.9-3.2-0.9c-1.2,0-2.2,0.4-3.2,0.9
		c-1.1,0.5-2.3,1-3.9,1c-1.4,0-2.5-0.5-3.5-1c-1.1-0.5-2.1-1-3.4-1c-1.2,0-2.1,0.4-3.2,0.9c-0.3,0.1-0.6,0.3-1,0.4
		c-0.2-0.1-0.3-0.3-0.5-0.4l1.2-0.5C14.6,37.1,15.6,36.6,17,36.6z M31,35.7c1.5,0,2.5,0.5,3.4,1c0.6,0.3,1.3,0.7,2.2,0.8
		c-0.2,0.2-0.3,0.3-0.5,0.4c-0.7-0.2-1.3-0.5-1.9-0.8c-0.9-0.5-1.8-0.9-3.2-0.9c-1.2,0-2.2,0.4-3.2,0.9c-1.1,0.5-2.3,1-3.9,1
		c-1.4,0-2.5-0.5-3.5-1c-1.1-0.5-2.1-1-3.4-1c-1.2,0-2.1,0.4-3.2,0.9c-0.6,0.3-1.2,0.5-1.8,0.7c-0.2-0.1-0.3-0.3-0.5-0.4
		c0.8-0.2,1.4-0.5,2.1-0.8c1-0.5,2.1-0.9,3.4-0.9c1.5,0,2.6,0.5,3.7,1c1,0.5,2,0.9,3.3,0.9c1.5,0,2.6-0.5,3.6-1
		C28.6,36.2,29.7,35.7,31,35.7z M31,34.6c1.5,0,2.5,0.5,3.4,1c0.8,0.4,1.7,0.9,3.1,1c-0.2,0.1-0.3,0.3-0.5,0.5c-1.2-0.1-2-0.6-2.8-1
		c-0.9-0.5-1.8-0.9-3.2-0.9c-1.2,0-2.2,0.4-3.2,0.9c-1.1,0.5-2.3,1-3.9,1c-1.4,0-2.5-0.5-3.5-1c-1.1-0.5-2.1-1-3.4-1
		c-1.2,0-2.1,0.4-3.2,0.9c-0.9,0.4-1.7,0.8-2.8,0.9c-0.1-0.2-0.3-0.3-0.5-0.5c1.2-0.1,2.1-0.5,3-0.9c1-0.5,2.1-0.9,3.4-0.9
		c1.5,0,2.6,0.5,3.7,1c1,0.5,2,0.9,3.3,0.9c1.5,0,2.6-0.5,3.6-1C28.6,35.1,29.7,34.6,31,34.6L31,34.6z M31,33.6c1.5,0,2.5,0.5,3.4,1
		c1,0.5,2,1,3.6,1.1c0.1,0,0.3,0,0.4,0c-0.1,0.2-0.3,0.4-0.5,0.6c-1.7,0-2.8-0.6-3.8-1c-0.9-0.5-1.8-0.9-3.2-0.9
		c-1.2,0-2.2,0.4-3.2,0.9c-1.1,0.5-2.3,1-3.9,1c-1.4,0-2.5-0.5-3.5-1c-1.1-0.5-2.1-1-3.4-1c-1.2,0-2.1,0.4-3.2,0.9
		c-1.1,0.5-2.2,1-3.7,1c-0.2-0.2-0.3-0.4-0.5-0.6h0.2c1.5,0,2.6-0.5,3.7-1c1-0.5,2.1-0.9,3.4-0.9c1.5,0,2.6,0.5,3.7,1
		c1,0.5,2,0.9,3.3,0.9c1.5,0,2.6-0.5,3.6-1C28.6,34.1,29.7,33.6,31,33.6z"/>
	<path class="st1" d="M24,42.3C13.9,42.3,5.6,34.1,5.6,24C5.6,13.9,13.9,5.6,24,5.6c10.2,0,18.5,8.2,18.5,18.3
		C42.5,34.1,34.2,42.3,24,42.3 M24,2.2c-12.1,0-22,9.8-22,21.8s9.8,21.8,22,21.8c12.1,0,22-9.8,22-21.8S36.2,2.2,24,2.2"/>
	<path class="st2" d="M34.3,9.3v7.4c0,1.3-1,2.4-1.8,3c-0.9,0.7-6.7,4.2-7.3,5c-0.6,0.8-0.7,2-0.7,2.9v7.1h-0.9V21.1
		c0-1.7,0.7-3,2.6-4.4s5.9-3.5,6.7-4.6C33.7,11.1,34.3,10.4,34.3,9.3L34.3,9.3z M13.5,9.4c0,1.3,1,2.3,1.4,2.9
		c0.4,0.6,4.1,3.5,5.9,4.9c1.8,1.3,2.2,2.2,2.1,4.3v13.3H22V28c0-1.9-0.7-3.2-1.4-3.9c-0.7-0.7-3.2-2.6-4.9-3.8
		c-1.7-1.3-2.2-3-2.2-4L13.5,9.4z M34.3,18.6v4.5c0,1.2-0.2,2.6-1.6,3.6c-1.8,1.3-4.5,2.8-5.7,4c-0.7,0.7-1,1.6-1,2.2v1.7h-0.9V28
		c0-0.9,0.1-2.1,0.8-2.9c0.6-0.8,6.3-4.2,7.2-4.9C33.5,20,34.1,19.2,34.3,18.6z"/>
</g>
</svg>
