<?xml version="1.0" encoding="utf-8"?>
<!-- Generator: Adobe Illustrator 24.2.1, SVG Export Plug-In . SVG Version: 6.00 Build 0)  -->
<svg version="1.1" id="圖層_1" xmlns="http://www.w3.org/2000/svg" xmlns:xlink="http://www.w3.org/1999/xlink" x="0px" y="0px"
	 viewBox="0 0 48 48" style="enable-background:new 0 0 48 48;" xml:space="preserve">
<style type="text/css">
	.st0{fill:#009BC9;}
</style>
<path class="st0" d="M24,2C11.8,2,2,11.9,2,24s9.8,22,22,22c12.1,0,22-9.9,22-22C46,11.9,36.1,2,24,2z M12.2,13
	c0-0.6,0.3-1.5,0.9-2.1c0.9-1,1.7-1.4,2.6-2.1C17,8,18.2,7.3,19.6,6.7c0.2-0.1,0.3-0.1,0.4-0.1h0c0.1,0,0.1,0,0.2,0.1
	c0,0.1,0,0.2,0,0.4c-0.3,0.6-0.3,1.3-0.3,1.3v9c3.9-2.7,9.5-6.5,10.2-6.9c0.4-0.2,0.5-0.3,1.1-0.5c0.8-0.3,1.4,0,1.8,0.1
	c1,0.4,2.5,1.6,4.3,3.6c0.1,0.1,0.2,0.3,0.3,0.4c0,0.1,0,0.2-0.1,0.3c-0.1,0.1-0.2,0.1-0.3,0.1c-0.3,0-0.6,0-0.9,0
	c-0.5,0.1-1.1,0.3-1.7,0.7l-4.8,3.4l7.2,9.4c0.2,0.3,0.4,0.6,0.5,1c0.3,1.1-0.5,2.2-1.6,2.5h-5.2l-6.4-8.8l-4.2,3v5.8h-7.7
	C12.2,29.3,12.2,13.5,12.2,13z M39.4,34c0,0-2.5,3.6-4.7,5.1c-1.1,0.7-2.2,1.1-3.5,1.1h-14c-1.3,0-2.4-0.4-3.5-1.1
	C11.5,37.6,9,34,9,34c-0.1-0.3-0.2-0.4-0.2-0.6c0-0.4,0.3-0.6,0.5-0.6c0.3,0,0.5,0.4,1.7,0.4h26.3c1.2,0,1.5-0.4,1.7-0.4
	c0.2,0,0.5,0.2,0.5,0.6C39.6,33.6,39.5,33.7,39.4,34z"/>
</svg>
