<?xml version="1.0" encoding="utf-8"?>
<!-- Generator: Adobe Illustrator 24.2.1, SVG Export Plug-In . SVG Version: 6.00 Build 0)  -->
<svg version="1.1" id="圖層_1" xmlns="http://www.w3.org/2000/svg" xmlns:xlink="http://www.w3.org/1999/xlink" x="0px" y="0px"
	 viewBox="0 0 48 48" style="enable-background:new 0 0 48 48;" xml:space="preserve">
<style type="text/css">
	.st0{fill:#00A4E4;}
</style>
<path class="st0" d="M32.5,36.3c0,0,0.3-0.5,0.4,0.2c0,0,0.3,3.5-1.8,5.6c-1.4,1.4-4.6,3.4-8.2,2.5c0,0,5.8-0.4,7.3-6l0.2-0.6
	C30.3,37.9,31.7,37.6,32.5,36.3 M25.5,3.3C25.4,3.3,25.4,3.3,25.5,3.3c0,0.3,0.1,0.5,0.4,0.6c0,0,0,0,0,0c0.2,0,0.5-0.1,0.5-0.4
	c0.1,0.1,0.2,0.2,0.3,0.3c-0.5,0-0.6,0.3-1,0.2c-0.2,0-0.5-0.3-0.5-0.6C25.3,3.4,25.4,3.3,25.5,3.3 M25.8,3.3c0.1,0,0.2,0,0.3,0.1
	c0,0,0,0.1,0,0.1c0,0.1-0.1,0.2-0.2,0.2c-0.1,0-0.2-0.1-0.2-0.2C25.7,3.4,25.8,3.3,25.8,3.3 M45.7,18.9c0-0.1,0-0.1,0-0.2
	c0,0-0.1-0.4-0.3-0.9c0-0.1-0.1-0.2-0.1-0.2c0,0,0-0.1,0-0.1c-0.6-1.3-1.4-2.4-2.4-3.4c0,0,1.3-0.1-0.1-1.7c0,0-2.5-2.8-7.2-5
	c-2.5-1.1-5.4-0.7-5.1,2.1c0.2,1.9-1.7,2.7-3.1,2.5c-1.7-0.2-2.7-1.6-2.5-2.7C25.1,8,25.8,7,26.7,6.3c0.6-0.5,1.1-0.8,2.3-1.1
	c0.7-0.2,1.7-0.4,1.9,0.4c0.5-0.3,1.4-1.9-1.5-1.9c0,0-0.4-0.9-1.4-0.7c0,0-2.8-2.7-6,0.7c0,0-1.2,0.5-1.3,0C21,3.9,21.5,3.3,20.9,3
	c-0.3-0.1-0.6,0.2-0.7,0.5c0,0.2,0,0.7,0.6,0.8c0.2,0,0.5,0,0.5,0l-0.2,0.2c-0.9,0.4-1.9,0.1-2-0.6c0.2,0.1,0.5,0,0.5-0.3
	c0.1-0.2-0.1-0.6-0.5-0.6c-0.5-0.1-0.8,0.5-0.6,1c0.2,0.8,1,1.4,2,1.2l-0.2,0.3c0,0-1,1.3-1.9,2.7C17.6,9.8,14,11.5,14.6,8
	c0.2-1.1-1.7-2.5-5-0.2c-1.8,1.2-3.9,3-5.6,5.9c0,0-0.7,1.1,0.5,1.1c0,0-2.4,1.1-2.5,6.5l0,0l0,0.5c0,0.2,0,0.4,0,0.6
	c0,0.6,0,1.3,0.1,1.7c0,0,0.3,3.2,0.8,3.8c0,0,0,0,0.1,0c0.2,0.1,0.4,0.2,0.7-0.1c0,0,0,0,0,0c0,0,0.7,3.6,2.2,6.7
	c1.2,2.4,3.5,5.9,2.6,6.7c-0.9,0.8-2.1-0.8-1.9-0.2c0.4,1.4,1.9,1.6,2.7,1c2.1-1.6-1-5.5-1.9-10.5c2-0.8,1.9-3.9,1.9-3.9
	s2.9-0.1,3.7-3.4c0,0,3.4,1,5.1-2l0-0.1l0,0c0.3,1,1,2,1.9,2.7c0,0-0.2,1.4-1.8,1.9c0,0-2-0.8-4.1,0c-2,0.8-1.2,2.8,0.3,2.3
	c-0.4-0.2-0.6-0.9,0.1-1.1c0.2,0.1,0.4,0.2,0.6,0.3v0c0,0,1.8,0.3,3-0.2c0.1,0,0.2-0.1,0.3-0.1c0,0,0,0,0,0l0,0
	c0.1-0.1,0.2-0.2,0.3-0.3c0.4,0,0.7,0.7,0.1,1c1.2,0.3,1.6-1,1.1-1.6c0,0,0.3-0.2,0.6-0.4c0,0,0.4-0.4,0.7-0.8c0,0,1.2,0.9,3.3,1.4
	c0,0-1.1,1.9-2.8,2.2c0,0-2.4-0.8-4,0.2c0,0-0.9,0.5-0.7,1.4c0.1,0.7,0.7,1.2,1.5,1.1c-0.4-0.2-1.1-1-0.1-1.4
	c0.2,0.3,0.4,0.4,0.7,0.5l0,0c0,0,1.5,0.3,3.3-0.4c0.1,0,0.1,0,0.2-0.1c0,0,0,0,0.1,0c0,0,0,0,0,0c0.1-0.1,0.2-0.2,0.2-0.3
	c0.5-0.1,1.1,0.1,0.9,1c0.6-0.1,1.5-1.1,0.1-1.9c0,0,0.8-0.4,1.4-0.9l1-1c1.9,0.3,3.3,2,3.3,4.1c0,1.7-1.5,3.8-3.1,4.2
	c0.1,0,0.1,0,0.2,0L26.5,36c0,0,0,0,0,0c-0.3,0.1-0.6,0.1-0.9,0.1C24,36,25,34.2,25,34.2c-0.2,0-0.5,0.1-0.8,0.3
	c-0.3,0.3-0.4,0.9-0.3,1.5c-0.1,0-0.2,0-0.2-0.1c-1.5-0.6-1.3-1.7-1.3-1.7c-0.4,0.2-0.7,0.7-0.5,1.5c0.2,1.1,1.6,1.6,2.8,1.7
	c0.7,0.6,1.7,1.3,4.1,0.9c0,0-1.1,5.4-8.1,5.2c0,0-2.1-0.8-2.1-2.5c0.1-2.3,1.7-3.2,1.7-3.2c-0.6-0.1-2.1,0.1-2.8,2
	c-0.3,0.9-0.2,2.3,0.6,3.3c-2.7-0.7-4.7-2.7-3.9-5.3c0.1-0.4,0.4-0.9,0.7-1.2c2-1.8,5-0.7,5-0.7c-0.1-0.6-1-1.5-2.4-1.6
	c-1.5-0.1-4.4,0.8-4.6,4.3c-0.2,3.2,1.8,5.5,6.9,6.2l0.1,0.1c0,0,3.1,2.1,7.5,1c0,0,8.8-1.8,6.9-11.6c0,0,2.1-6.6-2.3-10.3
	c2.7,2.2,5.9,0.9,5.9,0.9c-0.2,6,2.4,6.7,2.4,6.7l0.1,0c0,0-4.8,10.2-2,11.5c1,0.5,2.1,0.2,2.7-1c0.5-1-1.1,1-1.9,0.1
	c-1.1-1,0.2-3.5,1.5-6.1c1.8-3.5,3-6.1,3.2-7.9c0,0,0.3,0.2,0.6,0c0,0,0,0,0,0c0.7-0.2,1.1-3,1.2-3.5C46.2,22,46,20.1,45.7,18.9"/>
</svg>
