<?xml version="1.0" encoding="utf-8"?>
<!-- Generator: Adobe Illustrator 24.2.1, SVG Export Plug-In . SVG Version: 6.00 Build 0)  -->
<svg version="1.1" id="圖層_1" xmlns="http://www.w3.org/2000/svg" xmlns:xlink="http://www.w3.org/1999/xlink" x="0px" y="0px"
	 viewBox="0 0 48 48" style="enable-background:new 0 0 48 48;" xml:space="preserve">
<style type="text/css">
	.st0{fill:#211E1E;}
	.st1{fill-rule:evenodd;clip-rule:evenodd;fill:#D6DF00;}
	.st2{fill-rule:evenodd;clip-rule:evenodd;fill:#40C0C9;}
	.st3{fill-rule:evenodd;clip-rule:evenodd;fill:#913B9A;}
	.st4{fill-rule:evenodd;clip-rule:evenodd;fill:#F68464;}
	.st5{fill-rule:evenodd;clip-rule:evenodd;fill:#0085C6;}
	.st6{fill-rule:evenodd;clip-rule:evenodd;fill:#FDC600;}
	.st7{fill-rule:evenodd;clip-rule:evenodd;fill:#9B9F94;}
	.st8{fill-rule:evenodd;clip-rule:evenodd;fill:#F99500;}
</style>
<g>
	<path class="st0" d="M8,4v22.1h14V32H2V4H8z M29.7,4v10.5h10.5V4H46v28h-5.8V20.2H29.7l0,11.8H24V4H29.7z"/>
	<path class="st1" d="M2,35h5.7v10H2V35z"/>
	<path class="st2" d="M7.7,35h5.7v10H7.7V35z"/>
	<path class="st3" d="M12.7,35h5.7v10h-5.7L12.7,35z"/>
	<path class="st4" d="M18.3,35H24v10h-5.7V35z"/>
	<path class="st5" d="M24,35h5.7v10H24V35z"/>
	<path class="st6" d="M29.7,35h5.7v10h-5.7V35z"/>
	<path class="st7" d="M34.7,35h5.7v10h-5.7V35z"/>
	<path class="st8" d="M40.3,35H46v10h-5.7V35z"/>
</g>
</svg>
