<?xml version="1.0" encoding="utf-8"?>
<!-- Generator: Adobe Illustrator 25.0.0, SVG Export Plug-In . SVG Version: 6.00 Build 0)  -->
<svg version="1.1" xmlns="http://www.w3.org/2000/svg" xmlns:xlink="http://www.w3.org/1999/xlink" x="0px" y="0px"
	 viewBox="0 0 48 48" style="enable-background:new 0 0 48 48;" xml:space="preserve">
<style type="text/css">
	.st0{display:none;}
	.st1{display:inline;}
	.st2{fill:#211E1E;}
	.st3{fill-rule:evenodd;clip-rule:evenodd;fill:#D6DF00;}
	.st4{fill-rule:evenodd;clip-rule:evenodd;fill:#40C0C9;}
	.st5{fill-rule:evenodd;clip-rule:evenodd;fill:#913B9A;}
	.st6{fill-rule:evenodd;clip-rule:evenodd;fill:#F68464;}
	.st7{fill-rule:evenodd;clip-rule:evenodd;fill:#0085C6;}
	.st8{fill-rule:evenodd;clip-rule:evenodd;fill:#FDC600;}
	.st9{fill-rule:evenodd;clip-rule:evenodd;fill:#9B9F94;}
	.st10{fill-rule:evenodd;clip-rule:evenodd;fill:#F99500;}
	.st11{fill:#00386B;}
	.st12{fill:#063C70;}
	.st13{fill:#093F71;}
	.st14{fill:#0C4173;}
	.st15{fill:#083E71;}
	.st16{fill:#0A3F72;}
	.st17{fill:#164979;}
	.st18{fill:#00386C;}
	.st19{fill:#0A4072;}
	.st20{fill:#F3F5F8;}
	.st21{fill:#F5F7F9;}
	.st22{fill:#F7F8FA;}
	.st23{fill:#F6F8F9;}
	.st24{fill:#F4F6F8;}
	.st25{fill:#E2E8EE;}
	.st26{fill:#033A6D;}
	.st27{fill:#023A6D;}
</style>
<g id="圖層_1" class="st0">
	<g class="st1">
		<path class="st2" d="M8,4v22.1h14V32H2V4H8z M29.7,4v10.5h10.5V4H46v28h-5.8V20.2H29.7V32H24V4H29.7z"/>
		<path class="st3" d="M2,35h5.7v10H2V35z"/>
		<path class="st4" d="M7.7,35h5.7v10H7.7V35z"/>
		<path class="st5" d="M12.7,35h5.7v10h-5.7V35z"/>
		<path class="st6" d="M18.3,35H24v10h-5.7V35z"/>
		<path class="st7" d="M24,35h5.7v10H24V35z"/>
		<path class="st8" d="M29.7,35h5.7v10h-5.7V35z"/>
		<path class="st9" d="M34.7,35h5.7v10h-5.7V35z"/>
		<path class="st10" d="M40.3,35H46v10h-5.7V35z"/>
	</g>
</g>
<g id="圖層_2">
	<g>
		<path class="st11" d="M46,20.8c-0.8,1.7-1.1,3.5-1.6,5.2c-1.1,4-2.2,8-3.3,12.1c-1.4,0.2-2.7,0.1-4.3,0.1c0.3-1.3,0.5-2.4,0.9-3.6
			c0.3-0.8,0.2-1.6,0-2.4c-1.1-3.4-2.1-6.7-3.1-10.1c-0.2-0.6-0.4-1.2-0.6-1.9c1.5-0.2,3,0,4.4-0.1c0.6,1.6,0.9,3.2,1.7,4.7
			c0.8-1.4,0.9-3,1.6-4.6c1.4,0,2.8-0.2,4.3,0C46,20.4,46,20.6,46,20.8z"/>
		<path class="st12" d="M5.9,45.7c-0.3,0.1-0.6,0.1-0.9-0.1c-0.4-0.7-0.1-1.5-0.3-2.3c-0.5-0.4-1.5-0.7-0.7-1.7
			c0.5-0.3,1-0.2,1.4-0.1c0.5,0.2,0.3,0.8,0.6,1.3c0.2-0.5,0.3-0.9,0.5-1.2c0.3-0.2,0.6-0.2,0.9,0C7.5,42,7.7,42.4,8,43
			c0.3-0.6,0-1,0.4-1.6c0.1-0.1,0.4,0.1,0.9,0.1c-0.1,1.4,0.1,2.7-0.1,3.9c-0.4,0.5-0.8,0.4-1.2,0.3c-0.4-0.6-0.6-1.3-0.8-2.2
			C6.3,44.2,6.4,45.1,5.9,45.7z"/>
		<path class="st13" d="M14.1,45.7c-1.5,0.3-1.8,0.2-1.8-1c0.2-0.5,0.8-0.4,1-0.9c-0.4-1.2-1.6-0.6-2.4-0.9c-0.2-1,0.7-1.2,1.2-1.7
			c0-0.7-0.4-1.2-0.5-1.8c0.9-0.9,1.3-0.9,2,0.2c0.4-0.2,0.6-1.1,1.4-0.6c-0.1,1.4-1.3,1.6-2.4,2c0.3,0.4,0.7,0.5,1.2,0.4
			c0.4-0.1,0.8,0,0.9,0.4c-0.1,0.4-0.5,0.4-0.8,0.7C14.5,43.5,14.5,44.5,14.1,45.7z"/>
		<path class="st14" d="M42.8,41.4c0.4-0.2,0.7,0,1.1,0.2c-0.2,1.3,0.3,2.7-0.4,4c-1.2,0.3-2.3,0.2-3.6,0.1c0.3-1.5-0.4-2.9,0.2-4.2
			c0.7-0.2,1.1-0.2,1.6,0c0.6,0.6-0.1,1.5,0.4,2.1c-0.2,0.5-0.7,0.2-0.9,0.5c-0.2,0.3-0.2,0.5,0,0.8c0.4,0.2,0.9,0.1,1.4,0
			C42.9,43.8,42.5,42.5,42.8,41.4z"/>
		<path class="st15" d="M23.5,43.5c-0.2-0.5-0.8-0.4-1-0.9c-0.2-0.5-0.1-0.9,0.3-1.1c0.5-0.3,1.1-0.3,1.5,0.3c0.3,0.5,0,1.2,0.2,1.8
			c0.3,0.3,0.7,0.5,1.1,0.5c0.3-0.8,0-1.7,0.2-2.5c0.2-0.3,0.5-0.2,0.9-0.1c0,1.3,0,2.7,0,4c-1,0.9-1.3-0.3-1.9-0.6
			c-0.5,0-0.4,0.7-0.7,0.8c-0.6,0.4-1.3,0.1-1.8-0.8C22.2,44,23.1,44,23.5,43.5z"/>
		<path class="st16" d="M29.1,41.6c0.4-0.3,0.7-0.2,1-0.1c0,0.8,0,1.6,0,2.1c0.2,0.7,0.8,0.6,1.1,1.2c0.2,0.6-0.2,1.1-1,1.1
			c-0.7,0.1-1.2-0.3-1.2-1C29.1,43.8,29.1,42.7,29.1,41.6z"/>
		<path class="st17" d="M44.5,38.9c-0.4,0.5-1,0.9-0.9,1.6c-0.7,0.5-1.3,0.6-1.7-0.1c-0.4-0.7,0.1-1.2,0.9-1.3
			C43.3,39,43.8,38.1,44.5,38.9z"/>
		<path class="st18" d="M46,2.4c-0.2-0.5-0.7-0.2-1-0.2c-14.3,0-28.6,0-43,0c0,4.1,0,8.3,0,12.4c14.7,0,29.3,0,44,0
			c0-0.1,0-0.2,0-0.3C46,10.3,46,6.4,46,2.4L46,2.4z"/>
		<path class="st18" d="M17.8,22.1c-0.4-2-1.8-3.2-3.6-3.9c-0.9-0.3-1.8-0.5-2.8-0.5c-2.7,0-5.3,0-8,0c-0.3,0-0.7-0.1-1,0.2
			c0,6.7,0,13.4,0,20.2c1.5,0,2.8,0,4.3,0c0-2.4,0-4.7,0-7.2c1.7,0,3.1,0,4.6,0c1.1,0,2.1-0.2,3.2-0.5c1.7-0.6,2.9-1.7,3.3-3.5
			C18.2,25.3,18.2,23.7,17.8,22.1z M13.7,24.4c0,1.5-0.8,2.7-2.2,2.8c-1.5,0.1-3.1,0-4.7,0c-0.2-2,0-3.8,0-5.9
			c1.7,0.1,3.3-0.2,4.9,0.2C13.1,21.9,13.7,22.8,13.7,24.4z"/>
		<path class="st18" d="M32.9,32.5c0-2.6,0-5.3,0-7.9c0-2.1-0.9-3.2-2.9-4c-1.6-0.6-3.2-0.7-4.8-0.6c-3,0.3-5.4,1.8-5.4,5.2
			c1.3,0.1,2.5,0.1,3.8,0c0.8-1.9,1.9-2.4,3.9-1.9c1,0.2,1.3,0.7,1.2,2c-0.8,0.9-1.8,0.9-2.8,1c-1.4,0.2-2.8,0.3-4.1,0.9
			c-1.8,0.8-2.7,2.4-2.6,4.6c0.1,1.9,1.2,3.3,3.1,3.9c2,0.6,3.8,0.3,5.5-0.9c0.3-0.2,0.5-0.6,1-0.5c0.4,0.2,0.2,0.8,0.6,1.1
			c2.2,0.3,3.6,0.2,4.3-0.2C32.9,34.1,32.9,34.1,32.9,32.5z M25.7,33.1c-1.2,0.1-2.1-0.4-2.4-1.4c-0.2-1,0.4-2,1.6-2.3
			c1.2-0.3,2.4-0.5,3.7-0.8C29,31.4,28,32.9,25.7,33.1z"/>
		<path class="st15" d="M38,41.5c-0.7-0.4-0.9,0.1-1.2,0.4c-0.6-0.4-0.6-0.4-1.2-0.5c-0.4,0.3-0.3,0.9-0.7,1.3c-0.2-0.5,0-1-0.6-1.3
			c-0.3-0.1-0.8-0.1-1.2,0c-0.5,1-0.5,1,0.6,1.9c0.2,0.7-0.2,1.5,0.3,2.3c0.3,0.2,0.6,0.3,1,0c0.5-0.7,0.5-1.7,1.1-2.4
			c0.3,0.9,0.5,1.7,0.8,2.4c0.5,0.2,0.8,0.2,1.3-0.2C38.1,44.2,38.2,42.8,38,41.5z M33.5,42.4c-0.1,0-0.1-0.1-0.1-0.2
			c0-0.2,0.1-0.2,0.4-0.2C33.8,42.3,33.7,42.4,33.5,42.4z M36.9,43.1c-0.2-0.4-0.3-0.6-0.2-0.8C37.2,42.4,37,42.6,36.9,43.1z"/>
		<path class="st19" d="M20.4,42.2c-1.3-1.4-3.1-1.3-4.1,0.3c-0.1,0.3,0.4,0.3,0.4,0.7c-0.1,0.2-0.1,0.7-0.1,1.1
			c0,0.4-0.1,0.9,0.2,1.5c1.2-0.2,2.5,0.4,3.6-0.4C20.5,44.3,20.5,43.2,20.4,42.2z M19.3,44.9c-0.6,0.2-1,0.2-1.5,0.1
			c0-0.7,1.1-0.6,1-1.3c-0.1-0.6-0.7-0.8-1.2-1c0.8-0.7,0.9-0.7,1.8-0.1C19.4,43.3,19.5,44.1,19.3,44.9z"/>
		<path class="st20" d="M23.3,6.4c0.6-0.3,0.9-0.1,1.1,0.5c1.2-1.1,2.4-1.1,3.7,0.1c0.6-0.6,1.4-1,2.3-0.8c0.9,0.1,1.5,0.6,1.7,1.5
			c0.1,0.4,0.1,0.8,0.1,1.2c0,1.2,0.1,2.4-0.1,3.5c-0.4,0.2-0.6,0.2-1,0c-0.3-1.6,0.1-3.3-0.2-4.9c-1.6-0.8-2.5-0.3-2.6,1.3
			c-0.1,1.2,0.1,2.4-0.1,3.6c-0.3,0.2-0.6,0.2-1,0C27,10.7,27.4,9,27,7.4c-1.4-0.8-2.6-0.3-2.7,1.3c-0.1,1.2,0,2.4,0,3.5
			c-0.4,0.4-0.6,0.2-1,0.2C23.3,10.3,23.3,8.3,23.3,6.4z"/>
		<path class="st21" d="M4.7,4.8C4.3,4.4,4.4,4.2,4.5,3.9c1.5,0,3-0.1,4.5,0c1.3,0.1,2.1,1,2.2,2.3c0.1,1.3-0.8,2.3-2.1,2.6
			C8.5,8.8,7.9,8.8,7.3,8.8c-0.5,0-1,0-1.6,0c-0.3,1.2,0,2.4-0.2,3.4c-0.3,0.3-0.7,0.3-1.1,0c0-2.2,0-4.4,0-6.6
			c0.3-0.2,0.7-0.2,1-0.1c0.3,0.7,0,1.4,0.3,2.2c0.9,0,1.9,0.1,2.8,0C9.5,7.7,10,7.1,10,6.3c0-0.8-0.5-1.4-1.5-1.4
			C7.2,4.8,5.9,4.8,4.7,4.8z"/>
		<path class="st22" d="M34.9,12c0,0.6,0,1.1,0,1.5c-0.3,0.4-0.6,0.2-1,0.3c0-2.5,0-4.9,0-7.4c0.5-0.2,0.9-0.2,1,0.5
			c1.7-1,3-1,4,0.2c0.9,1.1,0.9,3.6,0,4.7C38,12.8,36.7,12.9,34.9,12z"/>
		<path class="st23" d="M15.7,9.4c0-2.1,1.2-3.4,3.1-3.4c1.9,0,3.1,1.2,3.1,3.2c0,2.2-1.3,3.5-3.3,3.5C16.8,12.7,15.7,11.4,15.7,9.4
			z"/>
		<path class="st24" d="M41.2,5.9c0-0.4,0-0.9,0-1.3c0.3-0.3,0.6-0.3,1-0.1c0.2,0.4,0,0.9,0.2,1.4c0.2,0.5,0.8,0.1,1,0.6
			c0.1,0.7-0.7,0.4-1,0.7c0,0.7,0,1.4,0,2.1c0,0.7,0,1.4,0,1.9c0.3,0.6,0.9,0.3,1.1,0.8c-0.1,0.8-0.7,0.5-1.2,0.5
			c-0.6,0-0.9-0.5-0.9-1c0-1.1,0-2.2,0-3.4c0-0.3,0-0.5,0-0.7c-0.1-0.6-0.8-0.3-0.9-0.8C40.3,6.1,40.9,6.3,41.2,5.9z"/>
		<path class="st25" d="M12,6.4c0.6-0.3,1-0.2,1,0.6c0.7-0.3,1.1-1.1,1.9-0.9c0.3,0.2,0.3,0.6,0.1,0.9c-1.9,0.5-2.1,0.9-2,2.8
			c0,0.9,0.1,1.7-0.1,2.5c-0.3,0.2-0.6,0.2-1-0.1C12,10.4,12,8.4,12,6.4z"/>
		<path class="st26" d="M38.6,9.4c0,1.6-0.8,2.5-2,2.4c-1.2-0.1-1.7-0.9-1.6-2.6c0.1-1.4,0.7-2.2,1.8-2.2
			C37.9,6.9,38.6,7.8,38.6,9.4z"/>
		<path class="st27" d="M20.7,9c0,1.9-0.7,2.8-2,2.8c-0.8,0-1.4-0.3-1.7-1.1c-0.4-0.9-0.3-1.9,0.1-2.8c0.4-0.8,1.1-1.1,1.9-1
			c0.8,0.1,1.3,0.6,1.5,1.4C20.7,8.6,20.7,8.9,20.7,9z"/>
	</g>
</g>
</svg>
