<?xml version="1.0" encoding="utf-8"?>
<!-- Generator: Adobe Illustrator 24.2.1, SVG Export Plug-In . SVG Version: 6.00 Build 0)  -->
<svg version="1.1" id="圖層_1" xmlns="http://www.w3.org/2000/svg" xmlns:xlink="http://www.w3.org/1999/xlink" x="0px" y="0px"
	 viewBox="0 0 48 48" style="enable-background:new 0 0 48 48;" xml:space="preserve">
<style type="text/css">
	.st0{fill:#462279;}
	.st1{fill:#FEAC00;}
</style>
<g>
	<path class="st0" d="M10,2h28c4.4,0,8,3.6,8,8v28c0,4.4-3.6,8-8,8H10c-4.4,0-8-3.6-8-8V10C2,5.6,5.6,2,10,2z"/>
	<path class="st1" d="M41,35l-4.7-17.4L24,7L11.7,17.7L7,35l8.8,4h7v-5.9c0,0-12.9,6.5-9.6-8.1c1.1-4.8,7.1-11.3,10.5-13.1
		c0.1-0.1,0.2-0.1,0.3-0.2c3.3,1.5,9.6,8.2,10.8,13.2c3.4,14.6-9.6,8.1-9.6,8.1V39h7L41,35z"/>
</g>
</svg>
