<?xml version="1.0" encoding="utf-8"?>
<!-- Generator: Adobe Illustrator 24.2.1, SVG Export Plug-In . SVG Version: 6.00 Build 0)  -->
<svg version="1.1" id="圖層_1" xmlns="http://www.w3.org/2000/svg" xmlns:xlink="http://www.w3.org/1999/xlink" x="0px" y="0px"
	 viewBox="0 0 48 48" style="enable-background:new 0 0 48 48;" xml:space="preserve">
<style type="text/css">
	.st0{fill:#F35C17;}
	.st1{fill:#211E1E;}
</style>
<g>
	<path class="st0" d="M6,16.7C8.8,7.8,17.4,6,22.6,6H46c-2.6,8.1-9.8,10.3-15.1,10.7c-0.4,0-1.6,0.1-1.6,0.1S6,16.7,6,16.7z"/>
	<path class="st1" d="M3.2,36.2c-1.3-5.5,5.3-12.7,14.8-16c1.9-0.6,3.8-1.1,5.7-1.4c-2.3,0.8-4.6,2.6-6.1,6c-0.5,1.1-2.7,6.4-4,8.7
		c-1.9,3.2-3.3,3.1-3.3,3.1c8.6,1,13.4-3.3,15.1-7.4c0.8-2.2,2.3-5.6,3-7c0.8-1.9,1.7-2.9,2.4-3.3c3.6,0.7,6.2,2.6,6.8,5.4
		c1.3,5.6-5.3,12.7-14.8,16C13.3,43.6,4.5,41.8,3.2,36.2"/>
</g>
</svg>
