<?xml version="1.0" encoding="utf-8"?>
<!-- Generator: Adobe Illustrator 24.2.1, SVG Export Plug-In . SVG Version: 6.00 Build 0)  -->
<svg version="1.1" id="圖層_1" xmlns="http://www.w3.org/2000/svg" xmlns:xlink="http://www.w3.org/1999/xlink" x="0px" y="0px"
	 viewBox="0 0 48 48" style="enable-background:new 0 0 48 48;" xml:space="preserve">
<style type="text/css">
	.st0{fill:#F79727;}
	.st1{fill:#0047B6;}
</style>
<g>
	<path class="st0" d="M28.3,12.6c0.1-0.1,1.8-1.9,0-3.8L26.4,7l-6,6l3.8,3.8L28.3,12.6L28.3,12.6z M35.2,19.4c0.1-0.1,1.8-1.9,0-3.8
		l-1.8-1.8l-6,6l3.8,3.8C31.1,23.5,35.2,19.4,35.2,19.4z M24.2,18.4l-3.8,3.8l1.8,1.8l4.2,4.2l3.8-3.8L26,20.2
		C26,20.2,24.2,18.4,24.2,18.4z M23.3,17.5l-3.8-3.8l-6,6l3.8,3.8l1.8-1.8L23.3,17.5L23.3,17.5z M24.2,31.9l-3.8,3.8l6,6l1.8-1.8
		c1.8-1.8,0.2-3.6,0-3.8C28.3,36.1,24.2,31.9,24.2,31.9z M10.9,22.5c-1.8,1.8-0.2,3.6,0,3.8l4.2,4.2l3.8-3.8l-6-6L10.9,22.5
		 M27.2,28.9l6,6l1.8-1.8c1.8-1.8,0.2-3.6,0-3.8l-4.2-4.2C30.9,25.2,27.2,28.9,27.2,28.9z M20,27l-4.2,4.1l3.8,3.8l6-6l-3.8-3.8
		L20,27"/>
	<path class="st1" d="M24,47C11.3,47,1,36.7,1,24S11.4,1,24,1c12.7,0,23,10.3,23,23C47,36.6,36.7,47,24,47z M24,5.2
		C13.6,5.2,5.2,13.6,5.2,24S13.6,42.8,24,42.8S42.8,34.4,42.8,24S34.4,5.2,24,5.2z"/>
</g>
</svg>
