<?xml version="1.0" encoding="utf-8"?>
<!-- Generator: Adobe Illustrator 24.2.1, SVG Export Plug-In . SVG Version: 6.00 Build 0)  -->
<svg version="1.1" id="圖層_1" xmlns="http://www.w3.org/2000/svg" xmlns:xlink="http://www.w3.org/1999/xlink" x="0px" y="0px"
	 viewBox="0 0 48 48" style="enable-background:new 0 0 48 48;" xml:space="preserve">
<style type="text/css">
	.st0{fill-rule:evenodd;clip-rule:evenodd;fill:#E50019;}
	.st1{fill-rule:evenodd;clip-rule:evenodd;fill:#126DB2;}
</style>
<g>
	<path class="st0" d="M27.7,7C35.6,7,42,13.4,42,21.3c0,5.2-2.7,9.7-6.8,12.2c1.7-2.4,2.7-5.4,2.7-8.3c0-7.9-6.4-14.3-14.3-14.3
		c-2.8,0-5.3,0.8-7.5,2.1C18.7,9.2,23,7,27.7,7z"/>
	<path class="st1" d="M24,2c12.2,0,22,9.9,22,22s-9.8,22-22,22S2,36.2,2,24S11.9,2,24,2z M28,7.2c-7.2,0-13,5.8-13,13s5.8,13,13,13
		s13-5.8,13-13S35.2,7.2,28,7.2z"/>
</g>
</svg>
