<?xml version="1.0" encoding="utf-8"?>
<!-- Generator: Adobe Illustrator 24.2.1, SVG Export Plug-In . SVG Version: 6.00 Build 0)  -->
<svg version="1.1" id="圖層_1" xmlns="http://www.w3.org/2000/svg" xmlns:xlink="http://www.w3.org/1999/xlink" x="0px" y="0px"
	 viewBox="0 0 48 48" style="enable-background:new 0 0 48 48;" xml:space="preserve">
<style type="text/css">
	.st0{fill-rule:evenodd;clip-rule:evenodd;fill:#006CB7;}
	.st1{fill:#FFFFFF;}
</style>
<g>
	<path class="st0" d="M10,2h28c4.4,0,8,3.6,8,8v28c0,4.4-3.6,8-8,8H10c-4.4,0-8-3.6-8-8V10C2,5.6,5.6,2,10,2z"/>
	<path class="st1" d="M20.8,19.2l3.2,9.5h0l3-9.5h4.4V33h-3v-9.7L25.1,33h-2.3l-3.3-9.7h0V33h-3V19.2H20.8L20.8,19.2z M14.4,19.2
		v2.5h-4.2V33h-3V21.8H3v-2.6H14.4z M40.1,19.2c0.6,0,1.2,0.1,1.7,0.2c0.5,0.1,1,0.3,1.4,0.6c0.4,0.3,0.7,0.6,0.9,1.1
		c0.2,0.4,0.3,1,0.3,1.6c0,0.7-0.2,1.3-0.5,1.7c-0.3,0.5-0.8,0.8-1.4,1.1c0.8,0.2,1.4,0.7,1.8,1.3c0.4,0.6,0.6,1.4,0.6,2.2
		c0,0.7-0.1,1.3-0.4,1.8c-0.2,0.5-0.6,0.9-1.1,1.2c-0.5,0.3-1,0.6-1.5,0.7c-0.6,0.2-1.2,0.2-1.8,0.2h-6.5V19.2
		C33.8,19.2,40.1,19.2,40.1,19.2z M39.9,26.8h-3.2v3.8h3.2c0.3,0,0.6,0,0.8-0.1c0.3-0.1,0.5-0.2,0.7-0.3c0.2-0.1,0.4-0.3,0.5-0.6
		c0.1-0.2,0.2-0.5,0.2-0.9c0-0.7-0.2-1.2-0.6-1.5C41.1,27,40.6,26.8,39.9,26.8L39.9,26.8z M39.5,21.6h-2.8v3.2h3
		c0.5,0,1-0.1,1.3-0.4c0.3-0.3,0.5-0.7,0.5-1.3c0-0.3-0.1-0.6-0.2-0.8c-0.1-0.2-0.3-0.4-0.5-0.5c-0.2-0.1-0.4-0.2-0.6-0.2
		C40,21.6,39.8,21.6,39.5,21.6z M18.6,13c1.2,0,2.2,1,2.2,2.2c0,1.2-1,2.2-2.2,2.2c-1.2,0-2.2-1-2.2-2.2C16.4,14,17.3,13,18.6,13
		L18.6,13z M29.4,13c1.2,0,2.2,1,2.2,2.2c0,0,0,0,0,0c0,1.2-1,2.2-2.2,2.2c-1.2,0-2.2-1-2.2-2.2C27.2,14,28.2,13,29.4,13z"/>
</g>
</svg>
