<?xml version="1.0" encoding="utf-8"?>
<!-- Generator: Adobe Illustrator 24.2.1, SVG Export Plug-In . SVG Version: 6.00 Build 0)  -->
<svg version="1.1" id="圖層_1" xmlns="http://www.w3.org/2000/svg" xmlns:xlink="http://www.w3.org/1999/xlink" x="0px" y="0px"
	 viewBox="0 0 48 48" style="enable-background:new 0 0 48 48;" xml:space="preserve">
<style type="text/css">
	.st0{fill:#E1091D;stroke:#E1091D;stroke-width:0.5;}
</style>
<path class="st0" d="M11.3,5c0.9,0,2.1,0.2,2.1,1l0,15.9h3.9V6c0-0.9,1.3-1,2.1-1h0.7c0.8,0,2.1,0.2,2.1,1v15.9h3.8V6
	c0-0.9,1.3-1,2.1-1h0.6c0.8,0,2.1,0.2,2.1,1v15.9h3.9V6c0-0.9,1.3-1,2.1-1h0.6c0.9,0,2.2,0.1,2.1,1v15.9h5.4c1,0,1.2,1.1,1.2,1.8
	l0,0.1v0.4c0,0.7-0.1,1.9-1.2,1.9h-5.4V42c0,0.2,0,0.8-1.7,1l-0.2,0h-0.6c-0.8,0-2.2-0.1-2.2-1l0-15.9h-3.9V42c0,0.2-0.1,0.8-1.7,1
	l-0.2,0h-0.6c-0.8,0-2.2-0.1-2.2-1l0-15.9h-3.8V42c0,0.2-0.1,0.8-1.7,1l-0.2,0h-0.8c-0.8,0-2.2-0.1-2.2-1l0-15.9h-3.9v15.9
	c0,0.3-0.1,0.8-1.7,0.9l-0.2,0h-0.6c-0.8,0-2.2-0.1-2.2-1V26.1H3.2c-0.2,0-1,0-1.1-1.5l0-0.2l0-0.8c0-0.7,0.2-1.8,1.2-1.8l5.4,0V6
	c0-0.9,1.2-1,2.1-1H11.3z"/>
</svg>
