<?xml version="1.0" encoding="utf-8"?>
<!-- Generator: Adobe Illustrator 24.2.1, SVG Export Plug-In . SVG Version: 6.00 Build 0)  -->
<svg version="1.1" id="圖層_1" xmlns="http://www.w3.org/2000/svg" xmlns:xlink="http://www.w3.org/1999/xlink" x="0px" y="0px"
	 viewBox="0 0 20 20" style="enable-background:new 0 0 20 20;" xml:space="preserve">
<style type="text/css">
	.st0{fill:#867181;}
</style>
<g>
	<path class="st0" d="M7.6,13.5H3H2.9H2.8c-0.3,0.1-0.6,0.4-0.6,0.8c0,0.4,0.4,0.8,0.8,0.8h4.6h0.1h0.1c0.3-0.1,0.6-0.4,0.6-0.8
		C8.4,13.9,8,13.5,7.6,13.5z"/>
	<path class="st0" d="M11.1,13.5H10H9.9H9.8c-0.4,0.1-0.6,0.4-0.6,0.8c0,0.4,0.4,0.8,0.8,0.8h1.1h0.1h0.1c0.4-0.1,0.6-0.4,0.6-0.8
		C11.9,13.9,11.5,13.5,11.1,13.5z"/>
	<path class="st0" d="M17.6,3.1H2.4H2.3H2.2C1,3.3,0.2,4.3,0.2,5.4v9.6V15v0.1c0.1,1.2,1.1,2.1,2.3,2.1h15.2h0.1h0.1
		c1.2-0.1,2.1-1.1,2.1-2.3V5.4V5.3V5.2C19.8,4,18.8,3.1,17.6,3.1z M18.4,15L18.4,15c-0.1,0.4-0.4,0.7-0.8,0.7H2.5H2.4H2.3
		c-0.3-0.1-0.6-0.4-0.6-0.8v-3.4h16.5L18.4,15L18.4,15z M18.4,10H1.7V8.1h16.5h0.1V10z M18.4,6.6H1.7V5.5V5.4V5.3
		c0.1-0.4,0.4-0.6,0.7-0.6h15.2c0.4,0,0.7,0.3,0.8,0.7V6.6z"/>
</g>
</svg>
