<?xml version="1.0" encoding="utf-8"?>
<!-- Generator: Adobe Illustrator 24.2.1, SVG Export Plug-In . SVG Version: 6.00 Build 0)  -->
<svg version="1.1" id="圖層_1" xmlns="http://www.w3.org/2000/svg" xmlns:xlink="http://www.w3.org/1999/xlink" x="0px" y="0px"
	 viewBox="0 0 20 20" style="enable-background:new 0 0 20 20;" xml:space="preserve">
<style type="text/css">
	.st0{fill-rule:evenodd;clip-rule:evenodd;fill:#867181;}
</style>
<path class="st0" d="M16.4,12c-0.9-0.9-1.9-1.5-3.1-1.9c1.2-1,2-2.4,2-4C15.3,3.3,12.9,1,10,1S4.7,3.3,4.7,6.1c0,1.5,0.7,3,2,4
	c-1.1,0.4-2.2,1.1-3.1,1.9C1.9,13.6,1,15.8,1,18.1c0,0.4,0.3,0.7,0.7,0.8h16.6c0.4-0.1,0.7-0.4,0.7-0.8C19,15.8,18.1,13.6,16.4,12z
	 M6.5,6.1c0-1.9,1.6-3.4,3.5-3.4s3.5,1.5,3.5,3.4c0,1.9-1.6,3.4-3.5,3.4S6.5,7.9,6.5,6.1z M2.8,17.3c0.5-3.5,3.5-6.1,7.2-6.1
	s6.7,2.7,7.2,6.1H2.8z"/>
</svg>
