<?xml version="1.0" encoding="utf-8"?>
<!-- Generator: Adobe Illustrator 24.2.1, SVG Export Plug-In . SVG Version: 6.00 Build 0)  -->
<svg version="1.1" id="圖層_1" xmlns="http://www.w3.org/2000/svg" xmlns:xlink="http://www.w3.org/1999/xlink" x="0px" y="0px"
	 viewBox="0 0 20 20" style="enable-background:new 0 0 20 20;" xml:space="preserve">
<style type="text/css">
	.st0{fill:#867181;}
</style>
<g>
	<path class="st0" d="M19.1,15.7h-1.6V3.4V3.2c-0.1-1.7-1.5-3.1-3.3-3.1H3.4H3.2C1.5,0.2,0.2,1.6,0.2,3.4v0.1v0.1
		C0.2,4,0.6,4.3,1,4.3H5v12.3v0.2c0.1,1.7,1.5,3.1,3.3,3.1h8.4h0.2c1.7-0.1,3.1-1.5,3.1-3.3v-0.1v-0.1C19.8,16,19.5,15.7,19.1,15.7z
		 M2.1,2.5c0.3-0.4,0.8-0.7,1.3-0.7h0.1C4,1.9,4.4,2.1,4.7,2.5H2.1z M10.6,15.7c-0.5,0.1-0.8,0.5-0.8,0.9v0.1
		c-0.1,0.8-0.8,1.4-1.6,1.4c-0.9,0-1.6-0.7-1.6-1.6V3.3V3.1c0-0.4-0.1-0.7-0.3-1.1L6.3,1.8h8c0,0,0.1,0,0.2,0
		c0.8,0.1,1.4,0.8,1.4,1.6v12.3H10.6L10.6,15.7z M16.6,18.2h-5.5l0.1-0.2c0.1-0.2,0.2-0.3,0.2-0.5h6.5
		C17.6,17.9,17.1,18.2,16.6,18.2z"/>
	<path class="st0" d="M11.6,8.1c-0.3,0-0.5-0.2-0.5-0.3c0,0,0.2-0.2,0.5-0.2c0.2,0,0.3,0,0.4,0.1c0.3,0.2,0.8,0.1,1.1-0.2
		c0.1-0.2,0.1-0.4,0.1-0.6c0-0.2-0.2-0.4-0.4-0.5l-0.5-0.3V5.7c0-0.1,0-0.3-0.1-0.4C12.1,5.1,11.8,5,11.6,5c-0.5,0-0.7,0.4-0.7,0.7
		v0.6c-0.7,0.3-1.3,0.9-1.3,1.6c0,0.9,0.9,1.7,2,1.7c0.3,0,0.5,0.1,0.5,0.2c0,0-0.2,0.2-0.5,0.2c-0.2,0-0.3,0-0.4-0.1
		c-0.3-0.2-0.8-0.1-1.1,0.2c-0.1,0.2-0.2,0.4-0.1,0.6c0,0.2,0.2,0.4,0.3,0.5l0.5,0.3V12c0,0.5,0.4,0.7,0.7,0.7
		c0.4,0,0.7-0.4,0.7-0.7v-0.6c0.7-0.3,1.3-0.9,1.3-1.6C13.6,8.8,12.7,8.1,11.6,8.1z"/>
</g>
</svg>
