<?xml version="1.0" encoding="utf-8"?>
<!-- Generator: Adobe Illustrator 24.2.1, SVG Export Plug-In . SVG Version: 6.00 Build 0)  -->
<svg version="1.1" id="圖層_1" xmlns="http://www.w3.org/2000/svg" xmlns:xlink="http://www.w3.org/1999/xlink" x="0px" y="0px"
	 viewBox="0 0 20 20" style="enable-background:new 0 0 20 20;" xml:space="preserve">
<style type="text/css">
	.st0{fill:#867181;}
</style>
<path class="st0" d="M19.1,9.5h-0.4V6.7V6.6V6.5c-0.1-0.3-0.4-0.6-0.8-0.6h-0.4V4.3V4.2V4.1c-0.1-0.3-0.4-0.6-0.8-0.6h-1.9l-1-2.1
	C13.5,1,13.1,0.9,12.7,1l-1.2,0.6l-0.1-0.2l-0.1-0.1l-0.1-0.1c-0.2-0.3-0.6-0.4-1-0.2L5.6,3.4H2.1H2c-1,0.1-1.9,1-1.9,2.1v10.9v0.1
	c0.1,1,1,1.9,2.1,1.9h15.7H18h0.1c0.3-0.1,0.6-0.4,0.6-0.8v-2.8h0.4h0.1c0.4-0.1,0.7-0.5,0.7-0.9v-3.7v-0.1v-0.1
	C19.8,9.8,19.5,9.5,19.1,9.5z M12.7,3l1.4,2.9h-0.5l-1.3-2.7L12.7,3z M10.2,3l1.5,2.9H4.6L10.2,3z M17.1,17H2.2H2.1
	c-0.2-0.1-0.3-0.2-0.3-0.4v-9c0.1,0,0.3,0,0.4,0h14.9v2h-2.2h-0.2c-1.4,0.1-2.5,1.3-2.5,2.7v0.2c0.1,1.4,1.3,2.5,2.7,2.5h2.2V17z
	 M18.3,13.3h-3.4h-0.1c-0.5-0.1-0.9-0.5-0.9-1v-0.1c0.1-0.5,0.5-0.9,1-0.9h3.4V13.3z"/>
</svg>
