<?xml version="1.0" encoding="utf-8"?>
<!-- Generator: Adobe Illustrator 24.2.1, SVG Export Plug-In . SVG Version: 6.00 Build 0)  -->
<svg version="1.1" xmlns="http://www.w3.org/2000/svg" xmlns:xlink="http://www.w3.org/1999/xlink" x="0px" y="0px"
	 viewBox="0 0 48 48" style="enable-background:new 0 0 48 48;" xml:space="preserve">
<style type="text/css">
	.st0{fill:#00C056;}
	.st1{fill:#FEFEFE;}
	.st2{fill:#03C157;}
	.st3{fill:#01C056;}
	.st4{display:none;}
	.st5{display:inline;}
	.st6{fill:#E90000;}
</style>
<g id="圖層_1">
	<g>
		<path class="st0" d="M24.1,20.2c5.9,0,11.9,0,17.8,0c1.5,0,1.9,0.4,1.9,1.9c0,7,0,14,0,21c0,1.5-0.5,2-2,2C30,45,18,45,6.1,45
			c-1.5,0-2-0.4-2-2c0-7,0-14,0-21c0-1.5,0.4-1.9,1.9-1.9C12.1,20.2,18.1,20.2,24.1,20.2z"/>
		<path d="M23.6,8.3c0,2.2,0,4.2,0,6.1c0,1.4,0,1.4-1.4,1.4c-1.7,0-1.7,0.3-1.7-1.7c0-3.3,0-6.7,0-10c0-0.9,0.3-1,1.1-1.1
			c1.4-0.1,2.3,0.4,3.1,1.6c1.1,1.9,2.5,3.6,3.9,5.7c0-2.2,0.1-4.2,0-6.2c0-0.9,0.3-1.1,1.1-1.1c2.1,0.1,1.8-0.3,1.8,1.9
			c0,3.2,0,6.5,0,9.7c0,0.8-0.2,1.1-1.1,1.2c-1.3,0.1-2-0.4-2.7-1.4C26.6,12.4,25.2,10.5,23.6,8.3z"/>
		<path d="M33.6,9.4c0-1.8,0-3.6,0-5.4c0-0.7,0.2-0.9,0.9-0.9c2.3,0,4.6,0,6.9,0c0.7,0,0.9,0.2,0.9,0.8c0,2.3,0.2,2.1-2,2.1
			c-0.9,0-1.9,0.1-2.8,0c-0.9-0.1-0.7,0.5-0.8,1c0,0.6,0,1,0.8,1c1.2-0.1,2.5,0,3.7,0c0.7,0,1.1,0.2,1.1,1c-0.1,2.2,0.3,2-2,2
			c-1,0-2,0-3,0c-0.9,0-0.6,0.6-0.6,1c0,0.4-0.3,1,0.6,1c1.3,0,2.7,0,4,0c0.7,0,1,0.2,1,1c-0.1,2.3,0.2,2-2,2c-1.9,0-3.8,0-5.6,0
			c-0.8,0-1-0.3-1-1.1C33.6,13,33.6,11.2,33.6,9.4z"/>
		<path d="M5.5,9.3c0-1.8,0-3.6,0-5.3c0-0.7,0.1-1,0.9-0.9c2.4,0.1,2.1-0.4,2.1,2c0,2.3,0,4.6,0,6.9c0,0.6,0.2,0.8,0.8,0.8
			c1.3,0,2.6,0,3.8,0c0.7,0,1,0.3,1,1c0,2.3,0.1,2-1.9,2c-1.9,0-3.9,0-5.8,0c-0.7,0-0.9-0.2-0.9-0.9C5.5,13.1,5.5,11.2,5.5,9.3z"/>
		<path d="M15.7,9.3c0-1.8,0-3.6,0-5.4c0-0.6,0.2-0.8,0.8-0.8c2.2,0,2.2-0.1,2.2,2.1c0,3.2,0,6.3,0,9.5c0,1-0.3,1.2-1.2,1.2
			c-2-0.1-1.8,0.2-1.8-1.9C15.6,12.4,15.7,10.9,15.7,9.3z"/>
		<path class="st1" d="M10,31.7c0-1.6,0-3.2,0-4.8c0-0.7,0.2-0.9,0.9-0.9c1.2,0,2.5,0,3.7,0c2.1,0.1,3.7,1.7,3.8,3.8
			c0.1,2-1.5,3.8-3.6,4.1c-0.1,0-0.1,0-0.2,0c-2,0.1-2,0.1-2,2.1c0,0.5,0.3,1.1-0.2,1.4c-0.6,0.3-1.4,0.2-2.1,0.1
			C9.9,37.4,10,37,10,36.6C10,35,10,33.3,10,31.7z"/>
		<path class="st1" d="M28.2,33.3c0,1.2,0,2.4,0,3.5c0,0.5-0.2,0.8-0.7,0.7C26.9,37.3,26,38,25.6,37c-0.1-0.1-0.2,0-0.3,0.1
			c-3.2,1.5-6.2-0.4-6-3.9c0.1-3.3,3.1-5,6-3.5c0.1,0.1,0.2,0.1,0.4,0.1c0.3-1,1.1-0.4,1.7-0.5c0.7-0.2,0.9,0.2,0.9,0.9
			C28.1,31.2,28.2,32.3,28.2,33.3z"/>
		<path class="st1" d="M34.5,34.2c0.6-1.5,1.1-2.8,1.6-4.1c0.3-0.7,2.1-1.2,2.7-0.8c0.2,0.2,0.1,0.3,0,0.5c-1.4,3.5-2.8,7-4.1,10.5
			c-0.3,0.8-1,0.4-1.6,0.5c-1.3,0.1-1.4,0-0.8-1.1c0.8-1.5,0.7-2.8,0-4.3c-0.8-1.7-1.5-3.5-2.2-5.3c-0.3-0.6-0.2-0.8,0.5-0.8
			c1.7,0,1.7,0,2.4,1.5C33.5,31.9,34,32.9,34.5,34.2z"/>
		<path class="st2" d="M12.6,29.9c0.1-0.6-0.4-1.6,1-1.5c1.5,0.1,2.1,0.5,2.1,1.5c0,1-0.7,1.4-2.1,1.5
			C12.2,31.6,12.7,30.6,12.6,29.9z"/>
		<path class="st3" d="M25.7,33.4c0,1.2-0.8,2-1.9,2c-1.2,0-2-0.8-2-2c0-1.2,0.8-2,2-1.9C24.9,31.4,25.7,32.2,25.7,33.4z"/>
	</g>
</g>
<g id="圖層_2" class="st4">
	<g class="st5">
		<path class="st6" d="M44.9,11.3c-0.3-1.9-1.1-3.6-2.4-5.1c-2-2.2-4.4-3.2-7.3-3.2C31.4,3,27.7,3,24,3c-3.7,0-7.4,0-11.2,0
			c-0.8,0-1.5,0.1-2.3,0.2C6.2,4.3,3,8.2,3,12.7c0,7.5,0,15.1,0,22.6c0,0.7,0.1,1.3,0.2,2c1,4.5,4.9,7.7,9.5,7.7c7.5,0,15,0,22.5,0
			c1,0,2.1-0.2,3.1-0.5c4-1.3,6.7-5,6.7-9.3c0-7.5,0-14.9,0-22.4C45,12.4,45,11.8,44.9,11.3z M41.6,38.8c-1.2,2-2.9,3.2-5.2,3.6
			c-0.4,0.1-0.7,0.1-1.1,0.1c-7.5,0-15.1,0-22.6,0c-3.2,0-6-2.2-6.9-5.2c-0.2-0.6-0.3-1.2-0.3-1.8c0-1.5,0-3.1,0-4.6
			c0-6,0-11.9,0-17.9c0-1.6,0.4-3.1,1.4-4.4C8.1,6.9,9.6,6,11.6,5.6c0.4-0.1,0.7-0.1,1.1-0.1c7.5,0,15.1,0,22.6,0
			c2.7,0,4.7,1.2,6.1,3.5c0.6,1,0.9,2.1,1,3.2c0,0.3,0,0.5,0,0.8c0,3.7,0,7.3,0,11c0,3.7,0,7.3,0,11C42.5,36.4,42.2,37.6,41.6,38.8z
			"/>
		<path class="st6" d="M32.6,20.6c2.1,0,4.2,0,6.3,0c0.2,0,0.4,0,0.5,0.1c0.5,0.1,0.8,0.6,0.8,1.1c0,0.3,0,0.6,0,0.9
			c0,0.6-0.5,1.1-1.1,1.1c-0.2,0-0.3,0-0.5,0c-0.9,0-1.9,0-2.8,0c-0.1,0-0.2,0-0.3,0c-0.4,0-0.7,0.3-0.7,0.7c0,0.1,0,0.2,0,0.3
			c0,4,0,8.1,0,12.1c0,0.2,0,0.4-0.1,0.6c-0.2,0.4-0.6,0.7-1,0.7c-0.3,0-0.6,0-0.9,0c-0.6,0-1.1-0.5-1.2-1.1c0-0.1,0-0.2,0-0.4
			c0-4,0-7.9,0-11.9c0-0.1,0-0.2,0-0.3c0.1-0.4-0.3-0.9-0.9-0.8c-1.6,0-3.2,0-4.7,0c-0.6,0-0.9,0.4-0.9,0.8c0,0.3,0,0.7,0,1
			c0,0.6,0.4,0.9,0.9,0.9c0.6,0,1.3,0,1.9,0c0.7,0,1.3,0.5,1.3,1.3c0,0.2,0,0.5,0,0.7c0,0.7-0.5,1.2-1.2,1.2c-0.7,0-1.4,0-2.1,0
			c-0.4,0-0.9,0.3-0.8,0.8c0,0.3,0,0.6,0,0.9c0,0.6,0.5,0.9,1,0.7c0.6-0.3,1.2-0.5,1.7-0.8c0.6-0.3,1.5,0,1.7,0.7
			c0.1,0.3,0.2,0.7,0.3,1c0.1,0.4,0,0.7-0.3,1c-0.2,0.2-0.4,0.3-0.6,0.5c-1.8,1.3-3.8,2.1-5.9,2.6c-1.1,0.3-2.2,0.5-3.3,0.7
			c-0.7,0.1-1.3,0.2-2,0.1c-0.6-0.1-1-0.3-1.1-0.9c-0.1-0.3-0.1-0.5-0.2-0.8c-0.2-0.8,0.3-1.4,1-1.5c1.3-0.3,2.5-0.5,3.8-0.8
			c0.4-0.1,0.6-0.3,0.6-0.8c0-0.8,0-1.7,0-2.5c0-0.5-0.3-0.8-0.8-0.8c-0.7,0-1.4,0-2.1,0c-0.7,0-1.3-0.5-1.3-1.3c0-0.2,0-0.5,0-0.7
			c0-0.6,0.5-1.1,1.2-1.2c0.7,0,1.5,0,2.2,0c0.5,0,0.9-0.4,0.8-0.8c0-0.4,0-0.8,0-1.2c0-0.5-0.3-0.8-0.8-0.8c-0.7,0-1.5,0-2.2,0
			c-0.5,0-0.9-0.2-1.1-0.7c-0.2-0.4-0.2-1.5,0-1.8c0.2-0.5,0.6-0.7,1.1-0.7c0.7,0,1.3,0,2,0c0.1,0,0.2,0,0.3,0
			c0.4,0,0.7-0.3,0.7-0.7c0-0.5,0-1,0-1.6c0-0.4-0.3-0.7-0.7-0.7c-0.3,0-0.5,0-0.8,0c-0.5,0-1,0-1.5,0c-0.7,0-1.2-0.5-1.2-1.2
			c0-0.2,0-0.5,0-0.7c0-0.7,0.5-1.2,1.2-1.2c0.7,0,1.4,0,2.1,0c0.6,0,0.9-0.3,0.9-0.9c0-0.8,0-1.6,0-2.4c0-0.6,0.5-1.3,1.3-1.3
			c0.2,0,0.5,0,0.7,0c0.7,0,1.2,0.5,1.2,1.2c0,0.8,0,1.6,0,2.5c0,0.5,0.3,0.8,0.8,0.8c0.7,0,1.3,0,2,0c0.8,0,1.4,0.6,1.3,1.3
			c0,0.2,0,0.5,0,0.7c0,0.6-0.5,1.1-1.2,1.1c-0.7,0-1.4,0-2.1,0c-0.1,0-0.2,0-0.4,0c-0.3,0.1-0.5,0.3-0.5,0.6c0,0.5,0,1.1,0,1.6
			c0,0.4,0.3,0.6,0.7,0.7c0.1,0,0.2,0,0.4,0C28.5,20.6,30.6,20.6,32.6,20.6z"/>
		<path class="st6" d="M12,26.1c-0.5,0.3-0.9,0.5-1.3,0.7c-0.3,0.2-0.6,0.3-0.9,0.4c-0.4,0.1-0.8,0-1.1-0.3
			c-0.3-0.3-0.5-0.6-0.8-0.9c-0.2-0.3-0.4-0.6-0.3-1c0-0.2,0.2-0.4,0.4-0.6c1.1-0.7,2.1-1.4,3.1-2.2c1-0.7,1.8-1.6,2.5-2.6
			c0.5-0.6,1-1.3,1.5-1.9c0.3-0.4,0.6-0.5,1.1-0.3c0.2,0.1,0.4,0.2,0.6,0.4c0.2,0.3,0.5,0.5,0.7,0.8c0.3,0.3,0.3,0.7,0.2,1.1
			c-0.1,0.4-0.3,0.7-0.5,1.1c-0.5,0.9-1.2,1.7-1.9,2.5c-0.1,0.1-0.2,0.3-0.2,0.5c0,4.3,0,8.7,0,13c0,0.2,0,0.4,0,0.6
			c-0.1,0.6-0.6,1-1.1,1c-0.3,0-0.6,0-0.9,0c-0.5,0-1-0.4-1.1-0.9c0-0.2,0-0.4,0-0.5c0-3.4,0-6.9,0-10.3C12,26.4,12,26.2,12,26.1z"
			/>
		<path class="st6" d="M17.9,11.7c0,0.3-0.1,0.6-0.2,0.9c-0.4,0.9-1,1.7-1.6,2.4c-1.5,1.7-3.2,3.1-5.3,4.1c-0.2,0.1-0.5,0.2-0.7,0.3
			c-0.4,0.1-0.7,0-0.9-0.2c-0.3-0.3-0.6-0.7-0.9-1C8,18,8,17.8,7.9,17.6c-0.1-0.4,0.1-0.7,0.4-0.9c1.2-0.8,2.4-1.6,3.5-2.5
			c0.7-0.6,1.3-1.3,1.9-2c0.6-0.7,1.1-1.3,1.6-2.1c0.2-0.3,0.6-0.4,0.9-0.3c0.2,0.1,0.5,0.2,0.6,0.4c0.3,0.3,0.5,0.6,0.8,0.9
			C17.8,11.2,17.9,11.4,17.9,11.7z"/>
		<path class="st6" d="M36.2,12.3c-0.2-1.5-1.5-2.5-2.8-2.5c-0.1,0-0.3,0-0.4,0c-0.2,0-0.3,0.1-0.5,0.1c-1.1,0.4-1.9,1.4-2,2.6
			c0,0.6,0.1,1.2,0.3,1.8c0.5,1.5,1.2,2.8,1.9,4.2c0.1,0.2,0.2,0.4,0.3,0.6c0.2,0.3,0.5,0.3,0.7,0c0,0,0-0.1,0.1-0.1
			c0.5-0.9,1-1.8,1.4-2.7c0.3-0.7,0.6-1.4,0.8-2.1C36.2,13.5,36.3,12.9,36.2,12.3z M33.4,14.1c-0.7,0-1.3-0.6-1.4-1.3
			c0-0.8,0.6-1.4,1.4-1.4c0.8,0,1.3,0.6,1.4,1.3C34.7,13.5,34.1,14.1,33.4,14.1z"/>
	</g>
</g>
</svg>
