<?xml version="1.0" encoding="utf-8"?>
<!-- Generator: Adobe Illustrator 24.2.1, SVG Export Plug-In . SVG Version: 6.00 Build 0)  -->
<svg version="1.1" id="圖層_1" xmlns="http://www.w3.org/2000/svg" xmlns:xlink="http://www.w3.org/1999/xlink" x="0px" y="0px"
	 viewBox="0 0 24 24" style="enable-background:new 0 0 24 24;" xml:space="preserve">
<style type="text/css">
	.st0{fill-rule:evenodd;clip-rule:evenodd;fill:#FFFFFF;}
	.st1{fill-rule:evenodd;clip-rule:evenodd;fill:#DC0032;}
	.st2{fill-rule:evenodd;clip-rule:evenodd;fill:#0D1E7E;}
</style>
<g>
	<path class="st0" d="M0,18.9h23.9V4H0V18.9z"/>
	<path class="st1" d="M23.3,4l-9,5.4H16l7.9-4.7V4H23.3z M15.6,13.8l8.3,4.9v-1l-6.6-3.9H15.6z M0,5.1l7.1,4.2h1.7L0,4.1V5.1z
		 M8.3,13.8l-8.3,5v0.1h1.5l8.5-5.1H8.3z"/>
	<path class="st2" d="M13.9,4v5l8.4-5H13.9z M1.9,4l8.3,5V4H1.9z M18.2,9.4h5.7V6L18.2,9.4z M18.2,13.8l5.7,3.4v-3.4H18.2z
		 M2.3,18.9h7.9v-4.7L2.3,18.9z M13.9,18.9h7.9l-7.9-4.7V18.9z M0,13.8v3.5l5.9-3.5H0z M0,9.4h5.9L0,5.8V9.4z"/>
	<path class="st1" d="M10.9,4v6.3H0v2.7h10.9v6h2.2v-6h10.7v-2.7H13.1V4H10.9z"/>
</g>
</svg>
