<?xml version="1.0" encoding="utf-8"?>
<!-- Generator: Adobe Illustrator 24.2.1, SVG Export Plug-In . SVG Version: 6.00 Build 0)  -->
<svg version="1.1" id="圖層_1" xmlns="http://www.w3.org/2000/svg" xmlns:xlink="http://www.w3.org/1999/xlink" x="0px" y="0px"
	 viewBox="0 0 24 24" style="enable-background:new 0 0 24 24;" xml:space="preserve">
<style type="text/css">
	.st0{fill-rule:evenodd;clip-rule:evenodd;fill:#D4BDCA;}
</style>
<g>
	<path class="st0" d="M16.1,7.4c0,2.3-1.9,4.2-4.2,4.2S7.7,9.7,7.7,7.4s1.9-4.2,4.2-4.2S16.1,5.1,16.1,7.4 M15.9,12.4
		c1.5-1.2,2.4-3.1,2.4-5c0-3.5-2.9-6.4-6.4-6.4S5.5,3.9,5.5,7.4c0,1.9,0.9,3.8,2.4,5c-1.4,0.5-2.6,1.4-3.7,2.4
		C2.1,16.9,1,19.6,1,22.6c0,0.6,0.5,1.1,1.1,1.1c0.5,0,0.9-0.4,1.1-0.9h0v-0.2c0-4.8,3.9-8.7,8.7-8.7c4.8,0,8.7,3.9,8.7,8.7l0,0.2h0
		c0.1,0.5,0.5,0.9,1.1,0.9c0.6,0,1.1-0.5,1.1-1.1l0,0c0-2.9-1.1-5.6-3.2-7.7C18.5,13.8,17.3,13,15.9,12.4L15.9,12.4z"/>
</g>
</svg>
