<?xml version="1.0" encoding="utf-8"?>
<!-- Generator: Adobe Illustrator 24.2.1, SVG Export Plug-In . SVG Version: 6.00 Build 0)  -->
<svg version="1.1" id="圖層_1" xmlns="http://www.w3.org/2000/svg" xmlns:xlink="http://www.w3.org/1999/xlink" x="0px" y="0px"
	 viewBox="0 0 24 24" style="enable-background:new 0 0 24 24;" xml:space="preserve">
<style type="text/css">
	.st0{fill:#D4BDCA;}
</style>
<g>
	<path class="st0" d="M14.9,15.4c-0.5,0-1,0.4-1,1v1.4c0,0.5-0.4,0.8-0.9,0.8h-2.7V4.7C10.4,3.8,9.8,3,9,2.8L8.7,2.6h4.5
		C13.7,2.6,14,3,14,3.5v1.4c0,0.5,0.4,1,1,1s1-0.4,1-1V3.5c0-1.5-1.2-2.8-2.8-2.8H2.8l0,0c-1.2,0.1-2,1-2,2v16.5
		c0,0.9,0.6,1.7,1.4,1.9L7.6,23c0.3,0.2,0.5,0.2,0.7,0.2c1.1,0,2.1-0.9,2.1-2.1v-0.6h2.7c1.5,0,2.8-1.2,2.8-2.8v-1.4
		C15.8,15.9,15.4,15.4,14.9,15.4z M8.5,4.6v16.5c0,0.1,0,0.1-0.1,0.1c-0.1,0-0.1,0-0.2,0l-5.5-1.8c-0.2-0.1-0.2-0.1-0.2-0.2V2.8
		c0-0.1,0.1-0.2,0.1-0.2H3l5.4,1.8C8.5,4.5,8.5,4.5,8.5,4.6z"/>
	<path class="st0" d="M23,10.1l-3.4-3.4c-0.4-0.5-1-0.5-1.3-0.3l0,0C18,6.7,17.9,7,17.9,7.2s0.1,0.5,0.3,0.7l1.9,1.9h-6.4
		c-0.5,0-1,0.4-1,1s0.4,0.9,1,0.9h6.4l-1.9,1.9c-0.2,0.2-0.3,0.4-0.3,0.7s0.1,0.5,0.3,0.7c0.1,0.1,0.4,0.3,0.7,0.3
		c0.3,0,0.5-0.1,0.7-0.3l3.4-3.4C23.4,11.1,23.4,10.5,23,10.1z"/>
</g>
</svg>
