<?xml version="1.0" encoding="utf-8"?>
<!-- Generator: Adobe Illustrator 24.2.1, SVG Export Plug-In . SVG Version: 6.00 Build 0)  -->
<svg version="1.1" id="圖層_1" xmlns="http://www.w3.org/2000/svg" xmlns:xlink="http://www.w3.org/1999/xlink" x="0px" y="0px"
	 viewBox="0 0 24 24" style="enable-background:new 0 0 24 24;" xml:space="preserve">
<style type="text/css">
	.st0{fill:#D4BDCA;}
</style>
<path class="st0" d="M21,3.9H3c-1.2,0-2.1,0.9-2.1,1.9v12.3c0,1,0.9,1.9,2.1,1.9h18c1.2,0,2.1-0.9,2.1-1.9V5.8
	C23.1,4.8,22.2,3.9,21,3.9z M12,11.9L4.5,5.8h15L12,11.9z M21,7.2v11H3v-11l8.3,6.8c0.1,0.1,0.3,0.2,0.7,0.2c0.3,0,0.5-0.1,0.8-0.2
	L21,7.2z"/>
</svg>
