<?xml version="1.0" encoding="utf-8"?>
<!-- Generator: Adobe Illustrator 24.2.1, SVG Export Plug-In . SVG Version: 6.00 Build 0)  -->
<svg version="1.1" id="圖層_1" xmlns="http://www.w3.org/2000/svg" xmlns:xlink="http://www.w3.org/1999/xlink" x="0px" y="0px"
	 viewBox="0 0 24 24" style="enable-background:new 0 0 24 24;" xml:space="preserve">
<style type="text/css">
	.st0{fill:#D4BDCA;}
</style>
<g>
	<path class="st0" d="M12,0.9C5.9,0.9,0.9,5.9,0.9,12s5,11.1,11.1,11.1c6.1,0,11.1-5,11.1-11.1S18.1,0.9,12,0.9z M12,21.5
		c-5.2,0-9.5-4.3-9.5-9.5c0-5.2,4.3-9.5,9.5-9.5s9.5,4.3,9.5,9.5C21.5,17.2,17.2,21.5,12,21.5z"/>
	<path class="st0" d="M12,4.3c-4.3,0-7.7,3.5-7.7,7.7c0,4.3,3.5,7.7,7.7,7.7s7.7-3.5,7.7-7.7C19.7,7.7,16.3,4.3,12,4.3z M12,18.2
		c-3.4,0-6.2-2.8-6.2-6.2S8.6,5.8,12,5.8c3.4,0,6.2,2.8,6.2,6.2S15.4,18.2,12,18.2z"/>
	<path class="st0" d="M13.1,10.1L13.1,10.1c0.1,0.4,0.4,0.7,0.9,0.7c0.5,0,0.8-0.4,0.8-0.7c0-1-0.8-1.8-1.8-2V7.7
		C13,7.4,12.7,7,12.2,7s-0.8,0.4-0.8,0.7v0.4c-1.1,0.1-1.9,1-1.9,2c0,0.7,0.5,1.5,1.3,1.9l0.6,0.3v2.2c-0.2-0.2-0.4-0.4-0.4-0.7
		v-0.3c0-0.3-0.3-0.7-0.8-0.7s-0.8,0.4-0.8,0.7v0.3c0,1.1,0.8,2,1.9,2.4v0.5c0,0.3,0.3,0.7,0.8,0.7s0.8-0.4,0.8-0.7v-0.5
		c1-0.3,1.8-1.3,1.8-2.3c0-1-0.6-1.9-1.5-2.3l-0.3-0.2V9.7C13,9.7,13.1,9.9,13.1,10.1z M12.9,13c0.1,0.2,0.2,0.4,0.2,0.7l0,0
		c0.1,0.2,0,0.4-0.2,0.6V13z M11.4,9.6c0,0.2,0,0.4,0,1c-0.2-0.1-0.3-0.4-0.3-0.5C11.1,9.9,11.2,9.7,11.4,9.6z"/>
</g>
</svg>
