<?xml version="1.0" encoding="utf-8"?>
<!-- Generator: Adobe Illustrator 24.2.1, SVG Export Plug-In . SVG Version: 6.00 Build 0)  -->
<svg version="1.1" id="圖層_1" xmlns="http://www.w3.org/2000/svg" xmlns:xlink="http://www.w3.org/1999/xlink" x="0px" y="0px"
	 viewBox="0 0 24 24" style="enable-background:new 0 0 24 24;" xml:space="preserve">
<style type="text/css">
	.st0{fill:#DF0785;}
</style>
<g>
	<path class="st0" d="M4,6.7h16c0.7,0,1.2-0.6,1.2-1.2S20.7,4.2,20,4.2H4c-0.7,0-1.2,0.6-1.2,1.2S3.3,6.7,4,6.7z"/>
	<path class="st0" d="M20,16.3H4c-0.7,0-1.2,0.6-1.2,1.2s0.6,1.2,1.2,1.2h16c0.7,0,1.2-0.6,1.2-1.2S20.7,16.3,20,16.3z"/>
	<path class="st0" d="M20,10.2H4c-0.7,0-1.2,0.6-1.2,1.2s0.6,1.2,1.2,1.2h16c0.7,0,1.2-0.6,1.2-1.2S20.7,10.2,20,10.2z"/>
</g>
</svg>
