<?xml version="1.0" encoding="utf-8"?>
<!-- Generator: Adobe Illustrator 24.2.1, SVG Export Plug-In . SVG Version: 6.00 Build 0)  -->
<svg version="1.1" id="圖層_1" xmlns="http://www.w3.org/2000/svg" xmlns:xlink="http://www.w3.org/1999/xlink" x="0px" y="0px"
	 viewBox="0 0 24 24" style="enable-background:new 0 0 24 24;" xml:space="preserve">
<style type="text/css">
	.st0{fill:#D4BDCA;}
</style>
<path class="st0" d="M21.3,7.1h-3.2C18.7,6.5,19,5.7,19,4.9c0-0.8-0.3-1.6-0.9-2.2c-0.5-0.5-1.3-0.9-2.2-0.9c-0.8,0-1.6,0.3-2.2,0.9
	c-0.4,0.4-1.3,1.6-1.7,2.9c-0.4-1.2-1.2-2.4-1.7-2.8C9.1,1.6,7,1.5,5.8,2.7C5.2,3.3,4.9,4.1,4.9,4.9c0,0.9,0.3,1.7,0.9,2.2H2.6
	c-1,0-1.7,0.8-1.7,1.7V12c0,0.6,0.5,1,1,1h0.4v7.6c0,0.9,0.8,1.6,1.7,1.6h16c1,0,1.7-0.7,1.7-1.6V13H22c0.6,0,1-0.5,1-1V8.8
	C23,7.8,22.3,7.1,21.3,7.1z M19.6,13.1v7.1h-6.7v-7.1H19.6z M13.6,7.1c0-0.5,0.7-2.2,1.5-2.9c0.2-0.2,0.5-0.3,0.8-0.3c0,0,0,0,0.1,0
	c0.3,0,0.5,0.1,0.7,0.3C16.9,4.4,17,4.7,17,5c0,0.3-0.1,0.4-0.4,0.7C16.2,6.1,14.6,7,13.6,7.1z M21,9.1v2h-8v-2H21z M17.7,7.2
	C17.7,7.2,17.7,7.2,17.7,7.2L17.7,7.2L17.7,7.2z M10.9,13.1v7.1H4.2v-7.1H10.9z M6.9,4.9c0-0.3,0.1-0.6,0.4-0.8
	C7.5,3.9,7.7,3.8,8,3.8c0.3,0,0.6,0.1,0.8,0.4c0.8,0.8,1.4,2.4,1.5,2.9c-0.9,0-2.5-0.9-3-1.5l0,0C7,5.4,6.9,5.2,6.9,4.9z M11,9.1v2
	H2.9v-2H11z"/>
</svg>
