<?xml version="1.0" encoding="utf-8"?>
<!-- Generator: Adobe Illustrator 24.2.1, SVG Export Plug-In . SVG Version: 6.00 Build 0)  -->
<svg version="1.1" id="圖層_1" xmlns="http://www.w3.org/2000/svg" xmlns:xlink="http://www.w3.org/1999/xlink" x="0px" y="0px"
	 viewBox="0 0 24 24" style="enable-background:new 0 0 24 24;" xml:space="preserve">
<style type="text/css">
	.st0{fill:#DF0785;}
</style>
<g>
	<path class="st0" d="M22.3,9.7h-6.4l1.8-1.8C17.9,7.7,18,7.5,18,7.2s-0.1-0.5-0.3-0.7v0c-0.4-0.4-1-0.4-1.3,0L13,10
		c-0.2,0.2-0.3,0.4-0.3,0.7s0.1,0.5,0.3,0.7l3.4,3.4c0.2,0.2,0.4,0.3,0.7,0.3c0.2,0,0.5-0.1,0.7-0.3c0.2-0.2,0.3-0.4,0.3-0.7
		c0-0.2-0.1-0.5-0.3-0.7l-1.8-1.8h6.4c0.5,0,0.9-0.4,0.9-0.9S22.8,9.7,22.3,9.7z"/>
	<path class="st0" d="M15,15.4c-0.5,0-0.9,0.4-0.9,0.9v1.4c0,0.5-0.4,0.9-0.9,0.9h-2.7v-14c0-0.9-0.6-1.7-1.4-2L8.8,2.6h4.3
		C13.6,2.6,14,3,14,3.5v1.4c0,0.5,0.4,0.9,0.9,0.9c0.5,0,0.9-0.4,0.9-0.9V3.5c0-1.5-1.2-2.8-2.8-2.8H2.8c0,0-0.1,0-0.1,0
		c-1.1,0.1-2,1-2,2.1v16.5c0,0.9,0.6,1.7,1.4,2l5.5,1.8c0.2,0.1,0.4,0.1,0.7,0.1c1.1,0,2.1-0.9,2.1-2.1v-0.7h2.7
		c1.5,0,2.8-1.2,2.8-2.8v-1.4C15.9,15.8,15.5,15.4,15,15.4z M8.5,4.7v16.5c0,0.1-0.1,0.1-0.1,0.2c-0.1,0-0.1,0.1-0.2,0l-5.5-1.8
		c-0.1,0-0.1-0.1-0.1-0.2V2.8c0-0.1,0.1-0.2,0.2-0.2c0,0,0.1,0,0.1,0l5.5,1.8C8.5,4.5,8.5,4.6,8.5,4.7z"/>
</g>
</svg>
