<?xml version="1.0" encoding="utf-8"?>
<!-- Generator: Adobe Illustrator 24.2.1, SVG Export Plug-In . SVG Version: 6.00 Build 0)  -->
<svg version="1.1" id="圖層_1" xmlns="http://www.w3.org/2000/svg" xmlns:xlink="http://www.w3.org/1999/xlink" x="0px" y="0px"
	 viewBox="0 0 48 48" style="enable-background:new 0 0 48 48;" xml:space="preserve">
<style type="text/css">
	.st0{fill:#148F79;}
</style>
<desc>Created with Sketch.</desc>
<g id="ABC">
	<g id="农业银行" transform="translate(2.000000, 2.000000)">
		<path id="path" class="st0" d="M27.4,0.5c9.2,2.3,16,10.6,16.5,20.1C44.6,32,36.2,42.3,25,43.8C12.6,45.5,1,36,0.1,23.4
			C-0.6,12.9,6.5,3,16.7,0.5l0,12.1c0,1.4-0.1,2.1,1.4,2.1c0.8,0,1.5,0,2.3,0c1.4,0.1,1.1,1.2,1.1,2.3v5c-0.5-1-2.2-0.5-3-0.5h-2.9
			c-0.6-0.1-0.9-0.4-0.9-1V6.1C8.6,8.9,4.6,15.2,4.6,22c0,8.6,6.5,16.2,15,17.3v-9.2c0-0.4,0.2-0.9-0.3-0.9H17
			c-0.7,0-2.1,0.3-2.3-0.7c-0.1-0.6,0-1.2,0-1.8v-5.2c0,0.4,0.2,0.8,0.6,0.9c1.1,0.3,2.5,0,3.6,0c0.7,0,2.4-0.4,2.6,0.7
			c0.2,0.6,0,1.5,0,2.1v3.5c0,0.4,0,0.3,0.2,0.5c0.2,0.1,0.6,0,0.8,0v-4.4c0-0.8-0.3-2.4,0.9-2.4c1.2-0.2,2.5,0,3.7,0
			c0.8,0,2.3,0.3,2.2-0.9c0,1.5,0,3.1,0,4.6c0,0.5-0.2,1.8,0,2.2c0.6,1.6-4.2,0.8-4.7,1c-0.3,0.1-0.1-0.1-0.3,0.3c0,0.2,0,0.5,0,0.6
			v9.1c8.5-1.2,15-8.7,15-17.3c0-6.8-4-13.1-10.1-15.9v12.6c0,0.2-0.2,1.6,0,1.8c0,0.5-0.2,0.9-0.7,1c-1.2,0.2-2.6,0-3.8,0
			c-0.7,0-1.9-0.3-2.3,0.5v-4.4c0-0.7-0.4-2.5,0.6-2.9c0.9-0.3,4.1,0.6,4.3-0.8c0.3-2.1,0-4.4,0-6.5L27.4,0.5z M20.4,13.6
			c-0.4,0-0.8-0.3-0.9-0.8c-0.2-1.5,0-3.1,0-4.6V1.6c0-0.2-0.1-1.6,0.1-1.6h4.7c0.1,0,0.1,2.8,0.1,3.2v8.3c0,0.3,0.1,0.9,0,1.2
			c0,0.2-0.1,0.4-0.2,0.6c-0.2,0.5-1,0.4-1.4,0.4H20.4z"/>
	</g>
</g>
</svg>
