<?xml version="1.0" encoding="utf-8"?>
<!-- Generator: Adobe Illustrator 24.2.1, SVG Export Plug-In . SVG Version: 6.00 Build 0)  -->
<svg version="1.1" id="圖層_1" xmlns="http://www.w3.org/2000/svg" xmlns:xlink="http://www.w3.org/1999/xlink" x="0px" y="0px"
	 viewBox="0 0 48 48" style="enable-background:new 0 0 48 48;" xml:space="preserve">
<style type="text/css">
	.st0{fill:#1D2088;}
</style>
<desc>Created with Sketch.</desc>
<g id="BCM">
	<g id="交通银行" transform="translate(4.000000, 1.000000)">
		<path id="path" class="st0" d="M32.1,34.8c-2.4,0-4.9,0.3-7.3,0.3c-1.6,7.3-15,5.2-13.4-4c0.7-5.4,7.9-7.8,12.1-3.7
			c0.8,1.2,1.4,2.1,1.8,4.5c2.3,0,4.9-0.3,7.2-0.3c0-11.8-12.6-17.8-21.9-12.1c-9.2,5.4-8,22.2,1.6,26.3V46c-5.1,0-11-4.3-12.1-9.4
			V9.4C4.1,6.3,8.8,2.8,12.7,0C13,0,13,0.3,13.2,0.3c-0.3,4,0,10.9,0.3,15.8c2.7-2.5,4.2-5.4,8.8-6.4c3-0.7,5.6-0.3,7.3,0.4
			c13,4.8,13.8,22.5,2.7,28.7c-0.3,0-0.8,0.4-1.1,0.7c0,0,0.3-0.4,0.4-0.9C31.4,37.5,31.6,36,32.1,34.8z"/>
	</g>
</g>
</svg>
