<?xml version="1.0" encoding="utf-8"?>
<!-- Generator: Adobe Illustrator 24.2.1, SVG Export Plug-In . SVG Version: 6.00 Build 0)  -->
<svg version="1.1" id="圖層_1" xmlns="http://www.w3.org/2000/svg" xmlns:xlink="http://www.w3.org/1999/xlink" x="0px" y="0px"
	 viewBox="0 0 48 48" style="enable-background:new 0 0 48 48;" xml:space="preserve">
<style type="text/css">
	.st0{fill:#B81C22;}
</style>
<desc>Created with Sketch.</desc>
<g id="BOC">
	<g id="中国银行" transform="translate(2.000000, 2.000000)">
		<path id="path" class="st0" d="M43.9,21.1c-0.2-7.7-5.1-13-5.1-13c-7.6-8.8-17.2-8-17.2-8C11.6-0.4,5.1,7.4,5.3,7.6
			c-4.3,5.3-4.8,9.9-4.8,9.9c-1.7,8,2.2,14.8,2.2,14.8c2.9,5.3,6,7.7,11.1,10.1s12.7,2,17.5-0.5c4.6-2.5,7.6-5.1,10.4-10.1
			C44.4,26.9,43.9,21.1,43.9,21.1z M19.7,39c0,0-8-0.5-12.4-8.2c0,0-3.9-5.4-2.2-12.2c1.5-6.8,5.3-9.6,6-10.1
			C11.9,7.8,16.6,4.8,20,5v8.2h-3.6c0,0-4.6,0.2-4.8,5.4V26c0,0,0.2,4.6,4.8,5.1h3.2V39z M17.2,26.3c0,0-0.8,0.2-0.9-0.8v-7.3
			c0,0,0-0.8,0.6-0.8h10.1c0,0,0.8-0.2,0.9,0.8v7c0,0,0.2,1.2-0.6,0.9L17.2,26.3z M36.5,31.6c-3.2,4.8-9.3,7.3-12.2,7.4v-8h3.9
			c0,0,4-0.8,4.3-5.1v-8.5c0,0-0.6-4.3-5.3-4.5h-2.9v-8c0,0,5.1,0.5,9.1,4.3c4,3.7,5.3,7.6,5.6,9.6C39.5,20.7,39.9,26.5,36.5,31.6z"
			/>
	</g>
</g>
</svg>
