<?xml version="1.0" encoding="utf-8"?>
<!-- Generator: Adobe Illustrator 24.2.1, SVG Export Plug-In . SVG Version: 6.00 Build 0)  -->
<svg version="1.1" xmlns="http://www.w3.org/2000/svg" xmlns:xlink="http://www.w3.org/1999/xlink" x="0px" y="0px"
	 viewBox="0 0 50 50" style="enable-background:new 0 0 50 50;" xml:space="preserve">
<style type="text/css">
	.st0{display:none;}
	.st1{display:inline;}
	.st2{fill:#D32B1D;}
	.st3{fill:#0E478A;}
	.st4{fill:#6DB232;}
</style>
<g id="圖層_1" class="st0">
	<g class="st1">
		<path class="st2" d="M30.5,20.7c0,1.2,0,2.5,0,3.7c0,0.3,0,0.7-0.4,0.8c-0.4,0.1-0.6-0.1-0.9-0.3c-1-1-2-2-3-3
			c-1.1-1.1-1.2-1-2.3,0c-2.8,2.8-5.7,5.6-8.5,8.5c-0.7,0.7-0.9,0.6-1.2-0.3c-1.5-4.7-0.6-8.8,2.9-12.2c3.5-3.3,7.7-3.9,12.2-2.3
			c0.8,0.3,1.2,0.9,1.2,1.7C30.5,18.4,30.5,19.6,30.5,20.7C30.5,20.7,30.5,20.7,30.5,20.7z"/>
		<path class="st2" d="M35.4,21.3c3.2,7-0.8,14.5-7.5,16.1c-2.5,0.6-4.9,0.4-7.3-0.5c-0.7-0.3-1-0.7-1-1.5c0-2.4,0-4.8,0-7.3
			c0-0.3-0.1-0.7,0.3-0.9c0.4-0.2,0.7,0,1,0.3c1.1,1.1,2.2,2.1,3.2,3.2c0.7,0.7,1.2,0.7,1.9,0C29.1,27.7,32.2,24.5,35.4,21.3z"/>
		<path class="st2" d="M34.4,9.8c-1.9,0.4-3.7,1.1-5.2,2.4c-0.3,0.2-0.5,0.1-0.7,0c-4.9-1.1-9.3-0.1-13.1,3.2
			c-0.1,0.1-0.2,0.1-0.3,0.2c-1.2-4,1.2-9.3,5.9-11.3C26.3,2.2,32.2,4.6,34.4,9.8z"/>
		<path class="st2" d="M33.6,46.4c-0.9,0-1.7,0-2.6,0c-0.5-0.1-1.1-0.1-1.6-0.3c-0.7-0.3-1.8-0.4-2.1-1c-0.4-0.6,0.8-1.1,1-1.7
			c0.1-0.3,0.4-0.6,0.5-0.9c0.5-2.1,2-3.1,3.8-4.1c3.6-2.1,5.7-5.4,6.6-9.4c2.8,2.1,4,6.5,2.9,10.3C41,43.1,37.4,46.2,33.6,46.4z"/>
		<path class="st2" d="M18.8,46.4c-0.9,0-1.7,0-2.6,0c-5.5-0.5-9.7-6.3-8.6-11.9C7.7,34,7.9,34,8.3,34.2c1.6,0.8,3.2,1,4.9,1
			c0.4,0,0.6,0.1,0.8,0.4c3.3,3.8,7.6,5.5,12.6,5.1c0.1,0,0.1,0,0.3,0.1C25.2,44.1,22.5,46,18.8,46.4z"/>
		<path class="st2" d="M12,32.5c-5.3-0.6-9.1-5.1-9-10.2c0.1-5.5,3.9-9.5,9.3-10c-0.3,1.9-0.1,3.8,0.6,5.5c0.1,0.4,0,0.6-0.1,0.8
			C10.1,23.4,9.9,27.2,12,32.5z"/>
		<path class="st2" d="M47,21.1c0,0.9,0,1.7,0,2.6c-0.3,2.6-1.4,4.6-3.4,6.4c-1-1.7-2.2-3.2-3.9-4.2c-0.2-0.1-0.3-0.3-0.3-0.6
			c-0.2-4.7-3.1-9.3-7.5-11.8c3-1.6,6-1.8,9-0.5C44.5,14.6,46.5,17.3,47,21.1z"/>
	</g>
</g>
<g id="圖層_2">
	<g>
		<path class="st3" d="M3.7,29.3c6.4-6.2,13.9-10.1,22.7-11.4c4.8-0.7,9.6-0.8,14.2,0.9c2.5,1,4.6,2.4,6.1,4.8
			c0.2,0.4,0.5,0.7,0.3,1.3c-2,4.1-4,8.3-6.1,12.6c-4.4-5.8-10.1-9.2-17.1-10.7c-6.9-1.5-13.5-0.3-19.8,2.9C3,30,2.5,30.5,3.7,29.3z
			"/>
		<path class="st4" d="M33.7,12.8c3.5-0.6,6.9,0.4,8,1c1.9,0.9,2.5,2.9,1.4,4.3c-0.3,0.4-0.6,0.5-1.1,0.2c-3.3-1.8-6.9-2.1-10.5-1.9
			c-3.7,0.1-7.2,0.8-10.7,1.9c-0.2,0.1-0.6,0.1-0.8,0c-3-1.3-6-1.1-9,0.1c1-1.9,4.5-3.6,6.4-4c2.6-0.5,5.1,0,7.4,1.1
			c0.3,0.2,0.6,0.3,1,0.1C28.2,14.1,31.6,13.2,33.7,12.8z"/>
	</g>
</g>
</svg>
