<?xml version="1.0" encoding="utf-8"?>
<!-- Generator: Adobe Illustrator 24.2.1, SVG Export Plug-In . SVG Version: 6.00 Build 0)  -->
<svg version="1.1" id="圖層_1" xmlns="http://www.w3.org/2000/svg" xmlns:xlink="http://www.w3.org/1999/xlink" x="0px" y="0px"
	 viewBox="0 0 48 48" style="enable-background:new 0 0 48 48;" xml:space="preserve">
<style type="text/css">
	.st0{fill:#0E3484;}
</style>
<desc>Created with Sketch.</desc>
<g id="CCB">
	<g id="建设银行" transform="translate(3.000000, 3.000000)">
		<path id="path" class="st0" d="M28.1,4.3c-3.2-3.5-6.2-3.5-6.2-3.5s7.2-3,13.7,3.2l6.9,6.6c0,0,0.5,0.4,0.4,0.6
			c-0.1,0.4-0.4,0.9-0.4,0.9l-3.2,2.9L28.1,4.3L28.1,4.3z M41.7,22.8c0,0,0.6-0.1,0.9,0.1c0.3,0.2,0.2,0.3,0.2,0.4
			C42.3,34.2,32.8,43,21.4,43C9.9,43,0,33.9,0,22.6C0,12.5,7.5,4,17.9,2.4C19,2.2,22,2,24.7,4.6l12.9,12.2l-4.4,4.3
			c0,0-0.6,0.5-1.1,0.4c-0.5-0.1-0.9-0.6-0.9-0.6l-9.6-9.1c-0.2-0.2-0.4-0.2-0.6,0L10.2,22.2c-0.2,0.2-0.2,0.4,0,0.6l10.9,10.3
			c0.2,0.2,0.4,0.2,0.6,0l10.2-9.7c0,0,0.5-0.4,0.6-0.4c0.3-0.1,0.8-0.1,0.8-0.1H41.7L41.7,22.8z"/>
	</g>
</g>
</svg>
