<?xml version="1.0" encoding="utf-8"?>
<!-- Generator: Adobe Illustrator 24.2.1, SVG Export Plug-In . SVG Version: 6.00 Build 0)  -->
<svg version="1.1" id="圖層_1" xmlns="http://www.w3.org/2000/svg" xmlns:xlink="http://www.w3.org/1999/xlink" x="0px" y="0px"
	 viewBox="0 0 48 48" style="enable-background:new 0 0 48 48;" xml:space="preserve">
<style type="text/css">
	.st0{fill:#FBE900;}
</style>
<desc>Created with Sketch.</desc>
<g id="CEB">
	<g id="光大银行" transform="translate(7.000000, 3.000000)">
		<path id="path" class="st0" d="M0.1,0h21.9c0,0,4.1,0,4.9,1.1h-4v1.2L29,2.5c0,0,1,0.7,1,1.2l-7.2,0.1v1.1h8c0,0,0.9,0.5,0.7,1.5
			h-25v1.3l25.4-0.1c0,0,0.2,1,0.2,1.3H6.5v1.3l25.6-0.1c0,0,0.2,0.8-0.2,1.3L6.5,11.7v1.2l25-0.2c0,0,0,1-0.6,1.3L6.5,14.2v1.1
			l23.6-0.2c0,0-0.1,1.2-0.9,1.5L6.5,16.7v1.2l20.8-0.2c0,0-0.5,1.5-3.7,1.4l-3.9-0.1v1.1l6.3,0.1c0,0,2.6,0,3,1.1l-9.3,0.2v1.1h11
			c0,0,1,0.8,1,1.2L6.5,24.1v1.4l25.8-0.2c0,0,1,0.7,1,1.4L6.5,26.8v1.1h27.2c0,0,0.3,0.4,0.2,1.1L6.5,29.2v1.1h27.3
			c0,0,0.2,0.7,0,1.2L6.5,31.8V33h27.1c0,0,0.2,0.8-0.4,1.4H6.5v1.2l26.1-0.1c0,0-0.1,1.2-0.6,1.3h-9.3v1.3l8-0.1
			c0,0-0.5,1.2-1.1,1.4l-6.9,0.1v1.3l4.7-0.1c0,0-0.7,1.5-6.8,1.2L0.1,41.9V0L0.1,0z"/>
	</g>
</g>
</svg>
