<?xml version="1.0" encoding="utf-8"?>
<!-- Generator: Adobe Illustrator 24.2.1, SVG Export Plug-In . SVG Version: 6.00 Build 0)  -->
<svg version="1.1" id="圖層_1" xmlns="http://www.w3.org/2000/svg" xmlns:xlink="http://www.w3.org/1999/xlink" x="0px" y="0px"
	 viewBox="0 0 48 48" style="enable-background:new 0 0 48 48;" xml:space="preserve">
<style type="text/css">
	.st0{fill:#004186;}
</style>
<desc>Created with Sketch.</desc>
<g id="CIB">
	<g id="兴业银行" transform="translate(1.000000, 5.000000)">
		<path id="path" class="st0" d="M46,19.6c0-7.5-8-13.7-17.9-13.7c-8,0-14.7,4-16.9,9.4c-0.2,0.4-0.3,1-0.3,1.5
			c0,1.2,0.7,2.7,1.8,3.3l9,6.7c0.5,0.2,1,0.4,1.6,0.4c0.5,0,1.1-0.2,1.6-0.4l8.6-6.5c0.5-0.4,0.8-1,0.8-1.9c0-0.8-0.3-1.2-0.8-1.9
			L30.4,14l-7.2,5.4l-5.4-4c2.1-2.5,5.9-4,10.4-4c6.5,0,12.1,3.5,12.1,7.9c-0.2,6.9-8,12.3-17.6,11.7C13.1,30.9,5.4,24.8,5.7,18
			c0-9.2,9.5-16.2,20.7-16.2c1,0,2.1,0,2.9,0.2c-2.3-1-5.2-1.9-8.5-1.9c-2.6,0-4.9,0.4-7,1C5.7,4.6,0,11.3,0,19
			c0,10.4,10.4,18.9,23.1,18.9C35.7,38.6,46,30.2,46,19.6z"/>
	</g>
</g>
</svg>
