<?xml version="1.0" encoding="utf-8"?>
<!-- Generator: Adobe Illustrator 24.2.1, SVG Export Plug-In . SVG Version: 6.00 Build 0)  -->
<svg version="1.1" id="圖層_1" xmlns="http://www.w3.org/2000/svg" xmlns:xlink="http://www.w3.org/1999/xlink" x="0px" y="0px"
	 viewBox="0 0 48 48" style="enable-background:new 0 0 48 48;" xml:space="preserve">
<style type="text/css">
	.st0{fill:#D7000F;}
</style>
<desc>Created with Sketch.</desc>
<g id="CITIC">
	<g id="中信银行" transform="translate(2.000000, 2.000000)">
		<path id="path" class="st0" d="M16.2,43.2V14.6c0-3.1-1.7-5.6-4.2-6.7v33.6C13.3,42.3,14.7,42.8,16.2,43.2z M32,41.5V7.9
			c-2.5,1.1-4.2,3.7-4.2,6.7v28.6C29.2,42.8,30.7,42.3,32,41.5z M4.5,18C4.7,18,5,18.2,5,18.5c0.5,1.2,1.4,2.3,2.8,2.3
			c0.5,0,0.8-0.2,1.1-0.5V4.7C3.4,8.7,0,14.9,0,22.1s3.4,13.4,8.6,17.4V23.8c-0.2-0.2-0.6-0.5-1.1-0.5c-1.2,0-2.3,1.1-2.8,2.3
			c0,0.2-0.2,0.5-0.5,0.5S4.1,26,3.7,26c-0.8-1.1-1.2-2.3-1.2-3.7c0-1.4,0.5-2.8,1.2-3.7C4.2,18.2,4.4,18,4.5,18z M42.4,23.2
			c0.6,0,1.1,0.5,1.4,1.7v0.8c-0.9,5.6-3.9,10.6-8.3,14V5c4.7,3.6,7.8,8.9,8.4,14.9c-0.2,0.6-0.8,1.1-1.4,1.1
			c-1.4,0-2.3-1.1-2.8-2.3c0-0.3-0.3-0.5-0.5-0.5c-0.3,0-0.5,0.2-0.5,0.2c-0.8,0.9-1.2,2.3-1.2,3.7s0.5,2.6,1.1,3.7
			c0.3,0,0.2,0.2,0.5,0.2c0.3,0,0.5-0.3,0.5-0.5C40.1,24.3,41.2,23.2,42.4,23.2z M12.6,3.9c-0.5-0.2-0.6-0.3-0.3-0.8
			c0-0.6,0.2-0.9,0.6-1.1c2.7-1.2,5.8-2,9.2-2c3.3,0,6.4,0.8,9.2,2C31.8,2.3,32,2.6,32,3.1c0,0.3-0.2,0.6-0.6,0.8
			c-3.3,1.2-6.7,4.8-6.7,8.9v31.1C23.9,44,22.9,44,22.1,44s-1.7-0.2-2.5-0.2V12.7C19.6,8.7,16.2,5.1,12.6,3.9z"/>
	</g>
</g>
</svg>
