<?xml version="1.0" encoding="utf-8"?>
<!-- Generator: Adobe Illustrator 24.2.1, SVG Export Plug-In . SVG Version: 6.00 Build 0)  -->
<svg version="1.1" id="圖層_1" xmlns="http://www.w3.org/2000/svg" xmlns:xlink="http://www.w3.org/1999/xlink" x="0px" y="0px"
	 viewBox="0 0 48 48" style="enable-background:new 0 0 48 48;" xml:space="preserve">
<style type="text/css">
	.st0{fill:#C7162E;}
</style>
<desc>Created with Sketch.</desc>
<g id="CMB">
	<g id="招商银行" transform="translate(3.000000, 3.000000)">
		<path id="path" class="st0" d="M13.6,15.3l-6.1,15h24.4l-6.1-15.1l-6.1,14.9L13.6,15.3L13.6,15.3z M37.4,26.7h4.9
			c-0.1,0.4-0.2,0.7-0.3,1.1h-4.1L37.4,26.7z M36.6,24.7h6.1c-0.1,0.4-0.1,0.7-0.2,1.1h-5.5L36.6,24.7z M35.8,22.7h7.1
			c0,0.4,0,0.7-0.1,1.1h-6.6L35.8,22.7z M35,20.6h8c0,0.3,0,0.6,0,0.9v0.2h-7.5L35,20.6L35,20.6z M34.2,18.6h8.6
			c0,0.4,0.1,0.7,0.1,1.1h-8.3L34.2,18.6L34.2,18.6z M33.4,16.5h9c0.1,0.4,0.2,0.7,0.2,1.1h-8.8L33.4,16.5L33.4,16.5z M0,21.5
			C0,10.8,7.9,1.7,18.5,0.2s20.7,5.1,23.6,15.4H33L27.6,2.2l-6,14.9L15.5,2.4L4.2,30.3l4.6,6.5h25.6l4.4-6.6l-0.6-1.4h3.4
			c-3.5,9.8-13.6,15.7-23.9,13.9C7.5,40.9,0,31.9,0,21.5z"/>
	</g>
</g>
</svg>
