<?xml version="1.0" encoding="utf-8"?>
<!-- Generator: Adobe Illustrator 24.2.1, SVG Export Plug-In . SVG Version: 6.00 Build 0)  -->
<svg version="1.1" id="圖層_1" xmlns="http://www.w3.org/2000/svg" xmlns:xlink="http://www.w3.org/1999/xlink" x="0px" y="0px"
	 viewBox="0 0 48 48" style="enable-background:new 0 0 48 48;" xml:space="preserve">
<style type="text/css">
	.st0{fill:#1D2088;}
	.st1{fill:#5AA572;}
</style>
<desc>Created with Sketch.</desc>
<g id="CMSB">
	<g id="中国民生银行" transform="translate(4.000000, 4.000000)">
		<path id="path" class="st0" d="M38.4,22.9C34.9,16.7,25,15.4,25,15.4l4-3.2L20.2,6l-8.8,5.8l7.1,5.2c11.5-0.4,14.8,7.8,14.8,7.8
			c2.8,11.9-13.7,12.6-13.7,12.6c-9.5,1.5-13.9-9.5-13.9-9.5L0,28.3c6.8,17.8,31.3,10,31.3,10C43.8,32.9,38.4,22.9,38.4,22.9z
			 M20.1,15.4l-4-2.6l3.7-3.5l4,2.8L20.1,15.4z"/>
		<path id="path_1_" class="st1" d="M20.8,0.2C14.4-0.4,1.9,0.6,0.3,10.6c-1.3,8,8,12.6,14.5,13.6c-1.3,1.1-2.7,2-4,3.2
			c3.1,2.2,6,4.6,8.8,6.7l8-6.1l-8-5.4c-1.6-0.4-3.1,0.4-4,0.4c-4.4,0-10.8-6.3-9.1-12.1C9.8-1.7,31.7,0.2,33.9,12.5H40
			C37.3,2.6,26.9,0.7,20.8,0.2z M19.9,24.5l4,2.8l-4.1,2.8l-3.7-2.8L19.9,24.5z"/>
	</g>
</g>
</svg>
