<?xml version="1.0" encoding="utf-8"?>
<!-- Generator: Adobe Illustrator 24.2.1, SVG Export Plug-In . SVG Version: 6.00 Build 0)  -->
<svg version="1.1" id="圖層_1" xmlns="http://www.w3.org/2000/svg" xmlns:xlink="http://www.w3.org/1999/xlink" x="0px" y="0px"
	 viewBox="0 0 48 48" style="enable-background:new 0 0 48 48;" xml:space="preserve">
<style type="text/css">
	.st0{fill:#B91D22;}
</style>
<desc>Created with Sketch.</desc>
<g id="ICBC">
	<g id="工商银行" transform="translate(2.000000, 2.000000)">
		<path id="path" class="st0" d="M0,22C0,9.8,9.9,0,22,0c12.1,0,22,9.8,22,22s-9.8,22-22,22C9.9,43.9,0,34.1,0,22L0,22z M22,41.1
			c6.9,0.1,13.3-3.5,16.8-9.5c3.5-6,3.5-13.3,0-19.3c-3.5-6-9.9-9.6-16.8-9.5C11.5,3,3.1,11.5,3.1,22S11.5,41,22,41.1z M9.3,10.9h12
			v3.5h-8.5v3.3h8.5v9.6h-8.5v4h8.5v3.1h-12V23.7H18v-2.9H9.3V10.9L9.3,10.9z M34.7,10.9v9.9H26v2.9h8.7v10.7H22.7v-3.1h8.5v-4h-8.5
			v-9.6h8.5v-3.3h-8.5v-3.5L34.7,10.9L34.7,10.9z"/>
	</g>
</g>
</svg>
