<?xml version="1.0" encoding="utf-8"?>
<!-- Generator: Adobe Illustrator 24.2.1, SVG Export Plug-In . SVG Version: 6.00 Build 0)  -->
<svg version="1.1" xmlns="http://www.w3.org/2000/svg" xmlns:xlink="http://www.w3.org/1999/xlink" x="0px" y="0px"
	 viewBox="0 0 48 48" style="enable-background:new 0 0 48 48;" xml:space="preserve">
<style type="text/css">
	.st0{fill:#DB4F16;}
	.st1{fill:#FFFFFF;}
	.st2{fill:#FFFEFE;}
	.st3{fill:#FFFEFD;}
	.st4{fill:#FFFDFC;}
	.st5{fill:#FEFCFA;}
	.st6{fill:#DB531B;}
	.st7{fill:#DE6532;}
	.st8{fill:#DC5B28;}
</style>
<g id="圖層_2">
</g>
<g id="圖層_1">
	<g>
		<circle class="st0" cx="24" cy="24" r="22"/>
		<g>
			<path class="st1" d="M33.3,20.9c1.1,0.6,2.1,0.4,3.1,0.5c0.5,0,1.1-0.2,1.2,0.8c0,1-0.6,0.8-1.2,0.9c-1.5,0.1-2.9-0.1-4.3-0.8
				c-0.7-0.4-1.3-0.3-1.9,0C28.8,23,27.3,23,25.7,23c-0.6,0-0.9-0.2-0.9-0.8c0-0.7,0.3-0.8,0.9-0.8c1,0,2.1,0.1,3.1-0.4
				c-0.1-0.5-0.6-0.5-0.9-0.7c-0.6-0.4-1.2-0.8-1.1-1.6c0-0.9-0.5-1-1.2-1c-0.5,0-1.2,0.2-1.2-0.7c0-0.9,0.6-0.8,1.1-0.8
				c0.6,0,1.1,0.1,1.2-0.7c0.1-0.6,0.7-0.4,1.1-0.4c0.4,0,0.9,0,0.9,0.6c0,0.6,0.4,0.6,0.9,0.6c0.9,0,1.8,0,2.7,0
				c0.6,0,1.2,0.1,1.2-0.8c0-0.4,0.5-0.4,0.8-0.3c0.4,0,0.9-0.2,1,0.3c0.1,1.1,0.8,0.9,1.4,0.9c0.6,0,0.9,0.2,0.9,0.8
				c0,0.6-0.3,0.8-0.8,0.8c-0.9-0.1-1.5,0-1.5,1.2C35.4,20,34.2,20.3,33.3,20.9z"/>
			<path class="st2" d="M16.8,12.5c1.7,0,3.5,0,5.2,0c0.5,0,1,0,1,0.7c0,0.7-0.3,0.9-1,0.9c-1.1,0-2.2,0-3.3,0
				c-0.6,0-0.9,0.1-0.9,0.8c0,1.2,0,2.4,0,3.6c0,0.6,0.2,0.8,0.8,0.8c1.3,0,2.6,0,3.9,0c0.6,0,0.9,0.1,0.9,0.8
				c0,0.7-0.3,0.8-0.9,0.8c-1.2,0-2.4,0-3.6,0c-0.9,0-1.2,0.3-1.1,1.2c0.1,0.9-0.2,1.3-1.2,1.2c-0.8,0-1.1-0.3-1-1.1
				c0.2-1.1-0.3-1.4-1.4-1.3c-1.1,0.1-2.2,0-3.3,0c-0.6,0-0.8-0.2-0.8-0.8c0-0.6,0.2-0.9,0.8-0.9c1.2,0,2.5,0,3.7,0
				c0.7,0,0.9-0.2,0.9-0.9c0-1.2,0-2.3,0-3.5c0-0.6-0.2-0.9-0.8-0.9c-1.1,0-2.3,0-3.4,0c-0.6,0-0.9-0.2-0.9-0.8
				c0-0.7,0.4-0.8,0.9-0.8C13.3,12.5,15,12.5,16.8,12.5z"/>
			<path class="st1" d="M15.9,30.6c0-1.4,0-2.7,0-4.1c0-0.8,0.4-1.3,1.2-1.3c1.7,0,3.3,0,5,0c0.7,0,1.1,0.3,1.1,1.1
				c0,1.2,0,2.5,0,3.7c0,0.8-0.4,1.2-1.2,1.2c-1.1,0-2.3,0-3.4,0c-0.7,0-1.1,0.2-1,1c0,0.4,0,0.8,0,1.1c0,0.8-0.1,1.5,1,1.4
				c0.4,0,0.6,0.3,0.6,0.8c0,0.4-0.3,0.6-0.7,0.6c-0.3,0-0.5,0-0.8,0c-1.8,0-1.9-0.1-1.9-1.9C15.9,33,15.9,31.8,15.9,30.6
				C15.9,30.6,15.9,30.6,15.9,30.6z"/>
			<path class="st2" d="M34,28.7c1.1,0,2.3,0,3.4,0c0.5,0,0.9,0.1,0.8,0.7c0,0.5,0.1,1.1-0.7,1c-0.8-0.1-1,0.3-0.9,1
				c0,1.1,0,2.1,0,3.2c0,1-0.4,1.5-1.5,1.5c-1,0-2,0-3,0c-0.6,0-0.8-0.2-0.8-0.8c0-0.6,0.2-0.8,0.8-0.8c0.1,0,0.2,0,0.2,0
				c0.7-0.1,1.8,0.4,2.1-0.3c0.5-1,0.2-2.3,0.1-3.4c0-0.5-0.5-0.4-0.8-0.4c-1,0-2,0-2.9,0c-0.7,0-1.1,0-1.1-0.9
				c0-0.8,0.4-0.9,1.1-0.9C31.7,28.7,32.9,28.7,34,28.7C34,28.7,34,28.7,34,28.7z"/>
			<path class="st2" d="M12.7,28.6c0.6,0,1.2,0,1.8,0c0.5,0,0.9,0.2,0.8,0.8c0,0.6-0.3,0.8-0.8,0.8c-0.1,0-0.2,0-0.3,0
				c-0.4,0-0.7,0.1-0.7,0.5c0,0.5,0.4,0.4,0.7,0.5c0.4,0,0.9-0.2,1.1,0.4c0.2,0.6,0.1,1.2-0.8,1.2c-0.5,0-1-0.1-1,0.7
				c0,0.6-0.2,1.3,0.8,1.3c0.5,0,0.7,0.3,0.7,0.8c0,0.5-0.3,0.6-0.8,0.6c-0.4,0-0.8,0-1.2,0c-0.9,0-1.3-0.4-1.3-1.3
				c0-0.4,0-0.8,0-1.2c0-0.6-0.1-0.9-0.8-0.9C10.2,32.8,10,32.6,10,32c0-0.5,0.1-0.9,0.8-0.9c0.4,0,0.8,0.1,0.8-0.5
				c0-0.6-0.5-0.5-0.8-0.5c-0.6,0-0.7-0.3-0.7-0.9c0-0.6,0.3-0.7,0.8-0.7C11.4,28.7,12,28.7,12.7,28.6
				C12.7,28.6,12.7,28.6,12.7,28.6z"/>
			<path class="st3" d="M27.8,12.7c0.8-0.2,1.8,0.4,2.6-0.6c0.2-0.2,1.5-0.6,2,0.4c0.1,0.3,0.5,0.2,0.8,0.2c1,0,2,0,3,0
				c1.1,0,1.5,0.5,1.5,1.6c0,0.3,0,0.7-0.4,0.8c-0.4,0-0.9,0.2-1.1-0.3c-0.2-0.6-0.7-0.6-1.1-0.6c-2.6,0-5.2,0-7.8,0
				c-0.3,0-0.8-0.2-1,0.3c-0.2,0.9-1,0.8-1.4,0.5c-0.6-0.3-0.4-1-0.2-1.5c0.2-0.5,0.6-0.8,1.2-0.8C26.5,12.7,27.1,12.7,27.8,12.7z"
				/>
			<path class="st2" d="M28.1,33.6c0,0.4-0.1,0.8,0,1.2c0.2,1.1-0.4,1.3-1.3,1.3c-0.5,0-0.7-0.2-0.7-0.7c0-0.8,0-1.6,0-2.5
				c0-0.6,0-1.1-0.9-1.1c-0.6,0.1-0.6-0.3-0.3-0.7c0.6-0.7,1.1-1.4,1.7-2.1c0.1-0.1,0.1-0.2,0.2-0.2c0.7-0.4,1.5-0.5,2-0.1
				c0.5,0.4-0.3,0.8-0.5,1.2c-0.2,0.5-1.1,0.7-0.3,1.6C28.3,31.9,28,32.9,28.1,33.6C28,33.6,28,33.6,28.1,33.6z"/>
			<path class="st3" d="M22.3,36.1c-1,0.2-1.7-0.3-2.1-1c-0.5-0.8-1-1.7-1.5-2.5c-0.4-0.7-0.2-1.1,0.5-0.9c1.1,0.4,2.2,0.4,3.3,0
				c0.2-0.1,0.7-0.2,0.8,0.2c0.1,0.3-0.2,0.4-0.4,0.6c-0.2,0.2-0.4,0.4-0.5,0.6c-0.9,1.2-0.9,1.3,0.6,1.6c0.4,0.1,0.5,0.4,0.5,0.7
				c0,0.4-0.1,0.7-0.6,0.7C22.6,36.1,22.4,36.1,22.3,36.1z"/>
			<path class="st4" d="M33.9,27.1c-1,0-2,0-3,0c-0.6,0-0.9-0.2-0.9-0.8c0-0.6,0.2-1,0.9-1c2,0,4,0,6.1,0c0.7,0,0.9,0.3,0.9,1
				c0,0.6-0.2,0.9-0.9,0.8C35.9,27.1,34.9,27.1,33.9,27.1C33.9,27.1,33.9,27.1,33.9,27.1z"/>
			<path class="st4" d="M13.3,27.6c-0.4,0-1.1-0.1-1.7,0.5c-0.3,0.3-0.8,0.1-1.2,0.1c-0.6,0-0.8-0.1-0.4-0.7
				c0.3-0.5,0.6-1.1,0.9-1.7c0.3-0.6,0.6-0.8,1.2-0.7c0.4,0.1,1.1-0.3,1.1,0.7c0,0.4,0.5,0.2,0.8,0.2c0.6,0.1,1.3-0.2,1.2,0.8
				c0,0.9-0.7,0.7-1.2,0.8C13.9,27.7,13.7,27.6,13.3,27.6z"/>
			<path class="st4" d="M18.5,18.5c0.4-1.3,1.1-2.2,1.6-3.3c0.2-0.3,1.8-0.5,2.1-0.3c0.2,0.2,0.1,0.4,0,0.6
				c-0.4,0.8-0.8,1.7-1.3,2.5C20.3,19,19.3,18.4,18.5,18.5z"/>
			<path class="st4" d="M13.8,18.5c-0.7,0.2-1.1-0.3-1.4-1c-0.3-0.7-0.7-1.3-1-2c-0.2-0.4-0.1-0.7,0.4-0.7c1-0.1,1.8,0.1,2.2,1.2
				c0.1,0.5,0.4,0.9,0.6,1.3C15.3,18.5,15.3,18.6,13.8,18.5z"/>
			<path class="st5" d="M25.6,28.5c-0.3-0.1-0.7,0.2-0.9-0.2c-0.2-0.4,0.2-0.6,0.4-0.9c0.4-0.5,0.9-1,1.3-1.6
				c0.6-0.9,1.5-0.8,2.3-0.7c0.5,0,0.4,0.3,0.2,0.6c-0.6,0.8-1.3,1.6-1.9,2.4C26.6,28.6,26.1,28.5,25.6,28.5z"/>
			<path class="st6" d="M31.3,19.9c-0.9-0.1-1.6-0.5-2.2-0.9c-0.3-0.2-0.4-0.6-0.3-0.9c0.1-0.4,0.5-0.4,0.8-0.4c1.1,0,2.1,0,3.2,0
				c0.3,0,0.7,0,0.8,0.3c0.1,0.3,0,0.7-0.3,0.9C32.7,19.5,31.9,19.6,31.3,19.9z"/>
			<path class="st7" d="M19.5,27.5c-0.5,0-1,0-1.5,0c-0.2,0-0.4-0.2-0.4-0.4c0-0.2,0.2-0.3,0.4-0.3c1,0,1.9,0,2.9,0
				c0.2,0,0.4,0.1,0.4,0.4c0,0.3-0.2,0.4-0.4,0.4C20.5,27.6,20,27.5,19.5,27.5C19.5,27.5,19.5,27.5,19.5,27.5z"/>
			<path class="st8" d="M19.6,29.9c-0.4,0-0.9,0-1.3,0c-0.3,0-0.6-0.1-0.6-0.5c0-0.3,0.3-0.4,0.6-0.4c0.9,0,1.8,0,2.7,0
				c0.3,0,0.5,0.1,0.5,0.4c0,0.3-0.2,0.5-0.5,0.5C20.5,29.9,20,29.9,19.6,29.9C19.6,29.9,19.6,29.9,19.6,29.9z"/>
		</g>
	</g>
</g>
</svg>
