<?xml version="1.0" encoding="utf-8"?>
<!-- Generator: Adobe Illustrator 24.2.1, SVG Export Plug-In . SVG Version: 6.00 Build 0)  -->
<svg version="1.1" id="圖層_1" xmlns="http://www.w3.org/2000/svg" xmlns:xlink="http://www.w3.org/1999/xlink" x="0px" y="0px"
	 viewBox="0 0 48 48" style="enable-background:new 0 0 48 48;" xml:space="preserve">
<style type="text/css">
	.st0{fill:#108C3E;}
</style>
<desc>Created with Sketch.</desc>
<g id="PSBC">
	<g id="中国邮政" transform="translate(3.000000, 4.000000)">
		<path id="path" class="st0" d="M27.6,40l2.7-11.9h6.1l0.7-4.1h-8.6l-2.7,12H10.1l0.4-2.1h13.8L27,22h10.5l0.7-3.8h-13l-2.5,11.9
			H11.3l0.4-1.8h9l2.1-10.1h-9l0.4-2.1h13.8l1.6-6.2h10.4l0.7-3.8H27.9l-1.8,6h-11l0.6-2.3h8.9l1.8-5.9h14.8L42,0H24.4l-1.5,6h-9
			l-2.7,12h-9L0,28h9.5L7.2,40H27.6z M3.5,23.9l0.4-2h6.8l-0.6,2.1H3.5V23.9z M12.9,23.9l0.4-2.1h6.8l-0.4,2.1H12.9z"/>
	</g>
</g>
</svg>
