<?xml version="1.0" encoding="utf-8"?>
<!-- Generator: Adobe Illustrator 24.2.1, SVG Export Plug-In . SVG Version: 6.00 Build 0)  -->
<svg version="1.1" id="圖層_1" xmlns="http://www.w3.org/2000/svg" xmlns:xlink="http://www.w3.org/1999/xlink" x="0px" y="0px"
	 viewBox="0 0 48 48" style="enable-background:new 0 0 48 48;" xml:space="preserve">
<style type="text/css">
	.st0{fill:#0E3868;}
</style>
<desc>Created with Sketch.</desc>
<g id="SPDB">
	<g id="浦发银行" transform="translate(1.000000, 3.000000)">
		<path id="path" class="st0" d="M10.1,16.3c2.4-2.3,5.6-3.3,8.8-2.8C18.1,12,15.4,7,9.4,7C3.8,7,0,12.4,0,17.3v18.4
			c0,1.2,0.8,1.9,0.8,1.9l5,4.1c0,0,1,0.9,1-0.5V24.5c0,0,0-0.2,0-0.4C6.8,22.8,7.1,19.1,10.1,16.3 M45.9,6.3c0-1.2-0.8-1.9-0.8-1.9
			l-4.9-4.1c0,0-1-0.9-1,0.5c0,4.7,0,16.5,0,16.5c0,0,0,0.2,0,0.4c0,1.2-0.3,4.9-3.3,7.7c-2.4,2.3-5.6,3.3-8.8,2.8
			c0.7,1.6,3.4,6.5,9.4,6.5c5.6,0,9.3-5.3,9.3-10.3C46,24.4,45.9,14.9,45.9,6.3 M30.1,16l0.1-0.1c3-2.6,6.5-2.4,7.7-2.2
			c-0.5-1.5-2.6-6.5-9-6.5c-3.6,0-6,2.1-7.3,3.8c-1.6,2.1-2,4.5-2.1,5.7c-0.5,6-3.5,8.8-3.8,9.1c-3.3,2.9-6.7,2.6-7.9,2.3
			c0.6,1.6,2.9,6.7,9.2,6.5c2.5-0.1,4.7-1.1,6.6-3.2c2.1-2.2,2.5-5.7,2.6-6.8C26.9,19.6,29.1,16.9,30.1,16"/>
	</g>
</g>
</svg>
