<?xml version="1.0" encoding="utf-8"?>
<!-- Generator: Adobe Illustrator 24.2.1, SVG Export Plug-In . SVG Version: 6.00 Build 0)  -->
<svg version="1.1" xmlns="http://www.w3.org/2000/svg" xmlns:xlink="http://www.w3.org/1999/xlink" x="0px" y="0px"
	 viewBox="0 0 48 48" style="enable-background:new 0 0 48 48;" xml:space="preserve">
<style type="text/css">
	.st0{display:none;}
	.st1{display:inline;fill:#DB220B;}
	.st2{display:inline;}
	.st3{fill:#25328D;}
	.st4{fill:#009DE5;}
	.st5{fill:#006FBB;}
	.st6{fill:#006F43;}
	.st7{fill:#026C41;}
	.st8{fill:#007544;}
	.st9{fill:#007A46;}
	.st10{fill:#007F47;}
	.st11{fill:#027F47;}
	.st12{fill:#007644;}
	.st13{fill:#6DB23F;}
	.st14{fill:#007043;}
	.st15{fill:#67AE3F;}
	.st16{fill:#509D44;}
	.st17{fill:#4A9945;}
	.st18{fill:#61A941;}
	.st19{fill:#1D8747;}
	.st20{fill:#459645;}
	.st21{fill:#6EB33E;}
	.st22{fill:#056A40;}
	.st23{fill:#016D41;}
	.st24{fill:#72B73D;}
	.st25{fill:#76BB3B;}
	.st26{fill:#4B9945;}
	.st27{fill:#2B8B46;}
	.st28{fill:#519D44;}
	.st29{fill:#7CBF39;}
	.st30{fill:#5BA443;}
	.st31{fill:#5AA443;}
	.st32{fill:#388F46;}
	.st33{fill:#419345;}
	.st34{fill:#56A143;}
	.st35{fill:#409345;}
	.st36{fill:#76BA3B;}
	.st37{fill:#248846;}
	.st38{fill:#328D46;}
	.st39{fill:#68AE3F;}
	.st40{fill:#5DA642;}
	.st41{fill:#0C8347;}
	.st42{fill:#378F46;}
	.st43{fill:#318D46;}
	.st44{fill:#138547;}
	.st45{fill:#81C338;}
	.st46{fill:#3C9146;}
	.st47{fill:#1E8746;}
	.st48{fill:#198647;}
	.st49{fill:#FEFEFE;}
	.st50{fill:#84C636;}
	.st51{fill:#82BE54;}
	.st52{fill:#80C337;}
	.st53{fill:#DB210A;}
	.st54{fill:#FFFFFF;}
	.st55{fill:#DB2209;}
	.st56{fill:#21267C;}
	.st57{fill:#005893;}
	.st58{fill:#D80646;}
</style>
<g id="圖層_1" class="st0">
	<path class="st1" d="M23.9,16.7c0,0-0.1,0.1-0.1,0.2c-2.3,2.3-4.5,4.6-6.8,6.9c-0.4,0.4-0.4,0.4,0,0.7c2.3,2.3,4.5,4.6,6.8,6.9
		c0.2,0.2,0.3,0.2,0.5,0c2.3-2.3,4.6-4.6,6.9-6.9c0.2-0.2,0.2-0.3,0-0.5c-2.3-2.3-4.6-4.6-6.9-6.9c-0.2-0.2-0.2-0.3,0-0.5
		c2.3-2.3,4.5-4.5,6.8-6.8c0,0,0.1-0.1,0.1-0.1c0.2-0.2,0.3-0.2,0.5,0c2.5,2.5,5,5,7.5,7.5c2.2,2.3,4.5,4.5,6.7,6.8
		c0.2,0.2,0.2,0.3,0,0.5c-4.8,4.8-9.5,9.5-14.3,14.3c-0.2,0.2-0.3,0.1-0.4,0c-2.3-2.3-4.6-4.6-6.9-6.8c-0.2-0.2-0.3-0.2-0.6,0
		c-1.9,1.9-3.8,3.8-5.7,5.7c-0.4,0.4-0.8,0.8-1.2,1.2c-0.2,0.2-0.2,0.2-0.4,0c-1.2-1.2-2.4-2.4-3.6-3.6c-3.6-3.5-7.1-7.1-10.7-10.6
		c-0.2-0.2-0.1-0.3,0-0.5c3.8-3.8,7.6-7.6,11.4-11.4c0.9-0.9,1.9-1.9,2.8-2.8c0.2-0.2,0.3-0.2,0.5,0c2.3,2.3,4.6,4.6,6.8,6.9
		C23.8,16.5,23.9,16.5,23.9,16.7z"/>
</g>
<g id="圖層_6" class="st0">
	<g class="st2">
		<path class="st3" d="M26.6,15.3c0.2,0,0.5,0,0.7,0.1c1.8,0.3,3.4,1,4.7,2.3c0.2,0.2,0.2,0.4,0,0.6c-0.6,0.6-1.1,1.1-1.7,1.7
			c-0.2,0.2-0.4,0.2-0.6,0c-0.6-0.6-1.3-1-2.1-1.1c-1.9-0.4-3.5,0.1-4.8,1.6c-2,2.2-1.7,5.6,0.5,7.6c1.9,1.6,4.7,1.6,6.5-0.1
			c0.1-0.1,0.2-0.2,0.4-0.2c0.1,0,0.2,0,0.3,0.1c0.6,0.6,1.2,1.2,1.8,1.8c0.2,0.2,0.2,0.4,0,0.6c-1.2,1.1-2.6,1.9-4.2,2.2
			c-4,0.8-7.9-1.1-9.6-4.8c-2-4.3-0.2-9.5,4.1-11.6c1-0.5,2-0.7,3.1-0.8c0,0,0.1,0,0.1,0C25.9,15.3,26.2,15.3,26.6,15.3z"/>
		<path class="st4" d="M23.5,24c0-1.7,1.3-3,3-2.9c1.6,0,2.9,1.4,2.9,3c0,1.6-1.3,2.9-3,2.9C24.8,26.9,23.5,25.6,23.5,24z"/>
		<path class="st3" d="M46,27c-0.1-0.8-0.4-1.6-1-2.2c-0.6-0.7-1.4-1.1-2.2-1.3c0,0-0.1,0-0.1,0c0.1,0,0.1,0,0.1,0c0,0,0.1,0,0.1,0
			c1-0.4,1.6-1.1,2-2.1c0.4-1.2,0.3-2.3-0.3-3.4c-0.4-0.8-1.2-1.3-2-1.6c-0.9-0.4-1.9-0.5-2.8-0.5c-2,0-4,0-6,0
			c-0.3,0-0.5,0.2-0.5,0.5c0,5.2,0,10.4,0,15.6c0,0,0,0.1,0,0.1c0,0.2,0.2,0.3,0.5,0.3c1.9,0,3.8,0,5.7,0c0.7,0,1.4,0,2-0.1
			c0.8-0.1,1.5-0.3,2.2-0.7c1.1-0.6,1.9-1.5,2.1-2.8c0-0.2,0.1-0.4,0.1-0.7C46,27.7,46,27.4,46,27C46,27.1,46,27.1,46,27z M37,20.5
			c0-0.6,0-1.2,0-1.7c0-0.1,0-0.1,0.1-0.1c0.7,0,1.4,0,2.1,0c0.3,0,0.6,0,0.9,0.1c0.8,0.2,1.3,0.8,1.3,1.7c0,1-0.5,1.6-1.5,1.8
			c-0.3,0.1-0.5,0.1-0.8,0.1c-0.7,0-1.4,0-2,0c-0.1,0-0.1,0-0.1-0.1C37,21.6,37,21.1,37,20.5z M42.2,27.7c-0.1,0.8-0.6,1.3-1.4,1.5
			c-0.4,0.1-0.8,0.2-1.3,0.2c-0.4,0-0.7,0-1.1,0c-0.5,0-0.9,0-1.4,0c-0.1,0-0.1,0-0.1-0.1c0-1.4,0-2.7,0-4.1c0-0.1,0-0.1,0.1-0.1
			c0.8,0,1.7,0,2.5,0c0.5,0,1.1,0.1,1.5,0.4c0.7,0.3,1,0.9,1.1,1.6C42.2,27.3,42.2,27.5,42.2,27.7z"/>
		<path class="st3" d="M18.1,31.8c-0.3-0.9-0.6-1.7-0.9-2.6c-1.6-4.4-3.2-8.7-4.8-13.1c-0.1-0.3-0.3-0.4-0.6-0.4c-1.1,0-2.1,0-3.2,0
			c-0.3,0-0.5,0.1-0.6,0.4c-0.5,1.5-1.1,2.9-1.6,4.4c-1.3,3.6-2.7,7.2-4,10.8c-0.1,0.2-0.1,0.4-0.2,0.5C2,32,2,32,2,32.1
			c0.1,0.1,0.2,0.2,0.3,0.2c1,0,2,0,3,0c0.3,0,0.5-0.2,0.6-0.4c0.4-1.1,0.7-2.2,1.1-3.2c0-0.1,0.1-0.1,0.1-0.1c1.9,0,3.7,0,5.6,0
			c0.1,0,0.1,0,0.1,0.1c0.4,1.1,0.7,2.2,1.1,3.2c0.1,0.3,0.3,0.4,0.6,0.4c1.1,0,2.1,0,3.2,0C18.1,32.3,18.2,32.1,18.1,31.8z
			 M11.9,25.6c-1.3,0-2.6,0-3.8,0c-0.1,0-0.1,0-0.1-0.1c0.7-2,1.3-4,2-6c0,0,0,0,0-0.1c0.1,0.3,0.2,0.6,0.3,0.9
			c0.6,1.7,1.1,3.5,1.7,5.2C12,25.5,12,25.6,11.9,25.6z"/>
	</g>
</g>
<g id="圖層_5" class="st0">
	<g class="st2">
		<path class="st5" d="M45.7,22.9c-0.2-0.4-0.5-0.7-0.8-1c-0.9-1-2-1.9-3-2.9c-4.1-4.1-8.2-8.2-12.3-12.3c-1.2-1.2-2.5-2.5-3.7-3.7
			C25.4,2.4,24.8,2,24.1,2c-0.4,0-0.8,0.1-1.2,0.4c-0.4,0.3-0.7,0.6-1,0.9c-1.1,1.1-2.2,2.2-3.3,3.3c-2.2,2.3-4.6,4.6-6.9,6.9
			C9.1,15.9,6.6,18.5,4,21c-0.2,0.2-0.3,0.3-0.5,0.5c-0.4,0.4-0.8,0.8-1.1,1.2c-0.6,0.9-0.6,1.8,0,2.6c0.2,0.2,0.4,0.5,0.6,0.7
			c0.6,0.6,1.2,1.1,1.8,1.7c1.9,1.8,3.7,3.7,5.6,5.5c3.7,3.7,7.4,7.3,11,11c0.5,0.5,1,1,1.6,1.4c0.6,0.4,1.3,0.5,2,0.1
			c0.6-0.3,1-0.8,1.5-1.2c2.3-2.4,4.7-4.8,7-7.1c3.7-3.7,7.4-7.4,11.1-11.1c0.4-0.4,0.8-0.9,1.2-1.4C46.1,24.2,46.1,23.6,45.7,22.9z
			 M44.3,24.6c-0.3,0.6-0.7,1-1.2,1.5c-1.9,2-3.9,3.8-5.8,5.8c-3,3.1-6,6.1-9.1,9.1c-1,1-2.1,2-3.2,3c-0.6,0.6-1.1,0.5-1.8,0.2
			c-0.5-0.3-0.9-0.7-1.3-1.2c-0.1-0.1-0.3-0.3-0.4-0.4C18,39,14.5,35.5,10.9,31.9c-1.6-1.6-3.2-3.1-4.7-4.7
			c-0.6-0.6-1.3-1.2-1.9-1.9c-0.2-0.3-0.5-0.6-0.6-1c-0.1-0.5,0-0.9,0.3-1.3c0.3-0.4,0.6-0.8,1-1.1c0.3-0.3,0.7-0.6,1-1
			c5.1-5.2,10.3-10.3,15.4-15.5C22,5,22.6,4.4,23.2,4c0.4-0.2,0.6-0.3,0.9-0.3c0.5,0,0.9,0.2,1.2,0.4c0.6,0.5,1.2,1,1.7,1.6
			c1.7,1.8,3.5,3.6,5.3,5.4c2.9,2.9,5.8,5.7,8.7,8.6c1,1,2,2,2.9,3.1c0.3,0.3,0.5,0.6,0.6,1C44.5,24.1,44.4,24.3,44.3,24.6z"/>
		<path class="st5" d="M24.4,19c0-3.5,0-6.9,0-10.4c0-0.2,0.1-0.2,0.2-0.2c1.1,0,2.2,0.3,3.3,0.7c1.1,0.5,2.2,1.1,3.1,1.9
			c1.1,0.9,1.8,2.1,2.5,3.3c0.4,0.7,0.6,1.5,0.8,2.2c0,0.2,0.1,0.4,0.1,0.6c0,0.1,0,0.1-0.1,0.1c-0.8,0-1.5,0-2.3,0
			c-0.1,0-0.1-0.1-0.2-0.1c-0.2-0.5-0.4-1-0.6-1.5c-0.4-1.1-1.2-2-2-2.7c-0.4-0.4-0.9-0.7-1.5-0.9c-0.5-0.1-0.5-0.2-0.5,0.3
			c0,4.6,0,9.2,0,13.8c0,0.3,0,0.3,0.3,0.2c0.6-0.2,1-0.5,1.5-0.8c1-0.8,1.8-1.8,2.4-3c0.2-0.5,0.4-0.9,0.4-1.4c0-0.1,0-0.2-0.2-0.2
			c-1,0-2,0-3.1,0c-0.4,0-0.4,0-0.4-0.3c0-0.7,0-1.5,0-2.2c0-0.2,0.1-0.2,0.2-0.2c2,0,4.1,0,6.1,0c0.1,0,0.2,0,0.2,0.1
			c0,0.6,0.1,1.1,0,1.7C34.6,20.9,34.4,22,34,23c-1,2.5-2.7,4.4-5.2,5.7c-1,0.5-2.1,0.8-3.2,0.9c-0.4,0-0.7,0.1-1.1,0
			c-0.2,0-0.2-0.1-0.2-0.2c0-2.4,0-4.8,0-7.2C24.4,21.1,24.4,20,24.4,19C24.4,19,24.4,19,24.4,19z"/>
		<path class="st5" d="M23.6,23.8c0,1.9,0,3.7,0,5.6c0,0.1,0,0.2-0.2,0.2c-1.6,0.2-3-0.3-4.4-1.1c-2-1.2-3.6-2.8-4.7-4.9
			c-0.3-0.5-0.5-1-0.5-1.6c0,0,0-0.1,0-0.1c0-0.2,0-0.2,0.2-0.2c0.7,0,1.5,0,2.2,0c0.1,0,0.2,0,0.3,0.2c0.4,0.6,0.7,1.2,1.1,1.8
			c0.6,0.9,1.4,1.5,2.2,2.2c0.2,0.2,0.4,0.3,0.7,0.4c0.2,0.1,0.4,0,0.4-0.3c0-0.3,0-0.5,0-0.8c0-0.7,0-1.3,0-2c0-0.7,0-1.5-0.1-2.2
			c0-0.1-0.1-0.1-0.2-0.1c-0.5,0-0.9,0-1.4,0c-1.9,0-3.8,0-5.7,0c-0.2,0-0.2,0-0.2-0.2c-0.1-0.8-0.1-1.7-0.1-2.5
			c0.1-1.2,0.5-2.4,1.1-3.5c0.6-1.3,1.4-2.5,2.5-3.4c1.4-1.2,2.9-2.1,4.7-2.5c0.6-0.1,1.2-0.2,1.8-0.1c0.1,0,0.1,0,0.1,0.1
			c0,0,0,0.1,0,0.1c0,2.8,0,5.7,0,8.5c0,0.2-0.1,0.2-0.2,0.2c-0.7,0-1.5,0-2.2,0C21,17.2,21,17.2,21,17c0-1.6,0-3.3,0-4.9
			c0-0.3,0-0.3-0.3-0.2c-0.5,0.1-1,0.4-1.4,0.7c-1.5,1.2-2.5,2.7-2.9,4.5c-0.1,0.3-0.1,0.5-0.1,0.8c0,0.1,0,0.1,0.1,0.1
			c0,0,0.1,0,0.1,0c2.3,0,4.6,0,7,0c0.2,0,0.2,0,0.2,0.2C23.6,20.1,23.6,21.9,23.6,23.8C23.6,23.8,23.6,23.8,23.6,23.8z"/>
		<path class="st5" d="M23.6,36.6c0,2.1,0,4.2,0,6.3c0,0.1,0,0.1,0,0.2c-0.1,0-0.1,0-0.2-0.1c-0.6-0.4-1-0.8-1.5-1.3
			c-0.7-0.7-1.4-1.4-2-2.1c-0.2-0.2-0.2-0.3-0.2-0.5c0.2-1.5,0.5-3,0.8-4.5c0.1-0.7,0.3-1.4,0.2-2.2c0-0.5-0.1-0.9-0.5-1.2
			c-0.3-0.3-0.7-0.4-1.1-0.4c-0.9-0.1-1.7-0.1-2.6-0.2c-0.8,0-1.5-0.1-2.2-0.3c-0.8-0.3-1.2-0.8-1.2-1.7c0-1,0-2,0-3
			c0-1,0.1-1.9,0.1-2.9c0-0.1,0-0.1,0.1-0.1c0.1,0,0.1,0.1,0.1,0.1c0.4,0.6,0.7,1.3,1.1,2c1.6,2.7,3.9,4.4,6.9,5.1
			c0.7,0.2,1.4,0.3,2.1,0.3c0.2,0,0.1,0.1,0.1,0.2c0,1.7,0,3.4,0,5.1C23.6,35.8,23.6,36.2,23.6,36.6C23.6,36.6,23.6,36.6,23.6,36.6z
			"/>
		<path class="st5" d="M35,22.6c0,0.1,0,0.2,0,0.3c0,1.6,0,3.1,0,4.7c0,0.4,0,0.8,0,1.2c-0.1,1-0.4,1.4-1.4,1.7
			c-0.6,0.2-1.2,0.2-1.7,0.3c-1,0.1-2,0.1-2.9,0.2c-0.4,0.1-0.8,0.2-1.1,0.3c-0.5,0.3-0.6,0.7-0.6,1.2c0,1,0.1,1.9,0.3,2.9
			c0.2,1.1,0.5,2.2,0.7,3.3c0.1,0.4,0,0.8-0.3,1.1c-0.7,0.6-1.3,1.3-2,1.9c-0.4,0.4-0.8,0.8-1.2,1.1c-0.1,0.1-0.3,0.1-0.4,0.2
			c0-0.1,0-0.2,0-0.2c0-4.1,0-8.2,0-12.4c0-0.2,0.1-0.3,0.2-0.3c0.8-0.1,1.5-0.2,2.3-0.3c1.7-0.3,3.2-1.1,4.5-2.2
			c0.6-0.6,1.2-1.1,1.7-1.8c0.5-0.8,1-1.5,1.3-2.4C34.6,23.1,34.7,22.8,35,22.6z"/>
	</g>
</g>
<g id="圖層_4" class="st0">
	<g class="st2">
		<path class="st6" d="M26.4,45.2C24.7,44.9,23.3,44,22,43c-0.2-0.6,0.3-1.1,0.6-1.5c2.2-3,4.3-6.1,6.5-9.2c0.4-0.5,0.7-1.1,1.5-1.2
			c1.5,0.1,2.6-0.7,3.5-1.8c2.4-3,4.5-6.2,6.5-9.5c1.7-2.9,3-5.9,3.8-9.1c0.2-0.6,0.2-1.2,0.1-1.8c0-0.3-0.2-0.6-0.2-0.9
			c-0.1-0.3-0.2-0.6,0.1-0.9c1.2,0.6,1.3,1.8,1.5,2.9c0.5,2.2,0,4.3-0.5,6.5c-0.3,1.3-0.6,2.7-1.2,3.9c-2.7,3.6-5.2,7.4-7.8,11.1
			c-3.1,4.4-6.2,8.8-9.2,13.3C26.8,44.9,26.6,45,26.4,45.2z"/>
		<path class="st7" d="M26.4,45.2c2-3.4,4.4-6.5,6.6-9.8c2.8-4.2,5.7-8.2,8.6-12.3c0.7-1,1.2-2.2,2.4-2.7c-1.1,4.1-2.6,8-4.7,11.6
			c-2.2,2.8-4.1,5.7-6.1,8.6c-0.9,1.3-1.9,2.5-2.7,3.9C29.3,45.4,27.8,45.5,26.4,45.2z"/>
		<path class="st8" d="M30.5,31.4c-1.2,0.2-1.4,1.3-1.9,2.1c-2.3,3.1-4.4,6.3-6.6,9.5c-1.3-0.9-2.6-1.8-3.7-3
			c-0.3-0.5,0-0.9,0.3-1.3c2.3-3.2,4.5-6.5,6.8-9.6c0.3-0.4,0.6-0.8,1.2-0.9c0.3,0,0.5,0.1,0.7,0.3C28.2,29.6,29.6,30.3,30.5,31.4z"
			/>
		<path class="st9" d="M26.6,28.4c-1.5,1.1-2.3,2.9-3.4,4.3c-1.6,2.2-3.1,4.4-4.6,6.7c-0.1,0.2-0.2,0.5-0.3,0.7
			c-1.2-1-2.4-2.1-3.4-3.4c-0.1-0.3,0-0.5,0.2-0.7c2.5-3.3,4.7-6.7,7.1-10.1c0.3-0.4,0.6-1,1.2-1.1C25,25.6,26,26.8,26.6,28.4z"/>
		<path class="st10" d="M23.6,25c-1.6,1.2-2.3,3-3.4,4.4c-1.8,2.4-3.5,4.9-5.2,7.3c-0.6-0.5-1.1-1.1-1.6-1.8
			c-0.2-0.6,0.2-1.1,0.5-1.5c2.3-3.2,4.6-6.5,6.8-9.8c0.3-0.4,0.5-0.9,1.2-0.9C22.8,23.3,23.6,23.8,23.6,25z"/>
		<path class="st11" d="M28.4,2.7c0.3,0,0.5,0,0.8-0.1c0.3,0,0.5,0,0.8,0.1c1.3,0.2,1.4,0.4,0.8,1.2c-2.8,4-5.5,7.9-8.3,11.9
			c-0.2,0.2-0.3,0.4-0.6,0.5c-0.7,0.2-1.4,0.5-2.2,0.2c-0.5-0.4-0.4-1-0.1-1.4C22.5,11,25.3,6.8,28.4,2.7z"/>
		<path class="st12" d="M24,2.7c0.6,0,1.2,0.1,1.8,0.1c0.4,0.5,0,0.9-0.3,1.3c-2.4,3.6-4.9,7.1-7.5,10.7c-0.3,0.4-0.5,0.7-1,0.6
			c-0.3-0.1-0.5-0.3-0.7-0.6c-0.2-0.4-0.4-0.7-0.6-1.1c-0.1-0.2-0.1-0.3,0-0.5c2-2.2,3.5-4.9,5.3-7.2c0.8-1.1,1.4-2.4,2.5-3.2
			C23.7,2.7,23.8,2.7,24,2.7z"/>
		<path class="st13" d="M3.8,19.3c-0.3-0.4-0.5-0.8-0.5-1.3c-0.2-0.4-0.1-0.8,0.1-1.2c2-2.7,3.8-5.5,5.8-8.2c1-1.4,1.9-3,3.1-4.3
			c1.3-0.4,2.5-0.8,3.9-0.8c-0.4,0.9-1.3,1.2-1.9,1.8c-1.3,0.9-2,2.4-2.9,3.6c-2.1,3-4.2,6-6.3,9C4.8,18.5,4.5,19.1,3.8,19.3z"/>
		<path class="st14" d="M23.5,2.7c-2,3.5-4.6,6.6-6.8,10c-0.2,0.3-0.5,0.6-0.9,0.6c-0.4-0.3-0.5-0.8-0.7-1.2
			c-0.1-0.3-0.2-0.6-0.2-0.9c1.9-2.5,3.6-5,5.3-7.5C20.4,3.3,20.7,3,21,2.9c0.6-0.1,1.1,0.1,1.7-0.1C23,2.7,23.2,2.7,23.5,2.7z"/>
		<path class="st15" d="M3.8,19.3c3-4.3,6-8.5,9-12.8c0.4-0.6,0.8-1.1,1.4-1.5c0.4,0.9-0.3,1.6-0.2,2.5c-0.9,1.8-2.2,3.4-3.4,5
			c-1.8,2.6-3.6,5.2-5.5,7.8c-0.1,0.2-0.3,0.4-0.5,0.5C4.2,20.4,4,19.9,3.8,19.3z"/>
		<path class="st16" d="M15.2,12c0.4,0.3,0.5,0.8,0.5,1.3c0.1,0.1,0.1,0.2,0.2,0.3c0.1,0.4-0.1,0.7-0.3,0.9c-2.5,3.5-4.9,7-7.3,10.5
			C8,25.4,7.8,26,7.1,25.8c-0.3-0.4-0.6-0.8-0.7-1.3c0.4-1.2,1.3-2,1.9-3c1.9-2.7,3.8-5.4,5.7-8.1C14.3,12.8,14.6,12.3,15.2,12z"/>
		<path class="st17" d="M7.1,25.8c1.2-0.9,1.8-2.3,2.7-3.5c2.1-2.8,4.1-5.8,6.2-8.6c0.4,0.2,0.5,0.6,0.5,1c0.4,0.7-0.1,1.2-0.4,1.7
			c-2,2.9-4.1,5.9-6.1,8.7c-0.6,0.8-1.1,1.8-1.7,2.5C7.7,27.1,7.4,26.5,7.1,25.8z"/>
		<path class="st18" d="M4.6,20.9c0.5-1.4,1.5-2.4,2.3-3.6c2.2-3.2,4.5-6.4,6.8-9.6c0.7,0.1,0.5,0.7,0.6,1.2c0,0.6-0.2,1.2-0.6,1.7
			c-2.4,3.5-4.9,7-7.3,10.4c-0.3,0.4-0.5,1.2-1.3,1C4.8,21.6,4.6,21.3,4.6,20.9z"/>
		<path class="st19" d="M22,16.1c2.8-4,5.6-8.1,8.4-12.1C30.9,3.3,30.9,3,30,2.7c0.8-0.1,1.6,0.1,2.3,0.2c0.3,0.3,0.1,0.7-0.1,0.9
			C29.4,8,26.6,12.1,23.6,16c-0.3,0.2-0.7,0.2-1.1,0.3C22.3,16.4,22.1,16.3,22,16.1z"/>
		<path class="st20" d="M8.2,27.6c0-1,0.8-1.7,1.3-2.5c2.2-3.2,4.4-6.3,6.6-9.4c0.3-0.4,0.5-0.7,0.4-1.2c0.2,0.2,0.3,0.4,0.5,0.5
			c0.3,0.3,0.5,0.6,0.5,1c-0.4,1.2-1.4,2-2.1,3.1c-2,3-4.2,5.9-6.2,8.9c-0.1,0.2-0.3,0.3-0.5,0.4C8.5,28.3,8.3,28,8.2,27.6z"/>
		<path class="st21" d="M42.9,5.6c0.3,0.3,0.6,0.6,0.9,0.9c-0.4,1.1-1.2,2-1.9,2.9c-1.4,2-2.8,4-4.2,5.9c-0.3,0.5-0.6,1-1.1,1.2
			c-0.5,0.1-1.1,0.2-1.5-0.3c0-0.8,0.5-1.4,0.9-1.9c1.9-2.6,3.7-5.3,5.5-7.9C41.9,6,42.3,5.6,42.9,5.6z"/>
		<path class="st22" d="M30.5,44.5c-0.1-0.5,0.1-0.8,0.4-1.2c2.6-3.6,5.1-7.3,7.7-10.9c0.2-0.3,0.4-0.4,0.7-0.4
			c-1.8,3.8-3.8,7.4-6.4,10.6C32.3,43.4,31.5,44.1,30.5,44.5z"/>
		<path class="st23" d="M20.9,3c-1.9,2.8-3.6,5.8-5.9,8.2c-0.2,0-0.3-0.1-0.4-0.3c-0.1-0.3-0.2-0.6-0.3-0.8c0-0.2-0.1-0.4,0-0.5
			c1.2-2.3,2.9-4.3,4.4-6.4c0.7-0.3,1.4-0.2,2.1-0.2C20.8,2.8,20.9,2.8,20.9,3z"/>
		<path class="st24" d="M12.4,4.3C11.8,6,10.5,7.2,9.5,8.7c-1.5,2.4-3.3,4.6-4.8,7c-0.5,0.8-1.5,1.3-1.4,2.4
			c-0.3-0.4-0.5-0.8-0.5-1.3c-0.3-0.4,0-0.7,0.2-1c2.4-3.3,4.7-6.7,7-10c0.2-0.3,0.5-0.6,0.8-0.9C11.3,4.5,11.8,4.4,12.4,4.3z"/>
		<path class="st18" d="M40.6,4.6c0.4,0.2,0.9,0.3,1.3,0.5C42,5.5,41.7,5.8,41.5,6c-2.2,3.2-4.4,6.3-6.6,9.5
			c-0.2,0.4-0.5,0.7-0.9,0.9c-0.6,0.1-1.2,0.3-1.7-0.3c1.1-1.6,2.3-3.1,3.4-4.8c1.4-2,2.8-4,4.2-6C40.1,5.1,40.3,4.8,40.6,4.6z"/>
		<path class="st25" d="M10.8,4.8c-1,2.1-2.5,3.8-3.8,5.7c-1.4,2.1-2.9,4.2-4.3,6.2c-0.3-0.3-0.3-0.6-0.3-1
			c-0.2-0.6-0.1-1.1,0.2-1.6c2.1-2.9,4-6,6.3-8.8C9.6,5.1,10.2,4.8,10.8,4.8z"/>
		<path class="st26" d="M36.7,3.5c0.3,0.1,0.7,0.2,1,0.2c0.6,0.3,0.4,0.7,0.2,1.1c-2.6,3.8-5.2,7.6-8,11.2c-0.4,0.2-0.8,0.2-1.1,0
			c-0.5-0.6,0.1-1,0.3-1.5c2.2-3.2,4.5-6.4,6.7-9.6C36.2,4.5,36.5,4,36.7,3.5z"/>
		<path class="st27" d="M11.3,32.3c-0.4-0.3-0.6-0.7-0.8-1.1c-0.1-0.5,0.1-0.8,0.4-1.2c2.6-3.4,4.9-6.9,7.4-10.4
			c0.3-0.4,0.6-0.7,1.2-0.6c0.4,0.2,0.6,0.5,0.5,0.9c-2.8,3.9-5.6,7.9-8.3,11.9C11.6,32.1,11.5,32.2,11.3,32.3z"/>
		<path class="st22" d="M18.6,3.2c-0.1,1.2-1.2,2-1.7,2.9c-0.7,1.3-1.8,2.3-2.4,3.6c-0.6,0-0.2-0.6-0.5-0.8C13.9,8.5,14,8,13.7,7.6
			c-0.1-0.9,0.3-1.7,0.5-2.6c0.7-0.5,1.4-1,2.1-1.5C17,3.3,17.8,3.1,18.6,3.2z"/>
		<path class="st28" d="M30,15.9c1.1-2.1,2.7-4,4-5.9c1.2-1.8,2.5-3.6,3.8-5.3c0.2-0.3,0.1-0.6,0-0.8c0.3,0.1,0.7,0.2,1,0.3
			c0.7,0.5,0.2,1-0.1,1.4c-1.5,2.3-3.1,4.4-4.6,6.6c-0.7,1-1.4,2.1-2.1,3c-0.3,0.4-0.5,0.8-1,1C30.6,16.2,30.2,16.2,30,15.9z"/>
		<path class="st29" d="M9,5.4c-0.8,2-2.3,3.6-3.5,5.3c-0.8,1.3-1.7,2.4-2.6,3.7c-0.3,0.4-0.4,0.8-0.4,1.3c-0.3-0.3-0.3-0.7-0.2-1.1
			c-0.3-1.1-0.1-2.2,0.6-3.1c1.2-1.6,2.3-3.3,3.5-4.9C7.2,6.1,8.1,5.7,9,5.4z"/>
		<path class="st30" d="M40.6,4.6c-0.2,1-1,1.7-1.5,2.5c-1.8,2.7-3.6,5.3-5.5,7.9c-0.3,0.4-0.6,1-1.3,0.9c-0.2,0.2-0.3,0.1-0.5,0
			c-0.2-0.5,0.1-0.8,0.4-1.2c2.3-3.2,4.5-6.4,6.8-9.6c0.3-0.4,0.5-0.7,0.9-0.8C40.1,4.4,40.4,4.5,40.6,4.6z"/>
		<path class="st31" d="M14.4,10.2c0.3,0.2,0.2,0.5,0.3,0.8c0.3,0.5,0,0.9-0.3,1.3c-2.7,3.8-5.3,7.6-8,11.5
			c-0.1,0.1-0.2,0.2-0.3,0.2c-0.3-0.3-0.4-0.6-0.5-1c-0.2-0.4,0-0.7,0.2-1.1c2.5-3.5,5-7.1,7.5-10.6C13.6,10.9,13.9,10.4,14.4,10.2z
			"/>
		<path class="st32" d="M10,30.5c-0.3-0.2-0.4-0.5-0.5-0.8c-0.2-0.6,0.3-1.1,0.6-1.5c1.5-2,2.9-4.2,4.4-6.3c0.9-1.2,1.8-2.5,2.6-3.8
			c0.3-0.4,0.5-0.9,1.1-0.8c0.4,0.2,0.6,0.4,0.6,0.9c-2.6,3.9-5.4,7.7-8,11.5C10.7,30.1,10.4,30.4,10,30.5z"/>
		<path class="st33" d="M8.7,28.6c0.7-1.9,2.2-3.4,3.2-5c1.6-2.5,3.5-4.9,5.3-7.4c0.5-0.2,0.9,0,1.3,0.2c0.2,0.5-0.2,0.7-0.4,0.9
			c-0.8,0.1-0.8,0.9-1.2,1.4c-1.8,2-3.1,4.3-4.6,6.4c-0.9,1.2-2,2.3-2.6,3.8c-0.1,0.2-0.3,0.4-0.6,0.5C9,29.2,8.8,28.9,8.7,28.6z"/>
		<path class="st34" d="M6.1,24c0.4-1.5,1.5-2.5,2.4-3.8c1.9-2.8,3.9-5.5,5.8-8.3c0.2-0.3,0.2-0.6,0.4-0.9c0.1,0.1,0.2,0.2,0.3,0.3
			c0.1,0.3,0.2,0.5,0.2,0.8c-2,2.9-4,5.9-6.1,8.7c-0.9,1.2-1.6,2.6-2.7,3.7C6.3,24.3,6.2,24.2,6.1,24z"/>
		<path class="st35" d="M35.2,3.3c0.3,0.1,0.7,0.1,1,0.2c0.2,0.6-0.2,1-0.5,1.4c-2.4,3.4-4.8,6.8-7.2,10.3c-0.2,0.4-0.5,0.7-0.9,0.9
			c-0.3,0.1-0.6,0.1-0.9-0.1c-0.3-0.6,0.2-1.1,0.4-1.5c2.5-3.5,4.9-7.1,7.4-10.6C34.7,3.7,34.9,3.5,35.2,3.3z"/>
		<path class="st36" d="M36.7,16.5c2.2-3.2,4.4-6.4,6.6-9.5c0.1-0.2,0.3-0.3,0.5-0.4c0.2,0.1,0.4,0.3,0.5,0.5
			c0.1,0.3,0.1,0.5,0.2,0.8c-1.8,2.4-3.5,4.9-5.2,7.4c-0.4,0.6-0.8,1.4-1.6,1.7C37.3,16.9,36.9,17.1,36.7,16.5z"/>
		<path class="st37" d="M11.3,32.3c0.6-1.9,2.1-3.3,3.2-5c1.4-2.2,3-4.4,4.6-6.5c0.2-0.3,0.3-0.7,0.8-0.7c0.6,0,0.6,0.4,0.6,0.8
			c-2.8,3.9-5.5,7.8-8.2,11.7c-0.1,0.2-0.2,0.4-0.4,0.5C11.6,32.9,11.4,32.6,11.3,32.3z"/>
		<path class="st38" d="M10,30.5c2.2-3.2,4.4-6.3,6.6-9.5c0.7-1,1.5-1.9,2.2-2.8c0.6,0.1,0.7,0.5,0.6,1c-1.1,0.2-1.4,1.3-1.9,2
			c-1.8,2.5-3.5,5-5.3,7.5c-0.6,0.8-1.3,1.5-1.7,2.5C10.2,31,10.1,30.8,10,30.5z"/>
		<path class="st39" d="M34.1,16.1c2.3-3.2,4.5-6.5,6.8-9.7c0.3-0.5,0.7-0.9,1-1.3c0.3,0.2,0.7,0.4,1,0.5c-1.4,0.8-1.8,2.3-2.8,3.5
			c-1.7,2.1-3.1,4.4-4.6,6.7c-0.1,0.2-0.3,0.3-0.5,0.4C34.8,16.5,34.4,16.5,34.1,16.1z"/>
		<path class="st40" d="M14.4,10.2c-2.9,4-5.7,8.1-8.6,12.1c-0.1,0.2-0.1,0.4-0.2,0.6c-0.3-0.3-0.5-0.7-0.6-1.1
			c1.3-1.1,2.1-2.7,3.1-4.1c1.9-2.5,3.6-5.1,5.4-7.6c0.3-0.4,0.4-0.8,0.4-1.3c0.2,0.3,0.3,0.6,0.5,0.8C14.4,9.9,14.4,10.1,14.4,10.2
			z"/>
		<path class="st20" d="M27.7,15.9c2.9-4.1,5.7-8.2,8.6-12.4c0.2,0,0.4,0,0.5,0c0.4,0.5,0,0.7-0.2,1.1c-2.6,3.7-5.2,7.5-7.8,11.2
			C28.4,16.2,28,16.2,27.7,15.9z"/>
		<path class="st41" d="M21.9,22.9c-1,0.5-1.3,1.5-1.9,2.4c-2.2,3.2-4.6,6.3-6.7,9.6c-0.2-0.2-0.3-0.4-0.5-0.6
			c-0.4-0.5,0.1-0.9,0.3-1.3c2.4-3.5,4.8-6.9,7.2-10.4c0.3-0.4,0.5-0.7,1-0.7C21.9,22.2,22.1,22.4,21.9,22.9z"/>
		<path class="st42" d="M35.2,3.3c-0.7,1.6-1.9,2.9-2.8,4.3c-1.9,2.8-3.8,5.6-5.7,8.3c-0.2,0.3-0.6,0.3-0.9,0.2
			c-0.4-0.4-0.1-0.7,0.1-1c2.7-3.7,5.2-7.5,7.9-11.3c0.2-0.2,0.4-0.5,0.7-0.6C34.7,3.2,34.9,3.3,35.2,3.3z"/>
		<path class="st43" d="M34.4,3.2c-2,2.9-4,5.9-6.1,8.8c-0.9,1.3-1.8,2.6-2.7,3.9c-0.1,0.1-0.2,0.1-0.3,0c-0.6-0.7,0-1.1,0.3-1.6
			c2-2.9,4.1-5.9,6.2-8.8c0.5-0.7,1.1-1.3,1.3-2.2c0-0.1,0-0.2,0.1-0.3C33.6,3,34,3.1,34.4,3.2z"/>
		<path class="st37" d="M33.1,3c0,0.1,0,0.1,0,0.2c-0.1,0.9-0.7,1.5-1.2,2.2c-2.3,3.3-4.6,6.6-6.9,9.8c-0.4,0.5-0.6,1.2-1.5,0.6
			c2.7-3.8,5.3-7.6,8-11.5C31.8,4,32.3,3.6,32.3,3C32.6,3,32.8,3,33.1,3z"/>
		<path class="st44" d="M21.4,22.1c-1.4,1.4-2.4,3.1-3.5,4.7c-1.6,2.2-3.2,4.6-4.8,6.9c-0.1,0.2-0.1,0.4-0.2,0.6
			c-0.3-0.2-0.5-0.4-0.6-0.7c0.8-1.7,2-3.1,3-4.6c1.5-2.2,3.1-4.5,4.7-6.6c0.2-0.3,0.4-0.8,0.9-0.8C21.3,21.6,21.6,21.7,21.4,22.1z"
			/>
		<path class="st45" d="M6.4,6.6C5.9,8.4,4.6,9.6,3.6,11c-0.7,1.1-1.6,2.1-1.4,3.6C1.3,11.4,3,8.2,6.4,6.6z"/>
		<path class="st46" d="M9.3,29.4c1-2.1,2.6-3.8,3.8-5.7c1.3-2.1,2.9-3.9,4.1-6.1c0.2-0.4,0.4-0.7,0.9-0.4c0.2,0,0.3,0,0.2,0.3
			c-1.1,0.7-1.7,1.9-2.3,2.9c-0.8,1.3-1.9,2.5-2.7,3.9c-1.1,1.9-2.5,3.6-3.8,5.4C9.4,29.6,9.3,29.5,9.3,29.4z"/>
		<path class="st47" d="M11.8,33c0.6-1.9,2.1-3.3,3.2-5c1.4-2.2,3-4.4,4.6-6.5c0.2-0.3,0.4-0.7,0.8-0.7c0.2,0,0.3,0.1,0.3,0.4
			c-2.1,3.3-4.4,6.4-6.7,9.6c-0.6,0.9-1.1,1.9-2,2.5C12,33.2,11.9,33.1,11.8,33z"/>
		<path class="st34" d="M39.8,4.3c-2.7,3.9-5.3,7.7-8,11.6c-0.3,0.2-0.5,0.2-0.8,0c2.5-3.5,4.9-7.1,7.4-10.6
			c0.3-0.4,0.7-0.7,0.4-1.2C39.2,4.1,39.5,4.2,39.8,4.3z"/>
		<path class="st48" d="M12.1,33.3c2-2.9,4-5.9,6.1-8.8c0.8-1.2,1.7-2.3,2.5-3.4c0.5-0.1,0.4,0.2,0.3,0.5c-2.1,2.6-3.8,5.4-5.8,8.1
			c-1,1.3-1.7,2.8-2.9,3.9C12.2,33.5,12.2,33.4,12.1,33.3z"/>
		<path class="st12" d="M20.9,3c-0.1,0-0.2,0-0.3-0.1c0.7-0.3,1.4-0.2,2.1-0.2C22.2,3.2,21.5,2.8,20.9,3z"/>
		<path class="st9" d="M18.6,16.5c-0.4-0.1-0.9,0-1.3-0.3c-0.1-0.3-0.2-0.7-0.3-1c1.1-0.2,1.3-1.3,1.8-2c2.2-3.1,4.4-6.2,6.5-9.3
			c0.2-0.3,0.3-0.7,0.5-1c0.9,0,1.7,0,2.6,0c-0.4,1.5-1.5,2.5-2.3,3.7c-2,3-4.1,5.9-6.1,8.7c-0.3,0.4-0.4,0.8-0.3,1.2
			C19.3,16.7,19,16.7,18.6,16.5z"/>
		<path class="st49" d="M18.6,16.5c0.3,0,0.7-0.1,1-0.1c0.8-0.1,1.6-0.2,2.3-0.2c0.2,0,0.4,0,0.5,0c1,0.1,1.9-0.4,2.8-0.2
			c0.1,0,0.2,0,0.3,0c0.3,0,0.7,0,1,0c0.3,0,0.7,0,1,0c0.3,0,0.7,0,1,0c0.4,0,0.9,0,1.3,0c0.3,0,0.7,0,1,0c0.3,0,0.5,0,0.8,0
			c0.2,0,0.3,0,0.5,0c0.6,0.3,1.2,0.2,1.8,0.2c0.3,0,0.7,0,1,0.1c0.5,0.3,1.1,0.2,1.6,0.3c0.3,0.2,0.6,0.2,1,0.2
			c0.3,0.1,0.6-0.1,0.9,0.1c0.2,0.1,0.5,0.2,0.7,0.3c1.5,1.1,1.7,1.6,1.4,3c-1.9,3.4-4.1,6.5-6.5,9.5c-0.9,1.1-2,2-3.6,1.9
			c-1.6-0.7-2.7-2-3.9-3.1c-1-1.1-2-2.3-3-3.4c-0.5-0.8-1.1-1.4-1.7-2c0-0.4-0.3-0.6-0.5-0.8c-0.1-0.2-0.3-0.4-0.4-0.5
			c-0.1-0.2-0.2-0.3-0.3-0.5c-0.1-0.1-0.1-0.2-0.2-0.3c-0.1-0.3-0.3-0.6-0.5-0.8c-0.1-0.3-0.2-0.6-0.5-0.8c-0.2-0.3-0.4-0.7-0.6-1
			c-0.2-0.3-0.3-0.5-0.5-0.8c-0.1-0.1-0.1-0.2-0.2-0.3C17.9,16.7,18.3,16.6,18.6,16.5z"/>
		<path class="st50" d="M40.7,20.1c0.1-1.3-0.5-2.2-1.6-2.9c1.6-1.8,2.8-3.9,4.2-5.9c0.3-0.4,0.6-1,1.3-1c0.1,0.1,0.1,0.1,0.1,0.2
			c0,0.1,0,0.1-0.1,0.1c-0.4,2.5-1.5,4.7-2.5,6.9C41.7,18.5,41.4,19.4,40.7,20.1z"/>
		<path class="st29" d="M38.5,17c-0.3,0-0.6,0-0.8-0.3c2.1-2.5,3.8-5.3,5.7-7.9c0.3-0.4,0.5-0.9,1.1-1c0.1,0.3,0.1,0.5,0.2,0.8
			c0,0.1-0.1,0.2-0.1,0.4c-1.6,2.7-3.4,5.1-5.2,7.6C39.2,16.9,38.9,17.1,38.5,17z"/>
		<path class="st51" d="M44.5,8.9c0.1-0.1,0.1-0.2,0.2-0.2c0.1,0.7,0.3,1.4-0.1,2.1c0-0.1,0-0.2,0-0.3C44,10,44.3,9.4,44.5,8.9z"/>
		<path class="st27" d="M25.3,15.9c-0.9,0.1-1.9,0.1-2.8,0.2c0.3-0.3,0.7-0.1,1-0.2c0.6,0.1,0.8-0.2,1.1-0.6c2.5-3.6,5-7.2,7.6-10.8
			c0.3-0.4,0.6-0.8,0.9-1.2c0.8,0.2,0.2,0.6,0,0.8c-2.2,3.2-4.5,6.4-6.7,9.6C26,14.3,25.2,14.9,25.3,15.9z"/>
		<path class="st52" d="M44.5,8.9c0,0.5,0,1,0,1.6c-1.7,1.7-2.9,3.9-4.3,5.8c-0.3,0.4-0.6,0.9-1.2,0.9c-0.2-0.1-0.4-0.2-0.5-0.2
			c1-0.7,1.5-1.8,2.2-2.8C42,12.5,43.2,10.7,44.5,8.9z"/>
	</g>
</g>
<g id="圖層_3" class="st0">
	<g class="st2">
		<path class="st53" d="M24,2c0,0,0.1,0.1,0.1,0.1c1.1,1.1,2.3,2.3,3.4,3.4c1.1,1.1,2.1,2.1,3.2,3.2c1.5,1.5,3,3,4.6,4.6
			c1.5,1.5,3,3,4.6,4.6c1.5,1.5,3,3,4.5,4.5c0.5,0.5,1,1.1,1.6,1.6c0.1,0.1,0.1,0.2,0,0.3c-3.6,3.6-7.3,7.3-10.9,10.9
			c-1.9,1.9-3.9,3.9-5.8,5.8c-1.4,1.4-2.9,2.9-4.4,4.3c-0.2,0.2-0.5,0.5-0.7,0.7C24,46,24,46,23.9,45.9c-2.4-2.4-4.9-4.9-7.3-7.3
			c-1.7-1.7-3.5-3.5-5.2-5.2c-1.4-1.4-2.8-2.8-4.2-4.2c-1.6-1.6-3.3-3.3-4.9-4.9c-0.3-0.3-0.3-0.3,0-0.5c2.3-2.3,4.7-4.7,7-7
			c1.6-1.6,3.2-3.2,4.7-4.7c1.8-1.8,3.7-3.7,5.5-5.5c1.5-1.5,3-2.9,4.4-4.4C23.9,2.1,23.9,2,24,2z"/>
		<path class="st54" d="M24,3.4c0.1,0,0.1,0.1,0.2,0.1c0.4,0.4,0.8,0.8,1.1,1.1c2.5,2.5,4.9,4.9,7.4,7.4c1.2,1.2,2.4,2.4,3.6,3.6
			c1.1,1.1,2.1,2.1,3.2,3.2c1.3,1.3,2.6,2.6,4,3.9c0.4,0.4,0.8,0.8,1.2,1.2c0.1,0.1,0.1,0.2,0,0.3c-1,1-2,2-3,3
			c-2.6,2.6-5.2,5.2-7.8,7.8c-1.4,1.4-2.7,2.7-4.1,4.1c-1.8,1.8-3.6,3.6-5.3,5.3c-0.2,0.2-0.2,0.2-0.4,0c-1-1-2.1-2.1-3.1-3.1
			c-0.8-0.8-1.7-1.7-2.5-2.5c-1.5-1.5-3.1-3.1-4.6-4.6c-3.3-3.3-6.7-6.7-10-10c-0.1-0.1-0.2-0.2,0-0.3c0.8-0.8,1.6-1.6,2.4-2.4
			c0.8-0.8,1.7-1.7,2.5-2.5c2.2-2.2,4.5-4.5,6.7-6.7c2.9-2.9,5.8-5.8,8.7-8.7C23.9,3.5,23.9,3.4,24,3.4z"/>
		<path class="st55" d="M9.2,24c1.5,0,3.1,0,4.6,0c0.1,0,0.2,0.1,0.3,0.2c1.6,1.6,3.2,3.2,4.8,4.8c1.3,1.3,2.6,2.6,3.9,3.9
			c0.3,0.3,0.7,0.7,1,1c0.2,0.2,0.2,0.1,0.3,0c0.5-0.5,1.1-1.1,1.6-1.6c2.6-2.6,5.3-5.3,7.9-7.9c0.2-0.2,0.4-0.3,0.7-0.3
			c3,0,6.1,0,9.1,0c0.1,0,0.1,0,0.2,0c0,0.1,0,0.1-0.1,0.1c-1.8,1.8-3.6,3.6-5.3,5.3c-4.7,4.7-9.4,9.3-14,14c-0.1,0.1-0.2,0.2-0.4,0
			C17.4,37.1,11,30.7,4.6,24.3c-0.1-0.1-0.3-0.1-0.2-0.3c0-0.1,0.2,0,0.3,0C6.2,24,7.7,24,9.2,24C9.2,24,9.2,24,9.2,24z"/>
		<path class="st56" d="M27.8,18.8c0-1.7,0-3.3,0-5c0-0.2,0.1-0.3,0.3-0.2c0.5,0,1,0,1.5,0c0.8,0,1.5,0.3,2.1,1
			c0.8,0.9,1.2,2,1.3,3.2c0.1,1,0.1,2-0.2,3c-0.3,1-0.7,1.9-1.4,2.6c-0.5,0.5-1.1,0.7-1.7,0.7c-0.5,0-1,0-1.6,0
			c-0.2,0-0.3,0-0.3-0.3C27.8,22.1,27.8,20.5,27.8,18.8z"/>
		<path class="st56" d="M16.8,18.8c0-1.6,0-3.3,0-4.9c0-0.2,0-0.3,0.3-0.3c1,0,2,0,2.9,0c0.2,0,0.2,0,0.2,0.2c0,3.3,0,6.7,0,10
			c0,0.2-0.1,0.2-0.2,0.2c-1,0-2,0-3,0c-0.2,0-0.2-0.1-0.2-0.2C16.8,22.1,16.8,20.5,16.8,18.8z"/>
		<rect x="20.5" y="10.2" class="st55" width="6.9" height="17.3"/>
	</g>
</g>
<g id="圖層_2">
	<g>
		<path class="st57" d="M46,25.8c-0.3,0.9-0.3,1.8-0.5,2.7c-0.3,1.5-0.8,2.9-1.4,4.3c-0.2,0.4-0.3,0.5-0.7,0.3
			c-4-2.1-8.1-3.5-12.5-4.1c-0.4-0.1-0.5-0.3-0.5-0.7c0-3.4,0-6.8,0-10.1c0-0.5-0.1-0.7-0.6-0.7c-3.9,0-7.7,0-11.6,0
			c-0.5,0-0.6,0.1-0.6,0.6c0,3.4,0,6.8,0,10.1c0,0.5-0.1,0.7-0.6,0.7c-4.3,0.7-8.5,2.1-12.4,4.1c-0.4,0.2-0.5,0.2-0.7-0.2
			C0.3,25,1.9,15.5,7.8,9.2c3.7-4,8.3-6.3,13.7-7c0.1,0,0.2,0,0.3-0.1c1.5,0,3,0,4.5,0c2.2,0.1,4.2,0.7,6.2,1.5
			c4.7,2,8.2,5.1,10.8,9.5c1.2,2.1,2,4.4,2.5,6.8c0.2,0.8,0.1,1.7,0.3,2.5c0,0,0,0.1,0,0.1c-0.1,0.3,0,0.6-0.1,0.9
			c0,0.4,0,0.8,0,1.2c0,0.3-0.1,0.6,0.1,1C46,25.7,46,25.8,46,25.8z"/>
		<path class="st58" d="M24,31.5c6.3,0,12.3,1.4,17.9,4.3c0.4,0.2,0.5,0.3,0.2,0.8c-4,5.6-9.4,8.8-16.3,9.3
			c-8.2,0.6-14.8-2.6-19.8-9.2c-0.5-0.6-0.5-0.6,0.2-1c5.4-2.7,11.1-4.1,17.1-4.2C23.5,31.5,23.7,31.5,24,31.5z"/>
	</g>
</g>
</svg>
