<?xml version="1.0" encoding="utf-8"?>
<!-- Generator: Adobe Illustrator 24.2.1, SVG Export Plug-In . SVG Version: 6.00 Build 0)  -->
<svg version="1.1" id="圖層_1" xmlns="http://www.w3.org/2000/svg" xmlns:xlink="http://www.w3.org/1999/xlink" x="0px" y="0px"
	 viewBox="0 0 20 20" style="enable-background:new 0 0 20 20;" xml:space="preserve">
<style type="text/css">
	.st0{fill:#867181;}
</style>
<g>
	<path class="st0" d="M10.2,5C9.4,5,8.6,5.3,7.9,5.9C7.3,6.5,7,7.2,7,8.1c0,0.5,0.4,0.8,0.8,0.8c0.5,0,0.8-0.4,0.8-0.8
		c0-0.4,0.2-0.8,0.4-1c0.3-0.3,0.7-0.4,1.1-0.4c0.8,0,1.4,0.6,1.4,1.4c0,0.7-0.5,1.3-1.2,1.5C9.6,9.7,9.2,10.3,9.2,11v1
		c0,0.4,0.4,0.8,0.8,0.8c0.5,0,0.8-0.4,0.8-0.8l0.1-0.9c1.4-0.4,2.4-1.7,2.3-3.1C13.1,6.4,11.8,5.1,10.2,5z"/>
	<path class="st0" d="M10.1,13.7c-0.5,0-0.8,0.4-0.8,0.8c0,0.4,0.4,0.8,0.8,0.8c0.5,0,0.8-0.4,0.8-0.8
		C10.9,14.1,10.6,13.7,10.1,13.7z"/>
	<path class="st0" d="M10,1c-5,0-9,4-9,9s4,9,9,9c5,0,9-4,9-9S15,1,10,1z M10,17c-3.9,0-7-3.1-7-7s3.1-7,7-7c3.9,0,7,3.1,7,7
		S13.9,17,10,17z"/>
</g>
</svg>
