<?xml version="1.0" encoding="utf-8"?>
<!-- Generator: Adobe Illustrator 24.2.1, SVG Export Plug-In . SVG Version: 6.00 Build 0)  -->
<svg version="1.1" id="圖層_1" xmlns="http://www.w3.org/2000/svg" xmlns:xlink="http://www.w3.org/1999/xlink" x="0px" y="0px"
	 viewBox="0 0 20 20" style="enable-background:new 0 0 20 20;" xml:space="preserve">
<style type="text/css">
	.st0{fill:#867181;}
</style>
<g>
	<path class="st0" d="M12.8,4.2c-0.8-0.2-1.6-0.1-2.3,0.4c-0.4,0.2-0.5,0.7-0.4,1.1l0,0C10.4,6.1,11,6.2,11.3,6
		c0.4-0.2,0.8-0.3,1.1-0.2c0.3,0.1,0.5,0.3,0.7,0.5c0.2,0.3,0.3,0.7,0.2,1c-0.1,0.3-0.3,0.6-0.5,0.8c-0.2,0.1-0.3,0.3-0.3,0.5
		c0,0.2,0,0.5,0.1,0.6c0.1,0.2,0.4,0.4,0.7,0.4c0.2,0,0.3,0,0.5-0.1c0.6-0.4,1-1,1.2-1.9c0.1-0.8,0-1.6-0.4-2.1
		C14.2,4.9,13.6,4.4,12.8,4.2z"/>
	<path class="st0" d="M16,4.4c-1.2-1.8-2.6-3-3.6-3.6C11,0,9.7-0.2,8.8,0.4C8.6,0.5,8.5,0.6,8.4,0.8C8.4,0.8,8.3,0.9,8.2,1
		C8.2,1,8.1,1.2,8,1.4c0,0.1-0.1,0.1-0.1,0.2L4.8,8.2L4.7,8.3L3.5,9.1C3.4,9.1,3.4,9.2,3.3,9.2c-0.1,0-0.1,0.1-0.2,0.1
		C2.8,9.5,2.7,9.6,2.5,9.7C2.4,9.8,2.3,9.8,2.2,9.9l-0.6,0.6c-0.3,0.5-0.5,1-0.6,1.6c-0.1,0.8,0.1,1.7,0.7,2.3
		c0.5,0.7,1.3,1.1,2.1,1.2h0.3c0.4,0,1-0.1,1.2-0.4c0.1,0,0.3-0.1,0.4-0.2l2.8,3.9c0.5,0.7,1.2,1,2,1c0.6,0,1-0.1,1.3-0.4
		c0.5-0.3,0.9-0.9,1-1.5c0.1-0.6,0-1.3-0.4-1.8l-2.1-3.1l5.7-0.2c0.4,0,0.8-0.1,1.3-0.4C18.9,11.4,18.4,7.9,16,4.4z M6.5,12.5
		L6.5,12.5c-0.8,0.6-1.5,1.2-1.6,1.3C4.6,14,4.4,14,4.1,14c-0.4,0-0.8-0.3-1-0.6c-0.3-0.3-0.4-0.7-0.3-1.2c0-0.3,0.1-0.5,0.3-0.8
		l0.3-0.3C3.4,11.1,3.5,11,3.6,11c0.1-0.1,0.2-0.1,0.3-0.2c0.1-0.1,0.2-0.1,0.3-0.2c0.1-0.1,0.2-0.1,0.3-0.2l0.8-0.5
		C5.4,10.1,5.6,10.5,6,11c0.2,0.4,0.5,0.8,0.9,1.3L6.5,12.5z M11.1,17.1c0.1,0.2,0.2,0.3,0.1,0.5c0,0.2-0.1,0.4-0.3,0.5
		c-0.3,0.2-0.7,0.2-1-0.2l-2.7-3.9l0.3-0.2c0.4-0.2,0.6-0.4,0.7-0.5l0.1-0.1h0.2L11.1,17.1z M8.5,11.6l-2.1-3L8.1,5
		c0.3,1.2,1,2.4,1.9,3.6c0.8,1.2,1.7,2.2,2.6,2.9L8.5,11.6z M16.6,10.7c-0.1,0.3-0.2,0.5-0.3,0.6c-0.2,0.1-0.4,0.2-0.7,0.1
		c-1-0.2-2.7-1.2-4.3-3.6C9.6,5.3,9.1,3.2,9.4,2.3l0.2-0.5l0,0l0,0h0l0,0c0.1-0.1,0.2-0.1,0.4-0.1c0.5,0,0.9,0.2,1.6,0.5
		c0.9,0.6,2,1.6,2.9,2.8l0.2,0.3C16.4,7.6,16.9,9.6,16.6,10.7z"/>
</g>
</svg>
