<?xml version="1.0" encoding="utf-8"?>
<!-- Generator: Adobe Illustrator 24.2.1, SVG Export Plug-In . SVG Version: 6.00 Build 0)  -->
<svg version="1.1" id="圖層_1" xmlns="http://www.w3.org/2000/svg" xmlns:xlink="http://www.w3.org/1999/xlink" x="0px" y="0px"
	 viewBox="0 0 20 20" style="enable-background:new 0 0 20 20;" xml:space="preserve">
<style type="text/css">
	.st0{fill:#867181;}
</style>
<g>
	<path class="st0" d="M8.9,14.7H5.2H5.1c-0.4,0-0.7,0.4-0.7,0.8c0,0.5,0.4,0.9,0.9,0.9H9h0.1c0.4,0,0.7-0.4,0.7-0.8
		C9.8,15.1,9.4,14.7,8.9,14.7z"/>
	<path class="st0" d="M15.7,2.4h-2.2V2V1.9V1.8c-0.1-0.3-0.4-0.6-0.8-0.6h-1.2l-0.1-0.1L11.3,1c-0.3-0.5-1-0.9-1.7-0.9H9.4H9.2
		C8.6,0.2,8,0.6,7.7,1.3L7.6,1.4H6.4H6.3H6.2C5.9,1.5,5.6,1.8,5.6,2.2v0.3H3.4H3.3C2.6,2.6,2,3.2,2,4v14.5v0.1
		c0.1,0.7,0.7,1.3,1.5,1.3h12.2h0.1c0.7-0.1,1.3-0.7,1.3-1.5V3.8V3.7V3.6C17,2.9,16.4,2.4,15.7,2.4z M7.4,3h1h0.1
		c0.4,0,0.7-0.4,0.7-0.8V2.1c0-0.2,0.2-0.3,0.4-0.3C9.8,1.8,9.9,2,10,2.2v0.1C10,2.7,10.4,3,10.8,3h1v0.7H7.4V3z M15.4,18.3H3.7V4.2
		h2v0.4v0.1c0,0.4,0.4,0.8,0.8,0.7h6.1h0.1c0.4,0,0.7-0.4,0.7-0.8V4.2h2V18.3z"/>
	<path class="st0" d="M8.9,12.3H5.2H5.1c-0.4,0-0.7,0.4-0.7,0.8c0,0.5,0.4,0.9,0.9,0.9H9h0.1c0.4,0,0.7-0.4,0.7-0.8
		C9.8,12.7,9.4,12.3,8.9,12.3z"/>
	<path class="st0" d="M5.1,7.5c-0.4,0-0.7,0.4-0.7,0.8c0,0.4,0.4,0.8,0.9,0.8h8.6H14c0.4,0,0.7-0.4,0.7-0.8c0-0.5-0.4-0.9-0.9-0.9
		L5.2,7.5H5.1z"/>
	<path class="st0" d="M8.9,9.9H5.2H5.1c-0.4,0-0.7,0.4-0.7,0.8c0,0.5,0.4,0.9,0.9,0.9H9h0.1c0.4,0,0.7-0.4,0.7-0.8
		C9.8,10.3,9.4,9.9,8.9,9.9z"/>
	<path class="st0" d="M12.4,13.1c-0.3,0-0.5-0.1-0.5-0.2c0,0,0.2-0.2,0.5-0.2c0.2,0,0.3,0,0.4,0.1c0.4,0.2,0.8,0.1,1.1-0.2
		c0.1-0.2,0.2-0.4,0.1-0.6c0-0.2-0.2-0.4-0.4-0.5l-0.5-0.3v-0.6c0-0.4-0.4-0.7-0.7-0.7c-0.4,0-0.7,0.4-0.7,0.7v0.6
		c-0.7,0.2-1.2,0.9-1.2,1.6c0,1,0.9,1.7,2,1.7c0.3,0,0.5,0.1,0.5,0.2c0,0-0.2,0.2-0.5,0.2c-0.2,0-0.3,0-0.4-0.1
		c-0.2-0.1-0.4-0.2-0.6-0.1c-0.2,0-0.4,0.2-0.5,0.3c-0.2,0.3-0.1,0.8,0.2,1.1l0.5,0.3V17c0,0.4,0.4,0.7,0.7,0.7s0.7-0.4,0.7-0.7
		v-0.6c0.7-0.2,1.2-0.9,1.2-1.6C14.3,13.8,13.4,13.1,12.4,13.1z"/>
</g>
</svg>
